<svg width="24" height="24" viewBox="0 0 24 24" fill="none" xmlns="http://www.w3.org/2000/svg">
<path fill-rule="evenodd" clip-rule="evenodd" d="M12.76 6.4444C12.76 5.6824 12.7808 4.70802 13.0697 4.26653C13.3039 3.90872 13.8521 3.47778 15.4286 3.47778C15.8483 3.47778 16.1886 3.14697 16.1886 2.73889C16.1886 2.33081 15.8483 2 15.4286 2C13.5765 2 12.4103 2.52144 11.7874 3.47315C11.2382 4.31215 11.2393 5.70684 11.2399 6.3762L11.24 6.4444L7.02177 6.44444C4.52397 6.44444 2.72078 9.164 5.14813 12.2042C4.52368 14.5087 5.14829 19.6955 12.0173 22C18.8862 19.6955 19.5104 14.5087 18.886 12.2042C21.2363 9.164 19.5107 6.44444 17.0129 6.44444L12.76 6.4444ZM17.6709 11.3163C17.6338 11.3643 17.6 11.414 17.5696 11.4653H6.4645C6.43014 11.4075 6.39156 11.3516 6.34884 11.2981C5.38599 10.0921 5.44198 9.21185 5.63864 8.75832C5.84851 8.27433 6.352 7.92222 7.02177 7.92222H17.0129C17.6736 7.92222 18.1576 8.26539 18.3624 8.74791C18.56 9.21351 18.606 10.1068 17.6709 11.3163ZM17.4932 12.9431H6.54092C6.40134 13.8072 6.47134 15.1198 7.13961 16.4559C7.84368 17.8635 9.25848 19.3891 12.0173 20.4268C14.776 19.3891 16.1907 17.8636 16.8946 16.4559C17.5628 15.1198 17.6328 13.8073 17.4932 12.9431Z" fill="white"/>
</svg>
