<svg width="24" height="24" viewBox="0 0 24 24" fill="none" xmlns="http://www.w3.org/2000/svg">
<path d="M0 12C0 5.37258 5.37258 0 12 0C18.6274 0 24 5.37258 24 12C24 18.6274 18.6274 24 12 24C5.37258 24 0 18.6274 0 12Z" fill="#E3E2E2"/>
<path d="M12 18C11.55 18 11.25 17.7 11.25 17.25V12.75H6.75C6.3 12.75 6 12.45 6 12C6 11.55 6.3 11.25 6.75 11.25H11.25V6.75C11.25 6.3 11.55 6 12 6C12.45 6 12.75 6.3 12.75 6.75V11.25H17.25C17.7 11.25 18 11.55 18 12C18 12.45 17.7 12.75 17.25 12.75H12.75V17.25C12.75 17.7 12.45 18 12 18Z" fill="#959394"/>
</svg>
