<svg width="24" height="24" viewBox="0 0 24 24" fill="none" xmlns="http://www.w3.org/2000/svg">
<path d="M16.1 23H7.9C7.6 23 7.4 22.9 7.2 22.7L1.3 16.8C1.1 16.7 1 16.4 1 16.1V7.9C1 7.6 1.1 7.4 1.3 7.2L7.2 1.3C7.3 1.1 7.6 1 7.9 1H16.2C16.5 1 16.7 1.1 16.9 1.3L22.8 7.2C22.9 7.3 23 7.6 23 7.9V16.2C23 16.5 22.9 16.7 22.7 16.9L16.8 22.8C16.7 22.9 16.4 23 16.1 23ZM8.3 21H15.8L21.1 15.7V8.3L15.7 3H8.3L3 8.3V15.8L8.3 21Z" fill="white"/>
<path fill-rule="evenodd" clip-rule="evenodd" d="M9.96968 12.2648C9.96968 11.104 10.8843 10.1734 12 10.1734C13.1158 10.1734 14.0304 11.104 14.0304 12.2648C14.0304 13.4256 13.1158 14.3562 12 14.3562C10.8843 14.3562 9.96968 13.4256 9.96968 12.2648ZM12 11.1274C11.3795 11.1274 10.8866 11.6424 10.8866 12.2648C10.8866 12.8872 11.3795 13.4022 12 13.4022C12.6205 13.4022 13.1134 12.8872 13.1134 12.2648C13.1134 11.6424 12.6205 11.1274 12 11.1274Z" fill="white"/>
<path fill-rule="evenodd" clip-rule="evenodd" d="M12 5C11.5659 5 11.214 5.36609 11.214 5.81769V7.67554C9.10397 8.05811 7.48081 9.95382 7.48081 12.2648C7.48081 13.0837 7.68458 13.8504 8.04159 14.5161L6.3931 15.4936C6.01719 15.7165 5.8884 16.2102 6.10543 16.5963C6.32246 16.9823 6.80313 17.1146 7.17904 16.8917L9.04161 15.7873C9.83673 16.497 10.873 16.9246 12 16.9246C13.127 16.9246 14.1632 16.497 14.9583 15.7872L16.821 16.8917C17.1969 17.1146 17.6775 16.9823 17.8946 16.5963C18.1116 16.2102 17.9828 15.7165 17.6069 15.4936L15.9584 14.5161C16.3154 13.8504 16.5191 13.0837 16.5191 12.2648C16.5191 9.95381 14.8959 8.05809 12.7859 7.67553V5.81769C12.7859 5.36609 12.434 5 12 5ZM12 15.4936C13.7362 15.4936 15.1437 14.0481 15.1437 12.2648C15.1437 10.4816 13.7362 9.03602 12 9.03602C10.2637 9.03602 8.8562 10.4816 8.8562 12.2648C8.8562 14.0481 10.2637 15.4936 12 15.4936Z" fill="white"/>
</svg>
