<svg width="24" height="24" viewBox="0 0 24 24" fill="none" xmlns="http://www.w3.org/2000/svg">
<path d="M6.34316 6.34315C6.76742 5.91888 7.33311 5.91888 7.75737 6.34315L15.9598 14.5456L15.9598 7.05025C15.9598 6.48457 16.3841 6.0603 16.9498 6.0603C17.5154 6.0603 17.9397 6.48457 17.9397 7.05025L17.9397 16.9497C17.9397 17.0912 17.9397 17.2326 17.869 17.3033C17.869 17.4447 17.7276 17.5861 17.6569 17.6569C17.5862 17.7276 17.4447 17.869 17.3033 17.869C17.2326 17.9397 17.0912 17.9397 16.9498 17.9397L7.05026 17.9397C6.48458 17.9397 6.06032 17.5154 6.06032 16.9497C6.06032 16.3841 6.48458 15.9598 7.05027 15.9598L14.5456 15.9598L6.34316 7.75736C5.91889 7.3331 5.91889 6.76741 6.34316 6.34315Z" fill="#231F20"/>
</svg>
