<svg width="24" height="24" viewBox="0 0 24 24" fill="none" xmlns="http://www.w3.org/2000/svg">
<path d="M5.7 10.7L11 5.4V12C11 12.5523 11.4477 13 12 13C12.5523 13 13 12.5523 13 12V5.4L18.3 10.7C18.7 11.1 19.3 11.1 19.7 10.7C20.1 10.3 20.1 9.7 19.7 9.3L12.7 2.3C12.6 2.2 12.5 2.1 12.4 2.1C12.3 2 12.1 2 12 2C11.9 2 11.7 2 11.6 2.1C11.5 2.1 11.4 2.2 11.3 2.3L4.3 9.3C3.9 9.7 3.9 10.3 4.3 10.7C4.7 11.1 5.3 11.1 5.7 10.7Z" fill="#231F20"/>
<path d="M13 15C13 14.4477 12.5523 14 12 14C11.4477 14 11 14.4477 11 15V18.6L5.7 13.3C5.3 12.9 4.7 12.9 4.3 13.3C3.9 13.7 3.9 14.3 4.3 14.7L11.3 21.7C11.4 21.8 11.5 21.9 11.6 21.9C11.7 22 11.9 22 12 22C12.1 22 12.3 22 12.4 21.9C12.5 21.9 12.6 21.8 12.7 21.7L19.7 14.7C20.1 14.3 20.1 13.7 19.7 13.3C19.3 12.9 18.7 12.9 18.3 13.3L13 18.6V15Z" fill="#231F20"/>
</svg>
