<svg width="24" height="24" viewBox="0 0 24 24" fill="none" xmlns="http://www.w3.org/2000/svg">
<path d="M17.6568 17.6569C17.2326 18.0811 16.6669 18.0811 16.2426 17.6569L8.04019 9.45442L8.04019 16.9497C8.04019 17.5154 7.61593 17.9397 7.05024 17.9397C6.48455 17.9397 6.06029 17.5154 6.06029 16.9497L6.06029 7.05025C6.06029 6.90883 6.06029 6.76741 6.131 6.6967C6.131 6.55528 6.27242 6.41386 6.34313 6.34315C6.41384 6.27243 6.55526 6.13101 6.69669 6.13101C6.7674 6.0603 6.90882 6.0603 7.05024 6.0603L16.9497 6.0603C17.5154 6.0603 17.9397 6.48457 17.9397 7.05025C17.9397 7.61594 17.5154 8.0402 16.9497 8.0402L9.4544 8.0402L17.6568 16.2426C18.0811 16.6669 18.0811 17.2326 17.6568 17.6569Z" fill="#231F20"/>
</svg>
