<svg width="24" height="24" viewBox="0 0 24 24" fill="none" xmlns="http://www.w3.org/2000/svg">
<path d="M9 19C8.8 19 8.6 18.9 8.4 18.8C7.9 18.5 7.8 17.9 8.1 17.4L11.1 13H7C6.6 13 6.3 12.8 6.1 12.5C5.9 12.2 5.9 11.8 6.1 11.5L10.1 5.5C10.4 5 11 4.9 11.5 5.2C12 5.5 12.1 6.1 11.8 6.6L8.8 11H13C13.4 11 13.7 11.2 13.9 11.5C14.1 11.8 14.1 12.2 13.9 12.5L9.9 18.5C9.6 18.8 9.3 19 9 19ZM17 19H13.8C13.2 19 12.8 18.6 12.8 18C12.8 17.4 13.2 17 13.8 17H17C17.6 17 18 16.6 18 16V8C18 7.4 17.6 7 17 7H15C14.4 7 14 6.6 14 6C14 5.4 14.4 5 15 5H17C18.7 5 20 6.3 20 8V16C20 17.7 18.7 19 17 19ZM5 19H3C1.3 19 0 17.7 0 16V8C0 6.3 1.3 5 3 5H6.2C6.8 5 7.2 5.4 7.2 6C7.2 6.6 6.8 7 6.2 7H3C2.4 7 2 7.4 2 8V16C2 16.6 2.4 17 3 17H5C5.6 17 6 17.4 6 18C6 18.6 5.6 19 5 19ZM23 14C22.4 14 22 13.6 22 13V11C22 10.4 22.4 10 23 10C23.6 10 24 10.4 24 11V13C24 13.6 23.6 14 23 14Z" fill="white"/>
</svg>
