<svg width="24" height="24" viewBox="0 0 24 24" fill="none" xmlns="http://www.w3.org/2000/svg">
<path d="M19.4624 10.0396C19.7751 7.9382 18.1324 6.80846 15.8891 6.05487L16.6047 3.20839L14.8285 2.77665L14.1312 5.54827C13.6648 5.43488 13.1855 5.32719 12.7091 5.22169L13.4089 2.43176L11.6342 2L10.9207 4.84538L7.33899 3.97966L6.87462 5.83062C6.87462 5.83062 8.19218 6.1253 8.16445 6.14362C8.8836 6.31891 9.01589 6.78319 8.99544 7.15145L7.03709 14.9494C6.95003 15.1626 6.72858 15.4823 6.22592 15.36C6.24381 15.3853 4.93511 15.0442 4.93511 15.0442L4.0626 17.0306L7.63921 17.9118L6.91688 20.7915L8.6906 21.2232L9.40632 18.3745C9.89187 18.5028 10.3612 18.6212 10.8211 18.7327L10.1082 21.5681L11.8843 21.9998L12.6066 19.1257C15.6342 19.6847 17.9084 19.4593 18.8536 16.7885C19.6161 14.6369 18.8016 13.3956 17.2064 12.5859C18.3645 12.3238 19.2344 11.5793 19.4609 10.0407L19.4624 10.0396ZM15.4309 15.5918C14.8902 17.7434 11.1774 16.5808 9.97296 16.2886L10.9313 12.474C12.135 12.7672 15.9935 13.3476 15.4315 15.5916L15.4309 15.5918ZM15.958 10.0092C15.4658 11.9673 12.3742 10.9725 11.3712 10.7283L12.2388 7.26768C13.2422 7.51213 16.4697 7.96725 15.9566 10.009" fill="white"/>
</svg>
