<svg width="25" height="24" viewBox="0 0 25 24" fill="none" xmlns="http://www.w3.org/2000/svg">
<g clip-path="url(#clip0_10994_134104)">
<path d="M11.261 5.53783C11.261 5.80304 11.3664 6.0574 11.5539 6.24494C12.1839 6.8749 13.261 6.42873 13.261 5.53783V3.3999L16.361 6.4999L14.785 8.07597C14.3984 8.46257 14.3984 9.08937 14.785 9.47597C15.1716 9.86257 15.7984 9.86257 16.185 9.47597L18.461 7.1999C18.861 6.7999 18.861 6.1999 18.461 5.7999L12.961 0.299901C12.661 -9.85563e-05 12.261 -0.100099 11.861 0.0999014C11.461 0.199901 11.261 0.599901 11.261 0.999901V5.53783Z" fill="#C2C1C1"/>
<path fill-rule="evenodd" clip-rule="evenodd" d="M12.261 23.9999C12.161 23.9999 11.961 23.9999 11.861 23.8999C11.461 23.7999 11.261 23.3999 11.261 22.9999V14.3999L7.46105 18.1999C7.06105 18.5999 6.46105 18.5999 6.06105 18.1999C5.66105 17.7999 5.66105 17.1999 6.06105 16.7999L10.8539 12.0071L0.601731 1.7549C0.211207 1.36437 0.211207 0.731208 0.601731 0.340684C0.992255 -0.0498405 1.62542 -0.0498405 2.01594 0.340684L23.9204 22.2451C24.3109 22.6356 24.3109 23.2688 23.9204 23.6593C23.5298 24.0498 22.8967 24.0498 22.5062 23.6593L17.7539 18.9071L12.961 23.6999C12.761 23.8999 12.561 23.9999 12.261 23.9999ZM13.261 14.4142L16.3539 17.5071L13.261 20.5999V14.4142Z" fill="#C2C1C1"/>
</g>
<defs>
<clipPath id="clip0_10994_134104">
<rect width="24" height="24" fill="white" transform="translate(0.260986)"/>
</clipPath>
</defs>
</svg>
