<svg width="24" height="24" viewBox="0 0 24 24" fill="none" xmlns="http://www.w3.org/2000/svg">
<g clip-path="url(#clip0_34_1325)">
<path d="M12 24C11.9 24 11.7 24 11.6 23.9C11.2 23.8 11 23.4 11 23V14.4L7.2 18.2C6.8 18.6 6.2 18.6 5.8 18.2C5.4 17.8 5.4 17.2 5.8 16.8L10.6 12L5.8 7.20002C5.4 6.80002 5.4 6.20002 5.8 5.80002C6.2 5.40002 6.8 5.40002 7.2 5.80002L11 9.60002V1.00002C11 0.600024 11.2 0.200024 11.6 0.100024C12 -0.0999765 12.4 2.3514e-05 12.7 0.300024L18.2 5.80002C18.6 6.20002 18.6 6.80002 18.2 7.20002L13.4 12L18.2 16.8C18.6 17.2 18.6 17.8 18.2 18.2L12.7 23.7C12.5 23.9 12.3 24 12 24ZM13 14.4V20.6L16.1 17.5L13 14.4ZM13 3.40002V9.60002L16.1 6.50002L13 3.40002Z" fill="white"/>
</g>
<defs>
<clipPath id="clip0_34_1325">
<rect width="24" height="24" fill="white"/>
</clipPath>
</defs>
</svg>
