<svg width="24" height="24" viewBox="0 0 24 24" fill="none" xmlns="http://www.w3.org/2000/svg">
<path d="M13 1C13 0.447715 12.5523 0 12 0C11.4477 0 11 0.447715 11 1C11 1.55228 11.4477 2 12 2C12.5523 2 13 1.55228 13 1Z" fill="#868385"/>
<path fill-rule="evenodd" clip-rule="evenodd" d="M12 6C8.68629 6 6 8.68629 6 12C6 15.3137 8.68629 18 12 18C15.3137 18 18 15.3137 18 12C18 8.68629 15.3137 6 12 6ZM8 12C8 9.79086 9.79086 8 12 8C14.2091 8 16 9.79086 16 12C16 14.2091 14.2091 16 12 16C9.79086 16 8 14.2091 8 12Z" fill="#868385"/>
<path d="M1 11C0.447715 11 0 11.4477 0 12C0 12.5523 0.447715 13 1 13C1.55228 13 2 12.5523 2 12C2 11.4477 1.55228 11 1 11Z" fill="#868385"/>
<path d="M23 11C22.4477 11 22 11.4477 22 12C22 12.5523 22.4477 13 23 13C23.5523 13 24 12.5523 24 12C24 11.4477 23.5523 11 23 11Z" fill="#868385"/>
<path d="M13 23C13 22.4477 12.5523 22 12 22C11.4477 22 11 22.4477 11 23C11 23.5523 11.4477 24 12 24C12.5523 24 13 23.5523 13 23Z" fill="#868385"/>
<path d="M4.92893 3.5147C4.53841 3.12418 3.90524 3.12418 3.51472 3.5147C3.12419 3.90522 3.12419 4.53839 3.51472 4.92891C3.90524 5.31944 4.53841 5.31944 4.92893 4.92891C5.31946 4.53839 5.31946 3.90522 4.92893 3.5147Z" fill="#868385"/>
<path d="M20.4853 4.92891C20.8758 4.53839 20.8758 3.90522 20.4853 3.5147C20.0948 3.12418 19.4616 3.12418 19.0711 3.5147C18.6805 3.90522 18.6805 4.53839 19.0711 4.92891C19.4616 5.31944 20.0948 5.31944 20.4853 4.92891Z" fill="#868385"/>
<path d="M19.0711 19.071C19.4616 18.6805 20.0948 18.6805 20.4853 19.071C20.8758 19.4616 20.8758 20.0947 20.4853 20.4853C20.0948 20.8758 19.4616 20.8758 19.0711 20.4853C18.6805 20.0947 18.6805 19.4616 19.0711 19.071Z" fill="#868385"/>
<path d="M4.92893 20.4853C5.31946 20.0947 5.31946 19.4616 4.92893 19.071C4.53841 18.6805 3.90524 18.6805 3.51472 19.071C3.12419 19.4616 3.12419 20.0947 3.51472 20.4853C3.90524 20.8758 4.53841 20.8758 4.92893 20.4853Z" fill="#868385"/>
</svg>
