<svg width="25" height="24" viewBox="0 0 25 24" fill="none" xmlns="http://www.w3.org/2000/svg">
<g clip-path="url(#clip0_10994_134683)">
<path fill-rule="evenodd" clip-rule="evenodd" d="M2.01588 0.340684C1.62536 -0.0498405 0.992194 -0.0498405 0.60167 0.340684C0.211146 0.731208 0.211146 1.36437 0.60167 1.7549L3.84677 5H3.26099C1.56099 5 0.260986 6.3 0.260986 8V19C0.260986 20.7 1.56099 22 3.26099 22H20.8468L22.5061 23.6593C22.8966 24.0498 23.5298 24.0498 23.9203 23.6593C24.3108 23.2688 24.3108 22.6356 23.9203 22.2451L2.01588 0.340684ZM18.8468 20L15.5977 16.7509C14.7183 17.5312 13.5536 18 12.261 18C9.46099 18 7.26099 15.8 7.26099 13C7.26099 11.7074 7.72981 10.5427 8.51006 9.66329L5.84677 7H3.26099C2.66099 7 2.26099 7.4 2.26099 8V19C2.26099 19.6 2.66099 20 3.26099 20H18.8468ZM9.92692 11.0801C9.50778 11.5945 9.26099 12.2593 9.26099 13C9.26099 14.7 10.561 16 12.261 16C13.0017 16 13.6665 15.7532 14.1808 15.3341L9.92692 11.0801Z" fill="#C2C1C1"/>
<path d="M22.5955 17.3199C23.24 17.8947 24.261 17.4371 24.261 16.5735V8C24.261 6.3 22.961 5 21.261 5H17.761L16.061 2.4C15.861 2.2 15.561 2 15.261 2H9.26099C8.96099 2 8.66099 2.2 8.46099 2.4C8.3857 2.51514 8.40597 2.66803 8.50865 2.75958L9.61539 3.74639C9.79858 3.90973 10.0355 4 10.2809 4H14.761L16.461 6.6C16.661 6.8 16.961 7 17.261 7H21.261C21.861 7 22.261 7.4 22.261 8V16.5735C22.261 16.8586 22.3827 17.1302 22.5955 17.3199Z" fill="#C2C1C1"/>
</g>
<defs>
<clipPath id="clip0_10994_134683">
<rect width="24" height="24" fill="white" transform="translate(0.260986)"/>
</clipPath>
</defs>
</svg>
