<svg width="24" height="24" viewBox="0 0 24 24" fill="none" xmlns="http://www.w3.org/2000/svg">
<path d="M21 22H3C1.3 22 0 20.7 0 19V8C0 6.3 1.3 5 3 5H6.5L8.2 2.4C8.4 2.2 8.7 2 9 2H15C15.3 2 15.6 2.2 15.8 2.4L17.5 5H21C22.7 5 24 6.3 24 8V19C24 20.7 22.7 22 21 22ZM3 7C2.4 7 2 7.4 2 8V19C2 19.6 2.4 20 3 20H21C21.6 20 22 19.6 22 19V8C22 7.4 21.6 7 21 7H17C16.7 7 16.4 6.8 16.2 6.6L14.5 4H9.5L7.8 6.6C7.6 6.8 7.3 7 7 7H3ZM12 18C9.2 18 7 15.8 7 13C7 10.2 9.2 8 12 8C14.8 8 17 10.2 17 13C17 15.8 14.8 18 12 18ZM12 10C10.3 10 9 11.3 9 13C9 14.7 10.3 16 12 16C13.7 16 15 14.7 15 13C15 11.3 13.7 10 12 10Z" fill="white"/>
</svg>
