<svg width="30" height="31" viewBox="0 0 30 31" fill="none" xmlns="http://www.w3.org/2000/svg">
<g filter="url(#filter0_d_238_42)">
<path d="M23 23H7C5.3 23 4 21.7 4 20V16C4 14.3 5.3 13 7 13H23C24.7 13 26 14.3 26 16V20C26 21.7 24.7 23 23 23ZM7 15C6.4 15 6 15.4 6 16V20C6 20.6 6.4 21 7 21H23C23.6 21 24 20.6 24 20V16C24 15.4 23.6 15 23 15H7ZM9 19C8.4 19 8 18.6 8 18C8 17.4 8.4 17 9 17C9.6 17 10 17.4 10 18C10 18.6 9.6 19 9 19ZM23 11H7C5.3 11 4 9.7 4 8V4C4 2.3 5.3 1 7 1H23C24.7 1 26 2.3 26 4V8C26 9.7 24.7 11 23 11ZM7 3C6.4 3 6 3.4 6 4V8C6 8.6 6.4 9 7 9H23C23.6 9 24 8.6 24 8V4C24 3.4 23.6 3 23 3H7ZM9 7C8.5 7 8 6.6 8 6C8 5.4 8.4 5 9 5C9.6 5 10 5.4 10 6C10 6.6 9.6 7 9 7Z" fill="#231F20"/>
</g>
<defs>
<filter id="filter0_d_238_42" x="-1" y="0" width="32" height="32" filterUnits="userSpaceOnUse" color-interpolation-filters="sRGB">
<feFlood flood-opacity="0" result="BackgroundImageFix"/>
<feColorMatrix in="SourceAlpha" type="matrix" values="0 0 0 0 0 0 0 0 0 0 0 0 0 0 0 0 0 0 127 0" result="hardAlpha"/>
<feOffset dy="4"/>
<feGaussianBlur stdDeviation="2"/>
<feComposite in2="hardAlpha" operator="out"/>
<feColorMatrix type="matrix" values="0 0 0 0 0 0 0 0 0 0 0 0 0 0 0 0 0 0 0.25 0"/>
<feBlend mode="normal" in2="BackgroundImageFix" result="effect1_dropShadow_238_42"/>
<feBlend mode="normal" in="SourceGraphic" in2="effect1_dropShadow_238_42" result="shape"/>
</filter>
</defs>
</svg>
