<svg width="24" height="24" viewBox="0 0 24 24" fill="none" xmlns="http://www.w3.org/2000/svg">
<path d="M7.0887 23C5.56974 23 4.05078 22.3952 2.83561 21.2864C0.405276 18.9679 0.405276 15.1375 2.73435 12.7182L5.77227 9.69416C5.97479 9.59336 6.17732 9.39175 6.37985 9.19015C7.69628 8.18213 9.31651 7.77892 10.8355 8.08133C12.4557 8.28293 13.8734 9.19015 14.7848 10.3998C15.0886 10.803 14.9873 11.5086 14.5822 11.811C14.1772 12.1134 13.4683 12.0126 13.1645 11.6094C12.557 10.7022 11.5443 10.1982 10.5317 9.99656C9.41777 9.79496 8.40513 10.0974 7.49375 10.803C7.29123 10.9038 7.18996 11.0046 7.0887 11.2062L4.05078 14.2302C2.53182 15.8431 2.53182 18.3631 4.15204 19.8751C5.77227 21.3872 8.2026 21.3872 9.82283 19.8751L11.5443 18.1615C11.9494 17.7583 12.557 17.7583 12.962 18.1615C13.3671 18.5647 13.3671 19.1695 12.962 19.5727L11.2405 21.2864C10.1266 22.496 8.60766 23 7.0887 23ZM14.0759 16.0447C12.2532 16.0447 10.4304 15.2383 9.21524 13.6254C8.91145 13.2222 9.01271 12.5166 9.41777 12.2142C9.82282 11.9118 10.5317 12.0126 10.8355 12.4158C12.1519 14.2302 14.6835 14.5326 16.5062 13.2222C16.7088 13.1214 16.81 13.0206 16.9113 12.819L19.9492 9.79496C21.4682 8.18213 21.4682 5.66208 19.848 4.15006C18.2277 2.63803 15.7974 2.63803 14.1772 4.15006L12.4557 5.86369C12.0506 6.2669 11.443 6.2669 11.038 5.86369C10.6329 5.46048 10.6329 4.85567 11.038 4.45246L12.7595 2.73883C15.0886 0.420389 18.8353 0.420389 21.1644 2.73883C23.5947 5.05727 23.5947 8.88774 21.2657 11.307L18.2277 14.331C18.0252 14.5326 17.8227 14.7343 17.5189 14.9359C16.6075 15.6415 15.3923 16.0447 14.0759 16.0447Z" fill="black"/>
</svg>
