<svg width="24" height="24" viewBox="0 0 24 24" xmlns="http://www.w3.org/2000/svg">
<path d="M13.6829 9.06954C13.5676 9.30202 13.5806 9.5776 13.7174 9.79814C13.8542 10.0187 14.0952 10.1528 14.3548 10.1528H19.6285C20.3016 10.1528 20.6034 10.9969 20.0829 11.4237L7.89009 21.422C7.28689 21.9167 6.43945 21.2279 6.80027 20.5363L9.95704 14.4859C10.0783 14.2534 10.0694 13.9744 9.93346 13.7502C9.79752 13.5259 9.55433 13.389 9.2921 13.389H4.3524C3.68211 13.389 3.37867 12.5508 3.8936 12.1217L15.389 2.54219C15.9845 2.04598 16.8343 2.71687 16.4899 3.41124L13.6829 9.06954Z" stroke="white" stroke-width="1.5" stroke-linecap="round" stroke-linejoin="round"/>
</svg>
