<svg width="24" height="24" viewBox="0 0 24 24" fill="none" xmlns="http://www.w3.org/2000/svg">
<path d="M21.3174 15.556C21.7225 15.4345 22 15.0616 22 14.6386C22 13.997 21.3815 13.5368 20.7669 13.7211L12.0885 16.3247C12.0308 16.342 11.9692 16.342 11.9115 16.3247L3.23306 13.7211C2.6185 13.5368 2 13.997 2 14.6386C2 15.0616 2.27745 15.4345 2.6826 15.556L11.8413 18.3036C11.9448 18.3347 12.0552 18.3347 12.1587 18.3036L21.3174 15.556Z" fill="white"/>
<path d="M21.3174 7.556C21.7225 7.43446 22 7.06156 22 6.63857C22 5.99696 21.3815 5.53678 20.7669 5.72114L12.0885 8.32468C12.0308 8.342 11.9692 8.342 11.9115 8.32468L3.23306 5.72114C2.6185 5.53678 2 5.99696 2 6.63857C2 7.06156 2.27745 7.43446 2.6826 7.55601L11.8413 10.3036C11.9448 10.3347 12.0552 10.3347 12.1587 10.3036L21.3174 7.556Z" fill="white"/>
</svg>
