<svg width="24" height="24" viewBox="0 0 24 24" fill="none" xmlns="http://www.w3.org/2000/svg">
<path d="M6.34313 17.6569C5.91887 17.2326 5.91887 16.6669 6.34313 16.2427L10.5858 12L6.34313 7.75738C5.91887 7.33311 5.91887 6.76743 6.34313 6.34316C6.7674 5.9189 7.33308 5.9189 7.75734 6.34316L12 10.5858L16.2426 6.34316C16.6669 5.9189 17.2326 5.9189 17.6568 6.34316C18.0811 6.76743 18.0811 7.33311 17.6568 7.75738L13.4142 12L17.6568 16.2427C18.0811 16.6669 18.0811 17.2326 17.6568 17.6569C17.2326 18.0811 16.6669 18.0811 16.2426 17.6569L12 13.4142L7.75734 17.6569C7.33308 18.0811 6.7674 18.0811 6.34313 17.6569Z" fill="white"/>
</svg>
