<svg width="40" height="40" viewBox="0 0 40 40" fill="none" xmlns="http://www.w3.org/2000/svg">
<path fill-rule="evenodd" clip-rule="evenodd" d="M23.729 8.41264C23.0752 6.43905 20.9379 5.55095 18.87 5.26062C16.6423 4.94786 13.8733 5.21079 11.0584 6.05825C8.24341 6.90572 5.78949 8.21519 4.10473 9.70582C2.53608 11.0937 1.24124 13.0216 1.79845 15.0347L3.37144 20.8187L3.37667 20.8361C3.67706 21.8339 4.4049 22.5546 5.22633 23.0482C6.04842 23.5422 7.05639 23.8687 8.13144 24.0611C9.77804 24.3558 11.7221 24.3606 13.716 24.057C13.8115 25.4414 14.3772 26.8207 15.2831 28.0811C16.6437 29.9741 18.8287 31.6998 21.6708 33.0296C24.5193 34.3625 27.4455 34.985 29.909 34.8569C32.2952 34.7328 34.6246 33.8593 35.6179 31.7745L37.9052 27.3992C37.9354 27.3416 37.9609 27.2828 37.9821 27.2232C38.8614 25.1382 37.9832 22.8225 36.5325 20.9392C34.9974 18.9463 32.5715 17.0672 29.6437 15.6972C28.1659 15.0057 26.6769 14.4984 25.2458 14.1764L23.758 8.51084L23.7599 8.51027L23.7459 8.46487L23.732 8.41186L23.729 8.41264ZM5.89754 11.7321C4.47168 12.9937 4.2857 13.9144 4.41233 14.335L4.57644 14.9414C5.08444 15.251 5.78798 15.5003 6.70616 15.6455C8.5298 15.9338 10.9339 15.7516 13.4665 14.9891C15.9991 14.2267 18.1042 13.0513 19.4656 11.8041C20.563 10.7987 21.0543 9.87439 21.1042 9.13827C20.876 8.7236 20.1649 8.17451 18.4938 7.9399C16.7344 7.69288 14.366 7.88796 11.8383 8.64895C9.31059 9.40993 7.22814 10.5548 5.89754 11.7321ZM21.7825 11.6403C21.4409 12.1202 21.0245 12.5775 20.5622 13.0011C18.9844 14.4466 16.6484 15.7265 13.9345 16.5435C11.2206 17.3606 8.56621 17.5831 6.45264 17.2489C5.99361 17.1763 5.54535 17.0743 5.1202 16.9402L5.97112 20.0681C6.02102 20.2206 6.17575 20.4622 6.61985 20.7291C7.07508 21.0026 7.74295 21.2431 8.60802 21.3979C10.0852 21.6622 11.9637 21.6459 13.918 21.2787L13.9169 21.2743C14.2543 21.1907 14.5948 21.0975 14.9372 20.9944C17.5062 20.221 19.7514 18.9355 21.2469 17.578C21.9927 16.901 22.5251 16.2306 22.829 15.6253L21.7825 11.6403ZM16.526 22.7921C16.573 22.6476 16.5959 22.4942 16.5914 22.3375C18.0666 24.3177 20.4851 26.2157 23.4326 27.5949C26.3095 28.941 29.2305 29.5785 31.6483 29.4878C32.4547 29.4576 33.2341 29.3434 33.9458 29.1331L33.1937 30.5717L33.1811 30.5986C32.8259 31.3578 31.773 32.0508 29.7685 32.155C27.8301 32.2558 25.3454 31.762 22.8174 30.5791C20.283 29.3932 18.5072 27.9312 17.4801 26.5021C16.4617 25.0851 16.2352 23.7988 16.526 22.7921ZM34.3891 22.5902C35.6217 24.1904 35.7972 25.4249 35.4888 26.1718C34.9653 27.1207 33.6554 27.7881 31.5875 27.8656C29.4772 27.9448 26.8129 27.3843 24.1206 26.1246C21.4426 24.8715 19.3247 23.2024 18.035 21.5533C19.7227 20.7764 21.2034 19.8099 22.338 18.7799C23.0642 18.1207 23.6687 17.4172 24.0908 16.7001C25.4823 16.9612 26.9853 17.4404 28.497 18.1478C31.1157 19.3731 33.1679 21.0048 34.3891 22.5902Z" fill="white"/>
</svg>
