<svg width="24" height="24" viewBox="0 0 24 24" fill="none" xmlns="http://www.w3.org/2000/svg">
<g clip-path="url(#clip0_34_1431)">
<path d="M3 3L16 3C16.3 3 16.6 3.1 16.8 3.3L23.8 11.3C24.1 11.7 24.1 12.2 23.8 12.6L16.8 20.6C16.6 20.9 16.3 21 16 21L3 21C1.3 21 1.7937e-06 19.7 1.64508e-06 18L5.96007e-07 6C4.47388e-07 4.3 1.3 3 3 3ZM15.5 5L3 5C2.4 5 2 5.4 2 6L2 18C2 18.6 2.4 19 3 19L15.5 19L21.6 12L15.5 5ZM6 8C6.3 8 6.5 8.1 6.7 8.3L9 10.6L11.3 8.3C11.7 7.9 12.3 7.9 12.7 8.3C13.1 8.7 13.1 9.3 12.7 9.7L10.4 12L12.7 14.3C13.1 14.7 13.1 15.3 12.7 15.7C12.3 16.1 11.7 16.1 11.3 15.7L9 13.4L6.7 15.7C6.3 16.1 5.7 16.1 5.3 15.7C4.9 15.3 4.9 14.7 5.3 14.3L7.6 12L5.3 9.7C4.9 9.3 4.9 8.7 5.3 8.3C5.5 8.1 5.7 8 6 8Z" fill="#231F20"/>
</g>
<defs>
<clipPath id="clip0_34_1431">
<rect width="24" height="24" fill="white" transform="translate(24 24) rotate(180)"/>
</clipPath>
</defs>
</svg>
