<svg width="96" height="96" viewBox="0 0 96 96" fill="none" xmlns="http://www.w3.org/2000/svg">
<path fill-rule="evenodd" clip-rule="evenodd" d="M48.0702 0.520157C51.5096 0.548845 55.8101 0.587486 59.6339 0.831358C59.9666 0.852574 60.3022 0.869587 60.6414 0.886786C63.3746 1.02535 66.3465 1.17601 69.9465 3.63367C72.2527 5.20809 75.4799 8.11907 75.4799 13.1399V82.86C75.4799 87.8809 72.2527 90.7918 69.9465 92.3663C66.3465 94.8239 63.3746 94.9746 60.6414 95.1131C60.3022 95.1303 59.9666 95.1474 59.6339 95.1686C55.8101 95.4124 51.5096 95.4511 48.0702 95.4798L48.0245 95.4802L47.9344 95.48C44.4954 95.4513 40.19 95.4126 36.366 95.1687C36.0334 95.1475 35.6978 95.1305 35.3585 95.1133C32.6253 94.9747 29.6535 94.8241 26.0535 92.3664C23.7472 90.792 20.52 87.881 20.52 82.8602V13.1398C20.52 8.11894 23.7472 5.20796 26.0535 3.63354C29.6535 1.17588 32.6253 1.02522 35.3585 0.886656C35.6978 0.869457 36.0334 0.852444 36.366 0.831228C40.19 0.587349 44.4954 0.548842 47.9344 0.520157L47.9801 0.519775L48.0702 0.520157ZM48.0245 5.99997C51.4911 6.02888 55.6386 6.06768 59.2851 6.30025C59.6672 6.32462 60.0266 6.34479 60.3673 6.36391C63.0528 6.51466 64.5722 6.59995 66.8567 8.15958C68.6206 9.36373 70 10.8393 70 13.1399V82.86C70 85.1607 68.6206 86.6362 66.8567 87.8404C64.5722 89.4 63.0529 89.4853 60.3673 89.636C60.0267 89.6551 59.6673 89.6753 59.2851 89.6997C55.6386 89.9323 51.4911 89.9711 48.0245 90H47.9801C44.5135 89.9711 40.3614 89.9324 36.7148 89.6998C36.3327 89.6754 35.9733 89.6553 35.6327 89.6362C32.9471 89.4854 31.4278 89.4001 29.1432 87.8405C27.3794 86.6363 26 85.1608 26 82.8602V13.1398C26 10.8391 27.3794 9.3636 29.1432 8.15945C31.4278 6.59981 32.9471 6.51453 35.6327 6.36378C35.9733 6.34466 36.3327 6.32449 36.7148 6.30012C40.3614 6.06755 44.5135 6.02888 47.9801 5.99997H48.0245Z" fill="url(#paint0_linear_23393_53045)"/>
<path d="M57.173 81.2788H38.827C38.3023 81.2788 37.99 81.4554 38.0002 81.8546C38.0131 82.3537 38.9118 83.4669 40.2213 83.6396C41.269 83.7778 43.8146 83.7503 48.0113 83.7503C52.208 83.7503 54.731 83.7778 55.7787 83.6396C57.0882 83.4669 57.9869 82.3537 57.9998 81.8546C58.01 81.4554 57.6977 81.2788 57.173 81.2788Z" fill="#231F20"/>
<path opacity="0.1" fill-rule="evenodd" clip-rule="evenodd" d="M47.4219 70.5529C47.7115 70.6366 47.889 70.6675 47.9932 70.6675H48.0068C48.111 70.6675 48.2885 70.6366 48.5781 70.5529C51.9359 69.5825 58.7288 67.5982 60.0875 67.0661C61.908 66.3532 62 65.416 62 63.6868C61.9823 50.708 61.9947 27.4084 61.9988 19.6456L62 17.1271C62 16.0594 61.1628 14.6675 59.1219 14.6675H36.8781C34.8372 14.6675 34 16.0594 34 17.1271L34.0012 19.6456C34.0053 27.4084 34.0177 50.708 34 63.6868C34 65.416 34.092 66.3532 35.9125 67.0661C37.2712 67.5982 44.0641 69.5825 47.4219 70.5529ZM37.2803 17.9475H58.7197L58.7188 19.6381C58.7147 27.3927 58.7023 50.7035 58.72 63.6885C58.72 63.8381 58.7192 63.9649 58.7171 64.0769C57.2241 64.6129 51.3955 66.3228 48 67.3057C44.6044 66.3228 38.7759 64.613 37.2829 64.0769C37.2808 63.9651 37.28 63.8383 37.28 63.689C37.2977 50.7042 37.2853 27.3929 37.2812 19.6381L37.2803 17.9475Z" fill="url(#paint1_linear_23393_53045)"/>
<defs>
<linearGradient id="paint0_linear_23393_53045" x1="48" y1="89.1632" x2="48" y2="9.98654" gradientUnits="userSpaceOnUse">
<stop stop-color="#231F20"/>
<stop offset="1" stop-color="#747374"/>
</linearGradient>
<linearGradient id="paint1_linear_23393_53045" x1="48" y1="66.9423" x2="48" y2="20.2502" gradientUnits="userSpaceOnUse">
<stop stop-color="#231F20"/>
<stop offset="1" stop-color="#747374"/>
</linearGradient>
</defs>
</svg>
