<svg width="96" height="96" viewBox="0 0 96 96" fill="none" xmlns="http://www.w3.org/2000/svg">
<g clip-path="url(#clip0_23368_56381)">
<path fill-rule="evenodd" clip-rule="evenodd" d="M48.0702 0.520157C51.5096 0.548845 55.8101 0.587486 59.6339 0.831358C59.9666 0.852574 60.3022 0.869587 60.6414 0.886786C63.3746 1.02535 66.3465 1.17601 69.9465 3.63367C72.2527 5.20809 75.4799 8.11907 75.4799 13.1399V82.86C75.4799 87.8809 72.2527 90.7918 69.9465 92.3663C66.3465 94.8239 63.3746 94.9746 60.6414 95.1131C60.3022 95.1303 59.9666 95.1474 59.6339 95.1686C55.8101 95.4124 51.5096 95.4511 48.0702 95.4798L48.0245 95.4802L47.9344 95.48C44.4954 95.4513 40.19 95.4126 36.366 95.1687C36.0334 95.1475 35.6978 95.1305 35.3585 95.1133C32.6253 94.9747 29.6535 94.8241 26.0535 92.3664C23.7472 90.792 20.52 87.881 20.52 82.8602V13.1398C20.52 8.11894 23.7472 5.20796 26.0535 3.63354C29.6535 1.17588 32.6253 1.02522 35.3585 0.886656C35.6978 0.869457 36.0334 0.852444 36.366 0.831228C40.19 0.587349 44.4954 0.548842 47.9344 0.520157L47.9801 0.519775L48.0702 0.520157ZM48.0245 5.99997C51.4911 6.02888 55.6386 6.06768 59.2851 6.30025C59.6672 6.32462 60.0266 6.34479 60.3673 6.36391C63.0528 6.51466 64.5722 6.59995 66.8567 8.15958C68.6206 9.36373 70 10.8393 70 13.1399V82.86C70 85.1607 68.6206 86.6362 66.8567 87.8404C64.5722 89.4 63.0529 89.4853 60.3673 89.636C60.0267 89.6551 59.6673 89.6753 59.2851 89.6997C55.6386 89.9323 51.4911 89.9711 48.0245 90H47.9801C44.5135 89.9711 40.3614 89.9324 36.7148 89.6998C36.3327 89.6754 35.9733 89.6553 35.6327 89.6362C32.9471 89.4854 31.4278 89.4001 29.1432 87.8405C27.3794 86.6363 26 85.1608 26 82.8602V13.1398C26 10.8391 27.3794 9.3636 29.1432 8.15945C31.4278 6.59981 32.9471 6.51453 35.6327 6.36378C35.9733 6.34466 36.3327 6.32449 36.7148 6.30012C40.3614 6.06755 44.5135 6.02888 47.9801 5.99997H48.0245Z" fill="url(#paint0_linear_23368_56381)"/>
<path opacity="0.1" d="M57.173 81.2787H38.827C38.3023 81.2787 37.99 81.4553 38.0002 81.8545C38.0131 82.3535 38.9118 83.4668 40.2213 83.6395C41.269 83.7777 43.8146 83.7502 48.0113 83.7502C52.208 83.7502 54.731 83.7777 55.7787 83.6395C57.0882 83.4668 57.9869 82.3535 57.9998 81.8545C58.01 81.4553 57.6977 81.2787 57.173 81.2787Z" fill="black"/>
<path fill-rule="evenodd" clip-rule="evenodd" d="M47.4219 70.5528C47.7115 70.6365 47.889 70.6674 47.9932 70.6674H48.0068C48.111 70.6674 48.2885 70.6364 48.5781 70.5528C51.9359 69.5824 58.7288 67.5981 60.0875 67.066C61.908 66.3531 62 65.4158 62 63.6867C61.9823 50.7079 61.9947 27.4083 61.9988 19.6455L62 17.1269C62 16.0592 61.1628 14.6674 59.1219 14.6674H36.8781C34.8372 14.6674 34 16.0592 34 17.1269L34.0012 19.6455C34.0053 27.4083 34.0177 50.7079 34 63.6867C34 65.4159 34.092 66.3531 35.9125 67.066C37.2712 67.5981 44.0641 69.5824 47.4219 70.5528ZM37.2803 17.9474H58.7197L58.7188 19.638C58.7147 27.3926 58.7023 50.7034 58.72 63.6883C58.72 63.8379 58.7192 63.9648 58.7171 64.0768C57.2241 64.6128 51.3955 66.3227 48 67.3055C44.6044 66.3227 38.7759 64.6128 37.2829 64.0768C37.2808 63.9649 37.28 63.8382 37.28 63.6889C37.2977 50.704 37.2853 27.3928 37.2812 19.638L37.2803 17.9474Z" fill="url(#paint1_linear_23368_56381)"/>
<!-- NFC Icon -->
<g transform="translate(38, 18)">
<g clip-path="url(#clip1_nfc)">
<path d="M10.0002 5.41649C12.7488 5.4165 14.6824 6.19948 15.9175 6.95954C16.5379 7.34127 16.9862 7.71998 17.2746 7.99681C17.4187 8.13516 17.5225 8.24774 17.5875 8.32202C17.62 8.35914 17.6427 8.38663 17.6559 8.40292L17.6684 8.41873L17.6692 8.41969C17.946 8.78511 18.4663 8.8585 18.8334 8.58316C19.2016 8.30702 19.2763 7.78468 19.0001 7.41649L18.9995 7.41572L18.9989 7.41488L18.9975 7.41296L18.9938 7.40821L18.9837 7.39513C18.9757 7.38484 18.9652 7.37146 18.952 7.35519C18.9257 7.32265 18.8891 7.27853 18.8418 7.22451C18.7473 7.11649 18.6102 6.96865 18.4288 6.7945C18.0661 6.44634 17.5249 5.99171 16.791 5.54011C15.3178 4.63352 13.0848 3.74984 10.0002 3.74982C6.91552 3.74984 4.68251 4.63352 3.2093 5.54011C2.47545 5.99171 1.93421 6.44633 1.57154 6.7945C1.39013 6.96865 1.25306 7.11649 1.15855 7.22451C1.11127 7.27853 1.0746 7.32265 1.0483 7.35519C1.03515 7.37146 1.02458 7.38484 1.01658 7.39513L1.00649 7.40821L1.00287 7.41296L1.00142 7.41488L1.00079 7.41572L1.00021 7.41649C0.72407 7.78468 0.798688 8.30701 1.16688 8.58316C1.534 8.8585 2.05438 8.78511 2.33114 8.41968L2.33188 8.41873L2.34446 8.40292C2.35763 8.38663 2.38036 8.35914 2.41284 8.32201C2.47783 8.24774 2.58165 8.13516 2.72576 7.99681C3.01413 7.71998 3.46247 7.34127 4.08279 6.95954C5.3179 6.19948 7.25158 5.4165 10.0002 5.41649Z" fill="url(#paint2_linear_nfc)"/>
<path d="M14.5955 8.45191C13.48 7.78261 11.8717 7.08317 10.0002 7.08316C8.12864 7.08317 6.52029 7.78261 5.4048 8.45191C4.84282 8.7891 4.39311 9.12626 4.08189 9.3809C3.92595 9.50848 3.80388 9.61609 3.71892 9.69366C3.67641 9.73247 3.64313 9.76383 3.61946 9.78649C3.60762 9.79782 3.59818 9.80698 3.5912 9.81383L3.58256 9.82233L3.57962 9.82524L3.57851 9.82635L3.61254 9.79508L3.57762 9.82723C3.25219 10.1527 3.25219 10.6803 3.57762 11.0057C3.90264 11.3308 4.42934 11.3312 4.75488 11.007L4.75563 11.0062L4.7571 11.0048L4.77208 10.9903C4.78666 10.9764 4.81033 10.954 4.8427 10.9245C4.90748 10.8653 5.00676 10.7776 5.13728 10.6708C5.39898 10.4567 5.7826 10.1689 6.26229 9.88107C7.2301 9.30038 8.53845 8.74984 10.0002 8.74982C11.4619 8.74984 12.7702 9.30038 13.738 9.88107C14.2177 10.1689 14.6013 10.4567 14.863 10.6708C14.9936 10.7776 15.0928 10.8653 15.1576 10.9245C15.19 10.954 15.2137 10.9764 15.2282 10.9903L15.2432 11.0048L15.2447 11.0062L15.2454 11.007C15.571 11.3312 16.0977 11.3308 16.4227 11.0057C16.7481 10.6803 16.7481 10.1527 16.4227 9.82723L16.3878 9.79508L16.4218 9.82635L16.4207 9.82524L16.4178 9.82233L16.4091 9.81383C16.4021 9.80699 16.3927 9.79782 16.3809 9.78649C16.3572 9.76383 16.3239 9.73247 16.2814 9.69366C16.1964 9.61609 16.0744 9.50848 15.9184 9.3809C15.6072 9.12626 15.1575 8.7891 14.5955 8.45191Z" fill="url(#paint3_linear_nfc)"/>
<path d="M12.9382 11.4092C12.2732 10.9256 11.2714 10.4165 10.0002 10.4165C8.72894 10.4165 7.72709 10.9256 7.06215 11.4092C6.72807 11.6522 6.46981 11.8951 6.29308 12.0795C6.20438 12.1721 6.13522 12.2509 6.08635 12.3091C6.06188 12.3383 6.04242 12.3624 6.02805 12.3805L6.0103 12.4032L6.0043 12.4111L6.00201 12.4141L6.00105 12.4154C6.00105 12.4154 6.14031 12.2462 6.00021 12.4165C5.72407 12.7847 5.79869 13.307 6.16688 13.5832C6.53391 13.8584 7.05411 13.7851 7.33093 13.42L7.3348 13.415C7.33976 13.4088 7.34918 13.397 7.36297 13.3806C7.3906 13.3477 7.43537 13.2963 7.4964 13.2327C7.61915 13.1046 7.8036 12.9308 8.04244 12.7571C8.52331 12.4074 9.18816 12.0832 10.0002 12.0832C10.8122 12.0832 11.477 12.4074 11.9579 12.7571C12.1967 12.9308 12.3812 13.1046 12.5039 13.2327C12.565 13.2963 12.6097 13.3477 12.6374 13.3806C12.6511 13.397 12.6606 13.4088 12.6655 13.415L12.6694 13.42C12.9462 13.7851 13.4664 13.8584 13.8334 13.5832C14.2016 13.307 14.2763 12.7847 14.0001 12.4165C13.86 12.2462 13.9993 12.4154 13.9993 12.4154L13.9983 12.4141L13.996 12.4111L13.99 12.4032L13.9723 12.3805C13.9579 12.3624 13.9384 12.3383 13.914 12.3092C13.8651 12.2509 13.7959 12.1721 13.7072 12.0795C13.5305 11.8951 13.2723 11.6522 12.9382 11.4092Z" fill="url(#paint4_linear_nfc)"/>
<path d="M10.0002 13.7498C10.8276 13.7498 11.4252 14.0311 11.8228 14.3491C12.0162 14.5039 12.155 14.6613 12.2488 14.7863C12.2958 14.849 12.3321 14.9043 12.3587 14.9482C12.3721 14.9702 12.3831 14.9895 12.392 15.0055C12.3964 15.0136 12.4003 15.0208 12.4036 15.0272L12.4082 15.0362L12.4103 15.0401L12.4112 15.042L12.4117 15.0429C12.4117 15.0429 12.3312 14.9042 12.4121 15.0438C12.6179 15.4555 12.4511 15.956 12.0394 16.1618C11.6351 16.364 11.1449 16.2066 10.9326 15.8107C10.93 15.8067 10.9244 15.7981 10.9155 15.7863C10.892 15.755 10.8485 15.7041 10.7816 15.6505C10.6583 15.5519 10.4227 15.4165 10.0002 15.4165C9.57767 15.4165 9.34203 15.5519 9.21873 15.6505C9.15179 15.7041 9.10831 15.755 9.08487 15.7863C9.07597 15.7981 9.07033 15.8067 9.06774 15.8107C8.85545 16.2066 8.36527 16.364 7.96089 16.1618C7.54924 15.956 7.38238 15.4555 7.58821 15.0438C7.66915 14.9042 7.58865 15.0429 7.58865 15.0429L7.58911 15.042L7.59005 15.0401L7.59208 15.0362L7.59672 15.0272C7.60007 15.0208 7.60395 15.0136 7.60837 15.0055C7.6172 14.9895 7.62823 14.9702 7.64159 14.9482C7.66826 14.9043 7.70452 14.849 7.75153 14.7863C7.84528 14.6613 7.98409 14.5039 8.17757 14.3491C8.57508 14.0311 9.1728 13.7498 10.0002 13.7498Z" fill="url(#paint5_linear_nfc)"/>
</g>
</g>
</g>
<defs>
<linearGradient id="paint0_linear_23368_56381" x1="48" y1="89.1632" x2="48" y2="9.98654" gradientUnits="userSpaceOnUse">
<stop stop-color="#231F20"/>
<stop offset="1" stop-color="#747374"/>
</linearGradient>
<linearGradient id="paint1_linear_23368_56381" x1="48" y1="66.9421" x2="48" y2="20.2501" gradientUnits="userSpaceOnUse">
<stop stop-color="#231F20"/>
<stop offset="1" stop-color="#747374"/>
</linearGradient>
<linearGradient id="paint2_linear_nfc" x1="10.3042" y1="15.0304" x2="10.3042" y2="5.5775" gradientUnits="userSpaceOnUse">
<stop stop-color="#231F20"/>
<stop offset="1" stop-color="#747374"/>
</linearGradient>
<linearGradient id="paint3_linear_nfc" x1="10.3042" y1="15.0304" x2="10.3042" y2="5.5775" gradientUnits="userSpaceOnUse">
<stop stop-color="#231F20"/>
<stop offset="1" stop-color="#747374"/>
</linearGradient>
<linearGradient id="paint4_linear_nfc" x1="10.3042" y1="15.0304" x2="10.3042" y2="5.5775" gradientUnits="userSpaceOnUse">
<stop stop-color="#231F20"/>
<stop offset="1" stop-color="#747374"/>
</linearGradient>
<linearGradient id="paint5_linear_nfc" x1="10.3042" y1="15.0304" x2="10.3042" y2="5.5775" gradientUnits="userSpaceOnUse">
<stop stop-color="#231F20"/>
<stop offset="1" stop-color="#747374"/>
</linearGradient>
<clipPath id="clip0_23368_56381">
<rect width="96" height="96" fill="white"/>
</clipPath>
<clipPath id="clip1_nfc">
<rect width="20" height="20" fill="white" transform="translate(0 20) rotate(-90)"/>
</clipPath>
</defs>
</svg>
