<svg width="24" height="24" viewBox="0 0 24 24" fill="none" xmlns="http://www.w3.org/2000/svg">
<path d="M21.3174 15.5491C21.7225 15.4276 22 15.0547 22 14.6317C22 13.9901 21.3815 13.5299 20.7669 13.7142L12.0885 16.3178C12.0308 16.3351 11.9692 16.3351 11.9115 16.3178L3.23305 13.7142C2.6185 13.5299 2 13.9901 2 14.6317C2 15.0547 2.27745 15.4276 2.6826 15.5491L11.8413 18.2967C11.9448 18.3278 12.0552 18.3278 12.1587 18.2967L21.3174 15.5491Z" fill="white"/>
<path d="M21.3174 7.54911C21.7225 7.42757 22 7.05466 22 6.63168C22 5.99007 21.3815 5.52988 20.7669 5.71425L12.0885 8.31778C12.0308 8.3351 11.9692 8.3351 11.9115 8.31778L3.23305 5.71425C2.6185 5.52988 2 5.99007 2 6.63168C2 7.05466 2.27745 7.42757 2.6826 7.54911L11.8413 10.2967C11.9448 10.3278 12.0552 10.3278 12.1587 10.2967L21.3174 7.54911Z" fill="white"/>
</svg>
