<svg width="24" height="24" viewBox="0 0 24 24" fill="none" xmlns="http://www.w3.org/2000/svg">
<path d="M3.00002 21C2.70002 21 2.50002 20.9 2.30002 20.7C2.00002 20.5 1.90002 20.1 2.00002 19.8L3.00002 15.8C3.00002 15.6 3.10002 15.5 3.30002 15.3L15.8 2.80002C17 1.60002 19 1.60002 20.2 2.80002C21.4 4.00002 21.4 6.00002 20.2 7.20002L7.70002 19.7C7.60002 19.8 7.40002 19.9 7.20002 20L3.20002 21H3.00002ZM4.90002 16.5L4.40002 18.6L6.50002 18.1L18.8 5.80002C19.2 5.40002 19.2 4.70002 18.8 4.20002C18.4 3.80002 17.6 3.80002 17.2 4.20002L4.90002 16.5ZM21 21H12C11.4 21 11 20.6 11 20C11 19.4 11.4 19 12 19H21C21.6 19 22 19.4 22 20C22 20.6 21.6 21 21 21Z" fill="white"/>
</svg>
