<svg width="24" height="24" viewBox="0 0 24 24" fill="none" xmlns="http://www.w3.org/2000/svg">
<path d="M16.9367 6.76787C17.0425 6.87467 17.1705 6.9557 17.3116 7.00524C17.4527 7.05478 17.6036 7.07163 17.7532 7.05478C17.9028 7.07163 18.0537 7.05478 18.1948 7.00524C18.3359 6.9557 18.4639 6.87467 18.5697 6.76787L23.36 1.97754C23.5832 1.75436 23.7085 1.44588 23.7085 1.18521C23.7085 0.924543 23.5832 0.616062 23.36 0.392887C23.1368 0.169712 22.8283 0.0444431 22.5677 0.0444431C22.307 0.0444431 21.9985 0.169712 21.7753 0.392887L17.7532 4.41499L16.3132 2.97521C16.2071 2.8691 16.079 2.78805 15.9379 2.73851C15.7968 2.68897 15.6459 2.67112 15.4963 2.67112C15.2356 2.67112 14.9271 2.79639 14.7039 3.01957C14.5978 3.12568 14.5168 3.25375 14.4672 3.39485C14.4177 3.53595 14.4008 3.68685 14.4008 3.83645C14.4008 4.09712 14.5261 4.4056 14.7493 4.62878L16.9367 6.76787ZM22.5677 5.92621C22.307 5.92621 22.0017 6.05148 21.7808 6.27236C21.5599 6.49324 21.4346 6.79854 21.4346 7.05921V17.7775C21.4346 18.0382 21.3093 18.3435 21.0884 18.5644C20.8675 18.7853 20.5622 18.9105 20.3015 18.9105H3.55556C3.29489 18.9105 2.98959 18.7853 2.76871 18.5644C2.54783 18.3435 2.42256 18.0382 2.42256 17.7775V6.41199L9.33867 13.3707C9.96667 13.9931 10.8246 14.3564 11.7289 14.357C12.6524 14.3523 13.5202 13.9757 14.1333 13.3573L16.4382 11.0524C16.6614 10.8293 16.7867 10.5208 16.7867 10.2601C16.7867 9.99945 16.6614 9.69097 16.4382 9.46779C16.2151 9.24462 15.9066 9.11935 15.6459 9.11935C15.3852 9.11935 15.0768 9.24462 14.8536 9.46779L12.6409 11.6805C12.4213 11.8971 12.1298 12.0164 11.8267 12.0164C11.5236 12.0164 11.2321 11.8971 11.0124 11.6805L3.59733 4.74099H10.6667C10.9273 4.74099 11.2326 4.61572 11.4535 4.39484C11.6744 4.17396 11.7996 3.86866 11.7996 3.60799C11.7996 3.34732 11.6744 3.04202 11.4535 2.82114C11.2326 2.60026 10.9273 2.47499 10.6667 2.47499H3.55556C2.61256 2.47499 1.70822 2.83728 1.04178 3.50372C0.375333 4.17017 0 5.07451 0 6.01754V17.7775C0 18.7205 0.375333 19.6249 1.04178 20.2913C1.70822 20.9578 2.61256 21.3331 3.55556 21.3331H20.3015C21.2445 21.3331 22.1488 20.9578 22.8153 20.2913C23.4817 19.6249 23.857 18.7205 23.857 17.7775V7.05921C23.857 6.79854 23.7318 6.49324 23.5109 6.27236C23.29 6.05148 22.9847 5.92621 22.724 5.92621H22.5677Z" fill="#454444"/>
</svg>
