<svg width="24" height="24" viewBox="0 0 24 24" fill="none" xmlns="http://www.w3.org/2000/svg">
<path d="M12 22.975C11.8 22.975 11.7 22.975 11.6 22.875C11.2 22.675 3 18.475 3 11.975L3 4.975C3 4.575 3.3 4.175 3.6 4.075L11.6 1.075C11.8 0.974998 12.1 0.974998 12.3 1.075L20.3 4.075C20.7 4.175 21 4.575 21 4.975L21 11.975C21 18.475 12.8 22.675 12.4 22.875C12.3 22.975 12.2 22.975 12 22.975ZM5 5.675L5 11.975C5 16.475 10.4 19.875 12 20.875C13.6 19.975 19 16.575 19 11.975L19 5.675L12 3.075L5 5.675Z" fill="#E1E0E1"/>
<path d="M15 16C14.7 16 14.5 15.9 14.3 15.7L12 13.4L9.7 15.7C9.3 16.1 8.7 16.1 8.3 15.7C7.9 15.3 7.9 14.7 8.3 14.3L10.6 12L8.3 9.7C7.9 9.3 7.9 8.7 8.3 8.3C8.7 7.9 9.3 7.9 9.7 8.3L12 10.6L14.3 8.3C14.7 7.9 15.3 7.9 15.7 8.3C16.1 8.7 16.1 9.3 15.7 9.7L13.4 12L15.7 14.3C16.1 14.7 16.1 15.3 15.7 15.7C15.5 15.9 15.3 16 15 16Z" fill="#E1E0E1"/>
</svg>
