<svg width="25" height="24" viewBox="0 0 25 24" fill="none" xmlns="http://www.w3.org/2000/svg">
<path d="M19.5 22L5.5 22C3.8 22 2.5 20.7 2.5 19L2.5 15C2.5 14.4 2.9 14 3.5 14C4.1 14 4.5 14.4 4.5 15L4.5 19C4.5 19.6 4.9 20 5.5 20L19.5 20C20.1 20 20.5 19.6 20.5 19L20.5 15C20.5 14.4 20.9 14 21.5 14C22.1 14 22.5 14.4 22.5 15L22.5 19C22.5 20.7 21.2 22 19.5 22Z" fill="white"/>
<path d="M18.5 12.4444L18.5 5.03704C18.5 4.74929 18.4096 4.50221 18.2037 4.2963C17.9978 4.09039 17.7507 4 17.463 4L10.0556 4C9.46296 4 9.01852 4.44444 9.01852 5.03704C9.01852 5.62963 9.46296 6.07408 10.0556 6.07408L14.9444 6.07408L7.83333 13.1852C7.38889 13.6296 7.38889 14.2222 7.83333 14.6667C8.27778 15.1111 8.87037 15.1111 9.31481 14.6667L16.4259 7.55556L16.4259 12.4444C16.4259 13.037 16.8704 13.4815 17.463 13.4815C18.0556 13.4815 18.5 13.037 18.5 12.4444Z" fill="white"/>
</svg>
