<svg width="24" height="25" viewBox="0 0 24 25" fill="none" xmlns="http://www.w3.org/2000/svg">
<path fill-rule="evenodd" clip-rule="evenodd" d="M1.75496 0.840745C1.36443 0.45022 0.731269 0.45022 0.340745 0.840745C-0.0497795 1.23127 -0.0497795 1.86443 0.340745 2.25496L4.5472 6.46141C2.01204 8.60782 0.510795 11.2394 0.151837 11.8687C0.112538 11.9375 0.0869305 11.9824 0.0751566 12.0001C-0.0250522 12.3001 -0.0250522 12.6001 0.0751566 12.9001C0.275574 13.3001 4.48434 21.5001 12 21.5001C14.2419 21.5001 16.1895 20.7704 17.8243 19.7385L22.2452 24.1594C22.6357 24.5499 23.2689 24.5499 23.6594 24.1594C24.0499 23.7689 24.0499 23.1357 23.6594 22.7452L1.75496 0.840745ZM16.363 18.2772L14.0308 15.945C13.4343 16.2974 12.7397 16.5001 12 16.5001C9.79541 16.5001 7.99165 14.7001 7.99165 12.5001C7.99165 11.7589 8.19636 11.0632 8.55214 10.4663L5.97267 7.88688C3.96892 9.54488 2.63666 11.6102 2.07933 12.5001C2.98121 14.1001 6.58873 19.5001 12 19.5001C13.6333 19.5001 15.0931 19.0081 16.363 18.2772ZM10.0652 11.9794C10.02 12.1455 9.99583 12.3201 9.99583 12.5001C9.99583 13.6001 10.8977 14.5001 12 14.5001C12.1789 14.5001 12.3524 14.4764 12.5178 14.432L10.0652 11.9794Z" fill="white"/>
<path d="M10.9176 3.55739C10.1002 3.64448 9.83856 4.62213 10.4198 5.20337C10.6622 5.44577 11.0048 5.55415 11.3465 5.52646C11.5611 5.50907 11.779 5.50006 12 5.50006C17.4113 5.50006 21.0188 10.9001 21.9207 12.5001C21.6745 12.8932 21.277 13.5157 20.7372 14.2312C20.4239 14.6465 20.4491 15.2327 20.8171 15.6006C21.2348 16.0183 21.9223 15.9897 22.2786 15.5185C23.125 14.3992 23.6539 13.472 23.8482 13.1315C23.8875 13.0626 23.9131 13.0177 23.9248 13.0001C24.0251 12.7001 24.0251 12.4001 23.9248 12.1001C23.7244 11.7001 19.5157 3.50006 12 3.50006C11.6312 3.50006 11.2704 3.51981 10.9176 3.55739Z" fill="white"/>
</svg>
