<svg width="24" height="25" viewBox="0 0 24 25" fill="none" xmlns="http://www.w3.org/2000/svg">
<path d="M12 21.5C4.48434 21.5 0.275574 13.3 0.0751566 12.9C-0.0250522 12.6 -0.0250522 12.3 0.0751566 12C0.275574 11.7 4.48434 3.5 12 3.5C19.5157 3.5 23.7244 11.7 23.9248 12.1C24.0251 12.4 24.0251 12.7 23.9248 13C23.7244 13.3 19.5157 21.5 12 21.5ZM2.07933 12.5C2.98121 14.1 6.58873 19.5 12 19.5C17.4113 19.5 20.9186 14.1 21.9207 12.5C21.0188 10.9 17.4113 5.5 12 5.5C6.58873 5.5 3.08142 10.9 2.07933 12.5ZM12 16.5C9.79541 16.5 7.99165 14.7 7.99165 12.5C7.99165 10.3 9.79541 8.5 12 8.5C14.2046 8.5 16.0084 10.3 16.0084 12.5C16.0084 14.7 14.2046 16.5 12 16.5ZM12 10.5C10.8977 10.5 9.99583 11.4 9.99583 12.5C9.99583 13.6 10.8977 14.5 12 14.5C13.1023 14.5 14.0042 13.6 14.0042 12.5C14.0042 11.4 13.1023 10.5 12 10.5Z" fill="white"/>
</svg>
