<svg width="24" height="24" viewBox="0 0 24 24" fill="none" xmlns="http://www.w3.org/2000/svg">
<path d="M12 2C9.6255 2.0001 7.32849 2.84511 5.51999 4.38385C3.71149 5.92258 2.50953 8.05462 2.12916 10.3985C1.74879 12.7423 2.21485 15.1451 3.44393 17.1768C4.67301 19.2084 6.58491 20.7365 8.83755 21.4875C9.33755 21.575 9.52505 21.275 9.52505 21.0125C9.52505 20.775 9.51254 19.9875 9.51254 19.15C7.00003 19.6125 6.35003 18.5375 6.15003 17.975C5.9281 17.428 5.5763 16.9431 5.12503 16.5625C4.77503 16.375 4.27503 15.9125 5.11252 15.9C5.4323 15.9347 5.73901 16.046 6.00666 16.2244C6.2743 16.4028 6.49499 16.6432 6.65003 16.925C6.7868 17.1707 6.97071 17.387 7.19122 17.5615C7.41173 17.736 7.6645 17.8653 7.93506 17.9419C8.20562 18.0185 8.48864 18.041 8.76791 18.0081C9.04717 17.9752 9.3172 17.8875 9.56251 17.75C9.6058 17.2416 9.83237 16.7663 10.2 16.4125C7.97503 16.1625 5.65003 15.3 5.65003 11.475C5.63597 10.4812 6.00271 9.51961 6.67503 8.78753C6.36931 7.92375 6.40508 6.97581 6.77503 6.13753C6.77503 6.13753 7.6125 5.87502 9.52503 7.16253C11.1613 6.7125 12.8887 6.7125 14.525 7.16253C16.4375 5.86253 17.275 6.13753 17.275 6.13753C17.645 6.9758 17.6808 7.92376 17.375 8.78753C18.0494 9.51835 18.4164 10.4808 18.4 11.475C18.4 15.3125 16.0625 16.1625 13.8375 16.4125C14.0762 16.6544 14.26 16.9448 14.3764 17.264C14.4929 17.5833 14.5393 17.9238 14.5125 18.2625C14.5125 19.6 14.5 20.675 14.5 21.0125C14.5 21.275 14.6875 21.5875 15.1875 21.4875C17.4362 20.7304 19.3426 19.1988 20.5664 17.166C21.7903 15.1333 22.2519 12.7318 21.8689 10.3902C21.4859 8.04865 20.2832 5.91937 18.4755 4.38251C16.6678 2.84565 14.3727 2.00123 12 2Z" fill="#E1E0E1"/>
</svg>
