<svg width="24" height="24" viewBox="0 0 24 24" fill="none" xmlns="http://www.w3.org/2000/svg">
<path d="M12 9.20494C12.5523 9.20494 13 8.75694 13 8.20432C13 7.65169 12.5523 7.2037 12 7.2037C11.4477 7.2037 11 7.65169 11 8.20432C11 8.75694 11.4477 9.20494 12 9.20494Z" fill="black"/>
<path fill-rule="evenodd" clip-rule="evenodd" d="M3.99999 2.00062C3.99999 1.44799 4.44771 1 4.99999 1H19C19.5523 1 20 1.44799 20 2.00062C20 2.55325 19.5523 3.00124 19 3.00124H18.2189C18.2165 4.11909 18.1964 5.0469 18.0354 5.85266C17.8322 6.86915 17.4126 7.6791 16.6502 8.53559C15.9681 9.30186 15.5747 9.75257 15.3216 10.2281C15.0952 10.6534 14.9613 11.1436 14.9613 11.9912C14.9613 12.8388 15.0952 13.329 15.3216 13.7543C15.5747 14.2298 15.9681 14.6805 16.6502 15.4468C17.4126 16.3033 17.8322 17.1132 18.0354 18.1297C18.1973 18.9397 18.2167 19.873 18.219 20.9988H19C19.5523 20.9988 20 21.4468 20 21.9994C20 22.552 19.5523 23 19 23H4.99999C4.44771 23 3.99999 22.552 3.99999 21.9994C3.99999 21.4468 4.44771 20.9988 4.99999 20.9988H5.781C5.78327 19.873 5.8027 18.9397 5.96462 18.1297C6.1678 17.1132 6.58738 16.3033 7.3498 15.4468C8.03191 14.6805 8.42529 14.2298 8.67843 13.7543C8.90482 13.329 9.03866 12.8388 9.03866 11.9912C9.03866 11.1436 8.90482 10.6534 8.67843 10.2281C8.42529 9.75257 8.03191 9.30186 7.3498 8.53559C6.58738 7.6791 6.1678 6.86915 5.96462 5.85266C5.80355 5.0469 5.78347 4.11909 5.78104 3.00124H4.99999C4.44771 3.00124 3.99999 2.55325 3.99999 2.00062ZM7.7813 20.9988H16.2187C16.2155 19.8674 16.1956 19.1295 16.0742 18.5222C16.0574 18.4379 16.0385 18.3561 16.0171 18.276L12 16.7849L7.98286 18.276C7.96148 18.3561 7.94262 18.4379 7.92577 18.5222C7.80438 19.1295 7.78448 19.8674 7.7813 20.9988ZM12.3478 14.7795L13.9958 15.3912C13.8321 15.1651 13.6841 14.935 13.5564 14.6951C13.1406 13.9142 12.9613 13.083 12.9613 11.9912C12.9613 10.8994 13.1406 10.0681 13.5564 9.28723C13.9343 8.57727 14.4904 7.95275 15.103 7.26486L15.1567 7.20451C15.7101 6.58284 15.9484 6.08932 16.0742 5.46016C16.195 4.85604 16.2153 4.12261 16.2186 3.00124H7.78135C7.78469 4.12261 7.80501 4.85604 7.92577 5.46016C8.05154 6.08932 8.28987 6.58284 8.84326 7.20451L8.89699 7.26486C9.50955 7.95275 10.0657 8.57727 10.4436 9.28723C10.8593 10.0681 11.0387 10.8994 11.0387 11.9912C11.0387 13.083 10.8593 13.9142 10.4436 14.6951C10.3159 14.935 10.1679 15.1651 10.0042 15.3912L11.6522 14.7795C11.8766 14.6962 12.1234 14.6962 12.3478 14.7795Z" fill="black"/>
</svg>
