<svg width="24" height="24" viewBox="0 0 24 24" fill="none" xmlns="http://www.w3.org/2000/svg">
<path d="M19 22H5C3.3 22 2 20.7 2 19V15C2 14.4 2.4 14 3 14C3.6 14 4 14.4 4 15V19C4 19.6 4.4 20 5 20H19C19.6 20 20 19.6 20 19V15C20 14.4 20.4 14 21 14C21.6 14 22 14.4 22 15V19C22 20.7 20.7 22 19 22Z" fill="black"/>
<path d="M7 6.55556L7 13.963C7 14.2507 7.09039 14.4978 7.2963 14.7037C7.5022 14.9096 7.74929 15 8.03704 15L15.4444 15C16.037 15 16.4815 14.5556 16.4815 13.963C16.4815 13.3704 16.037 12.9259 15.4444 12.9259H10.5556L17.6667 5.81481C18.1111 5.37037 18.1111 4.77778 17.6667 4.33333C17.2222 3.88889 16.6296 3.88889 16.1852 4.33333L9.07407 11.4444L9.07407 6.55556C9.07407 5.96296 8.62963 5.51852 8.03704 5.51852C7.44444 5.51852 7 5.96296 7 6.55556Z" fill="black"/>
</svg>
