<svg width="24" height="24" viewBox="0 0 24 24" fill="none" xmlns="http://www.w3.org/2000/svg">
<g clip-path="url(#clip0_13031_24949)">
<path fill-rule="evenodd" clip-rule="evenodd" d="M15.0801 1.47885C15.4721 1.72948 15.5867 2.25042 15.336 2.64238L14.5071 3.93879L16.8152 5.39934C17.0045 5.51918 17.1384 5.70954 17.187 5.9283C17.2357 6.14707 17.1951 6.3762 17.0744 6.56501L14.8258 10.0816C14.576 10.4723 14.0574 10.5876 13.6656 10.3397L11.3508 8.87484L9.58507 11.6362C9.91379 11.9208 10.2081 12.2442 10.4612 12.6C10.8798 13.1885 11.1772 13.8539 11.3363 14.5581C11.4954 15.2623 11.513 15.991 11.3881 16.7023C11.2632 17.4136 10.9983 18.0932 10.6089 18.7022C10.2195 19.3111 9.71332 19.8373 9.11962 20.2507C8.52592 20.6641 7.85633 20.9565 7.14938 21.1113C6.44243 21.266 5.71191 21.2801 4.99981 21.1526C4.28771 21.0251 3.60798 20.7585 2.99982 20.3679L2.99225 20.363C1.79144 19.5736 0.950185 18.3448 0.650793 16.941C0.351402 15.5371 0.618173 14.072 1.39237 12.8613C2.16647 11.6507 3.38586 10.7912 4.78743 10.4667C5.91792 10.205 7.09495 10.308 8.15207 10.7498L12.6315 3.74453C12.6314 3.74463 12.6315 3.74443 12.6315 3.74453L13.9166 1.73474C14.1672 1.34278 14.6882 1.22821 15.0801 1.47885ZM13.5994 5.35824L12.2584 7.4554L13.858 8.46761L15.199 6.37045L13.5994 5.35824ZM8.04093 12.5807C8.03173 12.5756 8.02259 12.5703 8.01351 12.5647C7.16317 12.0471 6.14106 11.8827 5.16742 12.1081C4.19378 12.3335 3.34801 12.9303 2.8118 13.7689C2.27568 14.6073 2.09183 15.6202 2.29855 16.5896C2.50496 17.5574 3.08462 18.406 3.91408 18.9527C4.3343 19.2219 4.80415 19.4059 5.29679 19.4942C5.79093 19.5826 6.29811 19.5729 6.78908 19.4654C7.28005 19.3579 7.74493 19.1549 8.15692 18.868C8.56891 18.5812 8.91977 18.2163 9.18946 17.7945C9.45914 17.3728 9.64231 16.9025 9.72866 16.4109C9.815 15.9192 9.80283 15.4158 9.69295 14.9294C9.58306 14.4431 9.37759 13.9833 9.08825 13.5765C8.80675 13.1808 8.4512 12.8427 8.04093 12.5807Z" fill="#959394"/>
<path fill-rule="evenodd" clip-rule="evenodd" d="M21.0801 3.47885C21.4721 3.72948 21.5867 4.25042 21.336 4.64238L20.5071 5.93879L22.8152 7.39934C23.0045 7.51918 23.1384 7.70954 23.187 7.9283C23.2357 8.14707 23.1951 8.3762 23.0744 8.56501L20.8258 12.0816C20.576 12.4723 20.0574 12.5876 19.6656 12.3397L17.3508 10.8748L15.5851 13.6362C15.9138 13.9208 16.2081 14.2442 16.4612 14.6C16.8798 15.1885 17.1772 15.8539 17.3363 16.5581C17.4954 17.2623 17.513 17.991 17.3881 18.7023C17.2632 19.4136 16.9983 20.0932 16.6089 20.7022C16.2195 21.3111 15.7133 21.8373 15.1196 22.2507C14.5259 22.6641 13.8563 22.9565 13.1494 23.1113C12.4424 23.266 11.7119 23.2801 10.9998 23.1526C10.2877 23.0251 9.60798 22.7585 8.99982 22.3679L8.99225 22.363C7.79144 21.5736 6.95019 20.3448 6.65079 18.941C6.3514 17.5371 6.61817 16.072 7.39237 14.8613C8.16647 13.6507 9.38586 12.7912 10.7874 12.4667C11.9179 12.205 13.0949 12.308 14.1521 12.7498L18.6315 5.74453C18.6314 5.74463 18.6315 5.74443 18.6315 5.74453L19.9166 3.73474C20.1672 3.34278 20.6882 3.22821 21.0801 3.47885ZM19.5994 7.35824L18.2584 9.4554L19.858 10.4676L21.199 8.37045L19.5994 7.35824ZM14.0409 14.5807C14.0317 14.5756 14.0226 14.5703 14.0135 14.5647C13.1632 14.0471 12.1411 13.8827 11.1674 14.1081C10.1938 14.3335 9.34801 14.9303 8.8118 15.7689C8.27568 16.6073 8.09183 17.6202 8.29855 18.5896C8.50496 19.5574 9.08462 20.406 9.91408 20.9527C10.3343 21.2219 10.8041 21.4059 11.2968 21.4942C11.7909 21.5826 12.2981 21.5729 12.7891 21.4654C13.2801 21.3579 13.7449 21.1549 14.1569 20.868C14.5689 20.5812 14.9198 20.2163 15.1895 19.7945C15.4591 19.3728 15.6423 18.9025 15.7287 18.4109C15.815 17.9192 15.8028 17.4158 15.6929 16.9294C15.5831 16.4431 15.3776 15.9833 15.0882 15.5765C14.8067 15.1808 14.4512 14.8427 14.0409 14.5807Z" fill="#959394"/>
</g>
<defs>
<clipPath id="clip0_13031_24949">
<rect width="24" height="24" fill="white"/>
</clipPath>
</defs>
</svg>
