<svg width="192" height="192" viewBox="0 0 192 192" fill="none" xmlns="http://www.w3.org/2000/svg">
<path fill-rule="evenodd" clip-rule="evenodd" d="M22.5014 69.5351L22.5014 149.033H5.28097C4.83294 149.033 4.60893 149.033 4.4378 149.12C4.28727 149.196 4.16489 149.319 4.08819 149.469C4.00099 149.64 4.00098 149.864 4.00098 150.312V150.818C4.00098 154.063 8.20561 157.365 14.0002 157.365H178.002C183.796 157.365 188.001 154.063 188.001 150.818L188.001 150.312C188.001 149.864 188.001 149.64 187.914 149.469C187.837 149.319 187.715 149.196 187.564 149.12C187.393 149.033 187.169 149.033 186.721 149.033H169.5V69.5346C169.5 67.4631 169.5 65.5905 169.372 64.0308C169.236 62.3579 168.926 60.5686 168.03 58.8116C166.738 56.2752 164.676 54.213 162.139 52.9207C160.382 52.0255 158.593 51.7153 156.92 51.5786C155.36 51.4512 153.488 51.4513 151.416 51.4514H40.5851C38.5134 51.4513 36.6406 51.4512 35.0808 51.5786C33.4079 51.7153 31.6186 52.0255 29.8617 52.9207C27.3252 54.213 25.2631 56.2752 23.9707 58.8116C23.0755 60.5686 22.7653 62.3579 22.6286 64.0308C22.5012 65.5906 22.5013 67.4634 22.5014 69.5351ZM109.242 150.688C108.753 151.047 108.085 151.308 107.2 151.308H84.8023C84.7469 151.308 84.6924 151.307 84.6388 151.305C84.2014 151.288 83.8201 151.207 83.4896 151.082C82.2952 150.631 81.7625 149.611 81.6367 149.032H110.365C110.268 149.476 109.932 150.18 109.242 150.688ZM28.8534 61.2995C27.9814 63.0108 27.9814 65.251 27.9814 69.7314V145.208H164.02V69.7314C164.02 65.251 164.02 63.0108 163.148 61.2995C162.381 59.7942 161.157 58.5704 159.651 57.8034C157.94 56.9314 155.7 56.9314 151.22 56.9314H40.7814C36.301 56.9314 34.0608 56.9314 32.3495 57.8034C30.8442 58.5704 29.6204 59.7942 28.8534 61.2995Z" fill="url(#paint0_linear_23393_53054)"/>
<defs>
<linearGradient id="paint0_linear_23393_53054" x1="96.001" y1="150.32" x2="96.001" y2="62.0102" gradientUnits="userSpaceOnUse">
<stop stop-color="#231F20"/>
<stop offset="1" stop-color="#747374"/>
</linearGradient>
</defs>
</svg>
