<svg width="24" height="24" viewBox="0 0 24 24" fill="none" xmlns="http://www.w3.org/2000/svg">
<path fill-rule="evenodd" clip-rule="evenodd" d="M19.004 2.95474C19.3633 3.18449 19.4683 3.66201 19.2385 4.02131L18.4786 5.20969L20.5944 6.54852C20.768 6.65837 20.8906 6.83287 20.9352 7.0334C20.9798 7.23394 20.9427 7.44398 20.832 7.61705L18.7708 10.8406C18.5418 11.1987 18.0665 11.3044 17.7073 11.0771L15.5854 9.7344L13.9668 12.2656C14.2681 12.5265 14.5379 12.8229 14.7699 13.1491C15.1536 13.6885 15.4263 14.2986 15.5721 14.9441C15.718 15.5895 15.7341 16.2575 15.6196 16.9096C15.5051 17.5616 15.2622 18.1846 14.9053 18.7428C14.5484 19.301 14.0844 19.7834 13.5401 20.1623C12.9959 20.5412 12.3821 20.8093 11.7341 20.9511C11.086 21.093 10.4164 21.1059 9.76365 20.989C9.11089 20.8721 8.4878 20.6277 7.93032 20.2697L7.92338 20.2652C6.82264 19.5416 6.05149 18.4152 5.77705 17.1283C5.50261 15.8415 5.74715 14.4985 6.45683 13.3886C7.16642 12.2789 8.28419 11.491 9.56896 11.1936C10.6052 10.9537 11.6842 11.0481 12.6532 11.4531L17.9374 3.18931C18.1671 2.83001 18.6447 2.72499 19.004 2.95474ZM17.6466 6.51084L16.4174 8.43324L17.8837 9.36111L19.1129 7.43871L17.6466 6.51084ZM12.5513 13.1315C12.5429 13.1268 12.5345 13.1219 12.5262 13.1168C11.7467 12.6423 10.8098 12.4916 9.91729 12.6982C9.02479 12.9048 8.2495 13.4519 7.75797 14.2206C7.26653 14.9892 7.098 15.9177 7.28749 16.8062C7.4767 17.6934 8.00805 18.4713 8.76839 18.9724C9.1536 19.2192 9.58429 19.3879 10.0359 19.4688C10.4888 19.5499 10.9538 19.541 11.4038 19.4424C11.8539 19.3439 12.28 19.1578 12.6577 18.8948C13.0353 18.6319 13.3569 18.2974 13.6042 17.9108C13.8514 17.5242 14.0193 17.0931 14.0984 16.6424C14.1776 16.1917 14.1664 15.7302 14.0657 15.2844C13.965 14.8386 13.7766 14.4172 13.5114 14.0443C13.2533 13.6815 12.9274 13.3716 12.5513 13.1315Z" fill="white"/>
<path fill-rule="evenodd" clip-rule="evenodd" d="M7.95041 9.12079C8.09805 9.4706 7.93416 9.87387 7.58434 10.0215C5.58836 10.8639 4.08016 12.568 3.65272 14.7272C3.44252 15.7891 3.51583 16.8448 3.82363 17.8267C3.9372 18.1891 3.73556 18.5748 3.37325 18.6884C3.01094 18.802 2.62516 18.6003 2.51158 18.238C2.13758 17.0449 2.04738 15.756 2.3039 14.4602C2.82807 11.8124 4.67316 9.75774 7.04968 8.75472C7.3995 8.60708 7.80277 8.77097 7.95041 9.12079ZM18.1076 14.1713C18.4792 14.0933 18.8437 14.3312 18.9217 14.7028C19.1281 15.6854 19.1445 16.7175 18.9394 17.7534C18.5208 19.8678 17.2581 21.607 15.5548 22.7312C15.2379 22.9403 14.8115 22.853 14.6023 22.5361C14.3932 22.2192 14.4805 21.7927 14.7974 21.5836C16.2169 20.6467 17.2486 19.2136 17.5906 17.4864C17.7588 16.6367 17.7454 15.7916 17.576 14.9854C17.498 14.6138 17.736 14.2493 18.1076 14.1713Z" fill="white"/>
</svg>
