<svg width="25" height="25" viewBox="0 0 25 25" fill="none" xmlns="http://www.w3.org/2000/svg">
<path d="M12.5 23.5C11.9 23.5 11.5 23.1 11.5 22.5L11.5 18.5C11.5 17.9 11.9 17.5 12.5 17.5C13.1 17.5 13.5 17.9 13.5 18.5L13.5 22.5C13.5 23.1 13.1 23.5 12.5 23.5ZM5.4 20.6C5.1 20.6 4.9 20.5 4.7 20.3C4.3 19.9 4.3 19.3 4.7 18.9L7.5 16.1C7.9 15.7 8.5 15.7 8.9 16.1C9.3 16.5 9.3 17.1 8.9 17.5L6.1 20.3C5.9 20.5 5.7 20.6 5.4 20.6ZM19.6 20.6C19.3 20.6 19.1 20.5 18.9 20.3L16.1 17.5C15.7 17.1 15.7 16.5 16.1 16.1C16.5 15.7 17.1 15.7 17.5 16.1L20.3 18.9C20.7 19.3 20.7 19.9 20.3 20.3C20.1 20.5 19.8 20.6 19.6 20.6ZM22.5 13.5L18.5 13.5C17.9 13.5 17.5 13.1 17.5 12.5C17.5 11.9 17.9 11.5 18.5 11.5L22.5 11.5C23.1 11.5 23.5 11.9 23.5 12.5C23.5 13.1 23.1 13.5 22.5 13.5ZM6.5 13.5L2.5 13.5C1.9 13.5 1.5 13.1 1.5 12.5C1.5 11.9 1.9 11.5 2.5 11.5L6.5 11.5C7.1 11.5 7.5 11.9 7.5 12.5C7.5 13.1 7.1 13.5 6.5 13.5ZM8.3 9.3C8 9.3 7.8 9.2 7.6 9L4.7 6.1C4.3 5.7 4.3 5.1 4.7 4.7C5.1 4.3 5.7 4.3 6.1 4.7L8.9 7.5C9.3 7.9 9.3 8.5 8.9 8.9C8.8 9.2 8.5 9.3 8.3 9.3ZM16.7 9.3C16.4 9.3 16.2 9.2 16 9C15.6 8.6 15.6 8 16 7.6L18.8 4.8C19.2 4.4 19.8 4.4 20.2 4.8C20.6 5.2 20.6 5.8 20.2 6.2L17.4 9C17.3 9.2 17 9.3 16.7 9.3ZM12.5 7.5C11.9 7.5 11.5 7.1 11.5 6.5L11.5 2.5C11.5 1.9 11.9 1.5 12.5 1.5C13.1 1.5 13.5 1.9 13.5 2.5L13.5 6.5C13.5 7.1 13.1 7.5 12.5 7.5Z" fill="white"/>
</svg>
