<svg width="24" height="24" viewBox="0 0 24 24" fill="none" xmlns="http://www.w3.org/2000/svg">
<path fill-rule="evenodd" clip-rule="evenodd" d="M12 2.66669C11.3454 2.66669 10.6939 2.79536 10.0834 3.04867C9.17078 3.42735 8.39081 4.06813 7.84198 4.88995C7.29321 5.71177 7.00018 6.67764 7 7.66585L7 9.66596C6.20435 9.66596 5.44128 9.98214 4.87866 10.5447C4.31604 11.1073 4 11.8704 4 12.6661L4 19.6665C4 20.4622 4.31604 21.2253 4.87866 21.7879C5.44128 22.3506 6.20435 22.6666 7 22.6666L17 22.6667C17.7957 22.6667 18.5587 22.3506 19.1213 21.788C19.6839 21.2253 20 20.4622 20 19.6665L20 12.6662C20 11.8705 19.6839 11.1074 19.1213 10.5447C18.5587 9.98209 17.7956 9.666 17 9.666C16.2189 9.666 15.781 9.666 15 9.666L9 9.66596L9 7.66585C8.99854 7.07207 9.17334 6.49111 9.50226 5.9967C9.83118 5.50229 10.2994 5.11665 10.8477 4.88848C11.2146 4.73589 11.6064 4.65837 12 4.65837C12.3936 4.65837 12.7854 4.73584 13.1523 4.88851C13.7006 5.11661 14.1688 5.50229 14.4977 5.99671C14.8267 6.49113 15.0015 7.07205 15 7.66589L15 9.666C15.781 9.666 16.2189 9.666 17 9.666L17 7.66589C16.9998 6.67769 16.7068 5.71171 16.158 4.88992C15.6092 4.06813 14.8292 3.42739 13.9165 3.04861C13.3061 2.79526 12.6546 2.66669 12 2.66669Z" fill="#231F20"/>
</svg>
