<svg width="97" height="97" viewBox="0 0 97 97" fill="none" xmlns="http://www.w3.org/2000/svg">
<path d="M48.5 52.4806C47.2822 52.4664 46.0894 52.8258 45.0818 53.51C44.7498 53.7355 44.4431 53.9929 44.1655 54.2771C43.6011 54.8557 43.157 55.5457 42.8647 56.3084C42.4292 57.4457 42.3523 58.6889 42.6445 59.8716C42.937 61.0538 43.5845 62.1183 44.5 62.9211L44.5 68.4814C44.5 69.5425 44.9214 70.5602 45.6716 71.3102C46.4216 72.0602 47.4392 72.4817 48.5 72.4817C49.5609 72.4817 50.5783 72.0604 51.3284 71.3102C52.0786 70.56 52.5 69.5425 52.5 68.4816L52.5 62.9213C53.4155 62.1181 54.0631 61.0537 54.3554 59.8714C54.6477 58.6891 54.5709 57.4455 54.1351 56.3082C53.6994 55.1709 52.9257 54.1943 51.9182 53.51C50.9107 52.8257 49.7178 52.4664 48.5 52.4806Z" fill="url(#paint0_linear_4280_31927)"/>
<path fill-rule="evenodd" clip-rule="evenodd" d="M48.5 8.48267C45.8816 8.48267 43.2756 8.99734 40.8337 10.0106C37.1831 11.5253 34.0632 14.0884 31.8679 17.3757C29.6729 20.663 28.5007 24.5265 28.5 28.4793L28.5 36.4798C25.3174 36.4798 22.2651 37.7445 20.0146 39.9946C17.7642 42.2452 16.5 45.2976 16.5 48.4804L16.5 76.4819C16.5 79.6647 17.7642 82.7171 20.0146 84.9677C22.2651 87.2183 25.3174 88.4825 28.5 88.4825L68.5 88.4827C71.6826 88.4827 74.7348 87.2183 76.9853 84.9678C79.2357 82.7172 80.5 79.6648 80.5 76.482L80.5 48.4806C80.5 45.2978 79.2357 42.2454 76.9853 39.9948C74.7348 37.7443 71.6826 36.4799 68.5 36.4799L60.5 36.4799L36.5 36.4798L36.5 28.4793C36.4941 26.1042 37.1934 23.7804 38.509 21.8027C39.8247 19.8251 41.6978 18.2825 43.8906 17.3699C45.3584 16.7595 46.9255 16.4494 48.5 16.4494C50.0745 16.4494 51.6415 16.7593 53.1093 17.37C55.3023 18.2823 57.1753 19.8251 58.491 21.8028C59.8066 23.7804 60.5058 26.1041 60.5 28.4795L60.5 36.4799L68.5 36.4799L68.5 28.4795C68.4991 24.5267 67.3271 20.6628 65.132 17.3756C62.9368 14.0884 59.8169 11.5255 56.1662 10.0103C53.7244 8.99694 51.1184 8.48268 48.5 8.48267ZM25.6716 79.3106C26.4216 80.0607 27.4392 80.4821 28.5 80.4821L68.5 80.4822C69.5609 80.4822 70.5783 80.0608 71.3284 79.3106C72.0786 78.5604 72.5 77.543 72.5 76.482L72.5 48.4806C72.5 47.4196 72.0786 46.4022 71.3284 45.652C70.5783 44.9018 69.5609 44.4803 68.5 44.4803L28.5 44.4802C27.4392 44.4802 26.4216 44.9016 25.6716 45.6521C24.9214 46.4022 24.5 47.4198 24.5 48.4804L24.5 76.4819C24.5 77.543 24.9214 78.5606 25.6716 79.3106Z" fill="url(#paint1_linear_4280_31927)"/>
<path fill-rule="evenodd" clip-rule="evenodd" d="M48.5 52.4806C47.2822 52.4664 46.0894 52.8258 45.0818 53.51C44.7498 53.7355 44.4431 53.9929 44.1655 54.2771C43.6011 54.8557 43.157 55.5457 42.8647 56.3084C42.4292 57.4457 42.3523 58.6889 42.6445 59.8716C42.937 61.0538 43.5845 62.1183 44.5 62.9211L44.5 68.4814C44.5 69.5425 44.9214 70.5602 45.6716 71.3102C46.4216 72.0602 47.4392 72.4817 48.5 72.4817C49.5609 72.4817 50.5783 72.0604 51.3284 71.3102C52.0786 70.56 52.5 69.5425 52.5 68.4816L52.5 62.9213C53.4155 62.1181 54.0631 61.0537 54.3554 59.8714C54.6477 58.6891 54.5709 57.4455 54.1351 56.3082C53.6994 55.1709 52.9257 54.1943 51.9182 53.51C50.9107 52.8257 49.7178 52.4664 48.5 52.4806Z" fill="url(#paint2_linear_4280_31927)"/>
<defs>
<linearGradient id="paint0_linear_4280_31927" x1="48.3277" y1="88.483" x2="48.0056" y2="8.485" gradientUnits="userSpaceOnUse">
<stop stop-color="#009DB9"/>
<stop offset="1" stop-color="#33B7C1"/>
</linearGradient>
<linearGradient id="paint1_linear_4280_31927" x1="48.3277" y1="88.483" x2="48.0056" y2="8.485" gradientUnits="userSpaceOnUse">
<stop stop-color="#009DB9"/>
<stop offset="1" stop-color="#33B7C1"/>
</linearGradient>
<linearGradient id="paint2_linear_4280_31927" x1="48.3277" y1="88.483" x2="48.0056" y2="8.485" gradientUnits="userSpaceOnUse">
<stop stop-color="#009DB9"/>
<stop offset="1" stop-color="#33B7C1"/>
</linearGradient>
</defs>
</svg>
