<svg xmlns="http://www.w3.org/2000/svg" width="96" height="96" viewBox="0 0 96 96" fill="none">
  <path d="M20.5172 50.0586C20.9601 49.2855 22.1158 49.4332 22.3492 50.293L24.3531 57.6758C24.5608 58.4412 24.4568 59.2602 24.0641 59.9492L19.0875 68.6836C18.7076 69.3502 19.1876 70.1795 19.9547 70.1797H54.4508C55.3417 70.1797 55.7878 71.2568 55.1578 71.8867L49.7438 77.3008C49.1812 77.8632 48.4182 78.1797 47.6227 78.1797H13.7203L13.4586 78.1445C13.2073 78.0763 12.987 77.9111 12.8531 77.6797L9.04455 71.0859C8.86649 70.7767 8.86618 70.395 9.04455 70.0859L20.5172 50.0586Z" fill="url(#paint0_linear_20493_15891)"/>
  <path d="M60.9039 37.2539L68.2946 39.2656C69.0618 39.4746 69.7159 39.9779 70.111 40.668L86.9547 70.0938L87.0563 70.3359C87.1219 70.5877 87.0888 70.8628 86.9547 71.0938L83.1227 77.6758C82.9428 77.9835 82.6119 78.1729 82.2555 78.1719L59.1696 78.1641C58.2799 78.1622 57.8365 77.0863 58.4664 76.457L63.8766 71.0508C64.4377 70.4903 65.2007 70.1734 65.9938 70.1719L76.0485 70.1523C76.8153 70.1508 77.2957 69.322 76.9156 68.6562L59.775 38.7188C59.3326 37.946 60.0448 37.0214 60.9039 37.2539Z" fill="url(#paint1_linear_20493_15891)"/>
  <path d="M51.7125 10.1641C52.0693 10.1645 52.4013 10.3551 52.5797 10.6641L64.1891 30.6133C64.6371 31.3833 63.9292 32.3134 63.068 32.0859L55.6696 30.1289C54.9036 29.926 54.2495 29.4261 53.8492 28.7422L48.7711 20.0625C48.3838 19.4002 47.4283 19.4021 47.0446 20.0664L29.7946 49.9414C29.3491 50.713 28.1931 50.5598 27.9625 49.6992L25.9821 42.3047C25.7762 41.5363 25.8813 40.7163 26.2789 40.0273L43.2321 10.6641L43.3922 10.457C43.577 10.2735 43.8318 10.1642 44.0992 10.1641H51.7125Z" fill="url(#paint2_linear_20493_15891)"/>
  <defs>
    <linearGradient id="paint0_linear_20493_15891" x1="47.9999" y1="73.6552" x2="47.9999" y2="16.9447" gradientUnits="userSpaceOnUse">
      <stop stop-color="#231F20"/>
      <stop offset="1" stop-color="#747374"/>
    </linearGradient>
    <linearGradient id="paint1_linear_20493_15891" x1="47.9999" y1="73.6552" x2="47.9999" y2="16.9447" gradientUnits="userSpaceOnUse">
      <stop stop-color="#231F20"/>
      <stop offset="1" stop-color="#747374"/>
    </linearGradient>
    <linearGradient id="paint2_linear_20493_15891" x1="47.9999" y1="73.6552" x2="47.9999" y2="16.9447" gradientUnits="userSpaceOnUse">
      <stop stop-color="#231F20"/>
      <stop offset="1" stop-color="#747374"/>
    </linearGradient>
  </defs>
</svg>
