<svg width="28" height="28" viewBox="0 0 28 28" fill="none" xmlns="http://www.w3.org/2000/svg">
<g transform="translate(0, 5)">
  <path d="M26.4232 13.7412C26.9634 13.5791 27.3333 13.0819 27.3333 12.5179C27.3333 11.6625 26.5086 11.0489 25.6892 11.2947L14.118 14.7661C14.041 14.7892 13.959 14.7892 13.882 14.7661L2.31072 11.2947C1.49132 11.0489 0.666645 11.6625 0.666645 12.5179C0.666645 13.0819 1.03658 13.5791 1.57678 13.7412L13.7883 17.4047C13.9264 17.4461 14.0736 17.4461 14.2116 17.4047L26.4232 13.7412Z" fill="white"/>
  <path d="M26.4232 3.07451C26.9634 2.91246 27.3333 2.41525 27.3333 1.85127C27.3333 0.995789 26.5086 0.38221 25.6892 0.628031L14.118 4.09941C14.041 4.1225 13.959 4.1225 13.882 4.09941L2.31072 0.628031C1.49132 0.38221 0.666645 0.995789 0.666645 1.85127C0.666645 2.41525 1.03658 2.91246 1.57678 3.07451L13.7883 6.73799C13.9264 6.7794 14.0736 6.7794 14.2116 6.73799L26.4232 3.07451Z" fill="white"/>
</g>
</svg>
