<svg width="24" height="24" viewBox="0 0 24 24" fill="none" xmlns="http://www.w3.org/2000/svg">
<path fill-rule="evenodd" clip-rule="evenodd" 
d="M2.6826 8.45089C2.27745 8.57244 2 8.94534 2 9.36832C2 10.0099 2.6185 10.4701 3.23306 10.2858L11.9115 7.68222C11.9692 7.6649 12.0308 7.6649 12.0885 7.68222L20.7669 10.2858C21.3815 10.4701 22 10.0099 22 9.36832C22 8.94534 21.7225 8.57244 21.3174 8.45089L12.1587 5.70329C12.0552 5.67223 11.9448 5.67223 11.8413 5.70329L2.6826 8.45089ZM2.6826 16.4509C2.27745 16.5724 2 16.9453 2 17.3683C2 18.0099 2.6185 18.4701 3.23306 18.2858L11.9115 15.6822C11.9692 15.6649 12.0308 15.6649 12.0885 15.6822L20.7669 18.2858C21.3815 18.4701 22 18.0099 22 17.3683C22 16.9453 21.7225 16.5724 21.3174 16.4509L12.1587 13.7033C12.0552 13.6722 11.9448 13.6722 11.8413 13.7033L2.6826 16.4509Z" fill="#231F20"/>
</svg>
