<svg width="24" height="24" viewBox="0 0 24 24" fill="none" xmlns="http://www.w3.org/2000/svg">
<path d="M16.7501 12C16.7501 13.6492 16.2803 14.8094 15.8243 15.5504C15.5952 15.9226 15.368 16.1916 15.2019 16.3646C15.1189 16.4511 15.0514 16.5134 15.0068 16.5524C14.9845 16.5719 14.968 16.5855 14.9582 16.5934L14.9488 16.601L14.9482 16.6014C14.7289 16.7675 14.6849 17.0797 14.8501 17.3C15.0158 17.5209 15.3292 17.5657 15.5501 17.4L15.5506 17.3996L15.5511 17.3992L15.5522 17.3984L15.5551 17.3962L15.5629 17.3902C15.5691 17.3853 15.5771 17.379 15.5869 17.3711C15.6064 17.3553 15.6329 17.3333 15.6653 17.305C15.7301 17.2483 15.8188 17.166 15.9233 17.0572C16.1322 16.8396 16.405 16.5148 16.6759 16.0745C17.2199 15.1906 17.7501 13.8508 17.7501 12C17.7501 10.1492 17.2199 8.80941 16.6759 7.92548C16.405 7.48517 16.1322 7.16043 15.9233 6.94283C15.8188 6.83398 15.7301 6.75174 15.6653 6.69503C15.6329 6.66667 15.6064 6.64466 15.5869 6.62888C15.5771 6.62099 15.5691 6.61465 15.5629 6.60985L15.5551 6.60379L15.5522 6.60163L15.5511 6.60076L15.5506 6.60037L15.5501 6.60003C15.3292 6.43434 15.0158 6.47912 14.8501 6.70003C14.6849 6.9203 14.7289 7.23253 14.9482 7.39858L14.9488 7.39903L14.9582 7.40658C14.968 7.41448 14.9845 7.42812 15.0068 7.44761C15.0514 7.4866 15.1189 7.54889 15.2019 7.63536C15.368 7.80838 15.5952 8.07739 15.8243 8.44958C16.2803 9.19064 16.7501 10.3509 16.7501 12Z" fill="white"/>
<path d="M14.9289 14.7572C15.3304 14.0879 15.7501 13.1229 15.7501 12C15.7501 10.8771 15.3304 9.91208 14.9289 9.24278C14.7265 8.90559 14.5242 8.63577 14.3715 8.44903C14.2949 8.35547 14.2303 8.28223 14.1838 8.23125C14.1605 8.20575 14.1417 8.18578 14.1281 8.17158C14.1213 8.16448 14.1158 8.15881 14.1117 8.15462L14.1066 8.14944L14.1049 8.14768L14.1042 8.14701L14.123 8.16742L14.1037 8.14648C13.9084 7.95121 13.5918 7.95121 13.3966 8.14648C13.2015 8.34149 13.2013 8.65751 13.3958 8.85283L13.3963 8.85328L13.3971 8.85416L13.4058 8.86315C13.4142 8.8719 13.4276 8.8861 13.4453 8.90552C13.4808 8.94439 13.5334 9.00396 13.5975 9.08227C13.726 9.23929 13.8987 9.46946 14.0714 9.75728C14.4198 10.338 14.7501 11.123 14.7501 12C14.7501 12.8771 14.4198 13.662 14.0714 14.2427C13.8987 14.5305 13.726 14.7607 13.5975 14.9177C13.5334 14.996 13.4808 15.0556 13.4453 15.0945C13.4276 15.1139 13.4142 15.1281 13.4058 15.1369L13.3971 15.1458L13.3963 15.1467L13.3958 15.1472C13.2013 15.3425 13.2015 15.6585 13.3966 15.8535C13.5918 16.0488 13.9084 16.0488 14.1037 15.8535L14.123 15.8326L14.1042 15.853L14.1049 15.8523L14.1066 15.8506L14.1117 15.8454C14.1158 15.8412 14.1213 15.8355 14.1281 15.8284C14.1417 15.8142 14.1605 15.7942 14.1838 15.7687C14.2303 15.7178 14.2949 15.6445 14.3715 15.551C14.5242 15.3642 14.7265 15.0944 14.9289 14.7572Z" fill="white"/>
<path d="M13.1545 13.7628C13.4446 13.3638 13.7501 12.7628 13.7501 12C13.7501 11.2373 13.4446 10.6362 13.1545 10.2372C13.0087 10.0367 12.863 9.88179 12.7523 9.77575C12.6968 9.72253 12.6494 9.68103 12.6145 9.65171C12.597 9.63703 12.5826 9.62535 12.5717 9.61673L12.5581 9.60608L12.5534 9.60248L12.5515 9.60111L12.5508 9.60053C12.5508 9.60053 12.6523 9.68409 12.5501 9.60003C12.3292 9.43434 12.0158 9.47911 11.8501 9.70003C11.6849 9.92025 11.7289 10.2324 11.948 10.3985L11.951 10.4008C11.9547 10.4038 11.9618 10.4094 11.9716 10.4177C11.9914 10.4343 12.0222 10.4611 12.0604 10.4977C12.1373 10.5714 12.2415 10.6821 12.3457 10.8254C12.5556 11.1139 12.7501 11.5128 12.7501 12C12.7501 12.4872 12.5556 12.8861 12.3457 13.1746C12.2415 13.3179 12.1373 13.4286 12.0604 13.5023C12.0222 13.5389 11.9914 13.5657 11.9716 13.5823C11.9618 13.5906 11.9547 13.5962 11.951 13.5992L11.948 13.6015C11.7289 13.7676 11.6849 14.0798 11.8501 14.3C12.0158 14.5209 12.3292 14.5657 12.5501 14.4C12.6523 14.3159 12.5508 14.3995 12.5508 14.3995L12.5515 14.3989L12.5534 14.3975L12.5581 14.3939L12.5717 14.3833C12.5826 14.3746 12.597 14.363 12.6145 14.3483C12.6494 14.319 12.6968 14.2775 12.7523 14.2242C12.863 14.1182 13.0087 13.9633 13.1545 13.7628Z" fill="white"/>
<path d="M11.7501 12C11.7501 12.4964 11.5813 12.855 11.3905 13.0936C11.2977 13.2096 11.2032 13.2929 11.1282 13.3492C11.0906 13.3774 11.0574 13.3991 11.0311 13.4151C11.0179 13.4232 11.0063 13.4298 10.9967 13.4351C10.9919 13.4377 10.9875 13.4401 10.9837 13.4421L10.9783 13.4448L10.9759 13.4461L10.9748 13.4466L10.9742 13.4469C10.9742 13.4469 11.0575 13.3986 10.9737 13.4472C10.7267 13.5707 10.4264 13.4706 10.3029 13.2236C10.1816 12.9809 10.276 12.6868 10.5136 12.5595C10.516 12.5579 10.5211 12.5545 10.5282 12.5492C10.547 12.5351 10.5775 12.509 10.6097 12.4689C10.6689 12.3949 10.7501 12.2535 10.7501 12C10.7501 11.7465 10.6689 11.6051 10.6097 11.5311C10.5775 11.491 10.547 11.4649 10.5282 11.4508C10.5211 11.4455 10.516 11.4421 10.5136 11.4405C10.276 11.3132 10.1816 11.0191 10.3029 10.7764C10.4264 10.5294 10.7267 10.4293 10.9737 10.5528C11.0575 10.6014 10.9742 10.5531 10.9742 10.5531L10.9748 10.5534L10.9759 10.5539L10.9783 10.5552L10.9837 10.5579C10.9875 10.5599 10.9919 10.5623 10.9967 10.5649C11.0063 10.5702 11.0179 10.5768 11.0311 10.5849C11.0574 10.6009 11.0906 10.6226 11.1282 10.6508C11.2032 10.7071 11.2977 10.7904 11.3905 10.9064C11.5813 11.1449 11.7501 11.5036 11.7501 12Z" fill="white"/>
<path fill-rule="evenodd" clip-rule="evenodd" d="M3.75 18.5714H20.25C21.1398 18.5714 21.625 17.9642 21.625 17.3333V6.66667C21.625 6.03577 21.1398 5.42857 20.25 5.42857H3.75C2.86017 5.42857 2.375 6.03577 2.375 6.66667V17.3333C2.375 17.9642 2.86017 18.5714 3.75 18.5714ZM3.75 20H20.25C21.8083 20 23 18.8444 23 17.3333V6.66667C23 5.15556 21.8083 4 20.25 4H3.75C2.19167 4 1 5.15556 1 6.66667V17.3333C1 18.8444 2.19167 20 3.75 20Z" fill="white"/>
</svg>
