<svg width="24" height="24" viewBox="0 0 24 24" fill="none" xmlns="http://www.w3.org/2000/svg">
<g clip-path="url(#clip0_10411_165)">
<g clip-path="url(#clip1_10411_165)">
<path d="M13.1879 7.43782C14.8371 7.43783 15.9973 7.90761 16.7383 8.36365C17.1105 8.59269 17.3795 8.81992 17.5526 8.98602C17.639 9.06902 17.7013 9.13657 17.7403 9.18114C17.7598 9.20341 17.7734 9.21991 17.7813 9.22968L17.7889 9.23916L17.7893 9.23974C17.9554 9.45899 18.2676 9.50303 18.4879 9.33782C18.7088 9.17214 18.7536 8.85874 18.5879 8.63782L18.5876 8.63736L18.5872 8.63685L18.5863 8.6357L18.5841 8.63285L18.5781 8.625C18.5733 8.61883 18.5669 8.6108 18.559 8.60104C18.5433 8.58152 18.5213 8.55505 18.4929 8.52263C18.4362 8.45782 18.3539 8.36912 18.2451 8.26463C18.0275 8.05573 17.7028 7.78295 17.2624 7.51199C16.3785 6.96804 15.0387 6.43783 13.1879 6.43782C11.3371 6.43783 9.99733 6.96804 9.11341 7.51199C8.6731 7.78295 8.34836 8.05573 8.13075 8.26463C8.02191 8.36912 7.93967 8.45782 7.88296 8.52263C7.85459 8.55505 7.83259 8.58152 7.81681 8.60104C7.80892 8.6108 7.80258 8.61883 7.79778 8.625L7.79172 8.63285L7.78955 8.6357L7.78868 8.63685L7.7883 8.63736L7.78796 8.63782C7.62227 8.85873 7.66704 9.17214 7.88796 9.33782C8.10823 9.50303 8.42045 9.45899 8.58651 9.23974L8.58696 9.23916L8.59451 9.22968C8.60241 9.2199 8.61605 9.20341 8.63553 9.18114C8.67453 9.13657 8.73682 9.06902 8.82328 8.98601C8.99631 8.81991 9.26531 8.59269 9.63751 8.36365C10.3786 7.90761 11.5388 7.43783 13.1879 7.43782Z" fill="white"/>
<path d="M15.9451 9.25907C15.2759 8.8575 14.3109 8.43783 13.1879 8.43782C12.065 8.43783 11.1 8.8575 10.4307 9.25907C10.0935 9.46138 9.82369 9.66369 9.63696 9.81647C9.5434 9.89302 9.47016 9.95758 9.41918 10.0041C9.39368 10.0274 9.3737 10.0462 9.3595 10.0598C9.3524 10.0666 9.34674 10.0721 9.34255 10.0762L9.33736 10.0813L9.3356 10.0831L9.33493 10.0837L9.35535 10.065L9.3344 10.0843C9.13914 10.2795 9.13914 10.5961 9.3344 10.7914C9.52941 10.9864 9.84543 10.9866 10.0408 10.7921L10.0412 10.7917L10.0421 10.7908L10.0511 10.7821C10.0598 10.7738 10.074 10.7603 10.0935 10.7426C10.1323 10.7071 10.1919 10.6545 10.2702 10.5904C10.4272 10.462 10.6574 10.2893 10.9452 10.1166C11.5259 9.76815 12.3109 9.43783 13.1879 9.43782C14.065 9.43783 14.85 9.76815 15.4307 10.1166C15.7185 10.2893 15.9486 10.462 16.1057 10.5904C16.184 10.6545 16.2435 10.7071 16.2824 10.7426C16.3018 10.7603 16.316 10.7738 16.3248 10.7821L16.3338 10.7908L16.3346 10.7917L16.3351 10.7921C16.5304 10.9866 16.8464 10.9864 17.0415 10.7914C17.2367 10.5961 17.2367 10.2795 17.0415 10.0843L17.0205 10.065L17.0409 10.0837L17.0403 10.0831L17.0385 10.0813L17.0333 10.0762C17.0291 10.0721 17.0235 10.0666 17.0163 10.0598C17.0021 10.0462 16.9822 10.0274 16.9567 10.0041C16.9057 9.95758 16.8325 9.89302 16.7389 9.81647C16.5522 9.66369 16.2823 9.46139 15.9451 9.25907Z" fill="white"/>
<path d="M14.9507 11.0335C14.5518 10.7433 13.9507 10.4378 13.1879 10.4378C12.4252 10.4378 11.8241 10.7433 11.4251 11.0335C11.2247 11.1792 11.0697 11.325 10.9637 11.4356C10.9105 11.4912 10.869 11.5385 10.8396 11.5734C10.825 11.5909 10.8133 11.6054 10.8047 11.6162L10.794 11.6299L10.7904 11.6346L10.789 11.6364L10.7885 11.6371C10.7885 11.6371 10.872 11.5356 10.788 11.6378C10.6223 11.8587 10.667 12.1721 10.888 12.3378C11.1082 12.503 11.4203 12.459 11.5864 12.2399L11.5887 12.2369C11.5917 12.2332 11.5973 12.2261 11.6056 12.2163C11.6222 12.1965 11.6491 12.1657 11.6857 12.1275C11.7593 12.0507 11.87 11.9464 12.0133 11.8422C12.3018 11.6324 12.7007 11.4378 13.1879 11.4378C13.6752 11.4378 14.074 11.6324 14.3626 11.8422C14.5059 11.9464 14.6165 12.0507 14.6902 12.1275C14.7268 12.1657 14.7537 12.1965 14.7702 12.2163C14.7785 12.2261 14.7842 12.2332 14.7871 12.2369L14.7895 12.2399C14.9556 12.459 15.2677 12.503 15.4879 12.3378C15.7088 12.1721 15.7536 11.8587 15.5879 11.6378C15.5038 11.5356 15.5874 11.6371 15.5874 11.6371L15.5868 11.6364L15.5854 11.6346L15.5818 11.6299L15.5712 11.6162C15.5626 11.6054 15.5509 11.5909 15.5362 11.5734C15.5069 11.5385 15.4654 11.4912 15.4122 11.4356C15.3061 11.325 15.1512 11.1792 14.9507 11.0335Z" fill="white"/>
<path d="M13.1879 12.4378C13.6844 12.4378 14.043 12.6066 14.2815 12.7974C14.3976 12.8903 14.4809 12.9847 14.5371 13.0597C14.5653 13.0973 14.5871 13.1305 14.6031 13.1568C14.6111 13.17 14.6177 13.1816 14.623 13.1912C14.6257 13.1961 14.628 13.2004 14.63 13.2042L14.6328 13.2096L14.634 13.212L14.6346 13.2131L14.6348 13.2137C14.6348 13.2137 14.5865 13.1305 14.6351 13.2142C14.7586 13.4612 14.6585 13.7615 14.4115 13.885C14.1689 14.0063 13.8748 13.9119 13.7474 13.6744C13.7458 13.6719 13.7424 13.6668 13.7371 13.6597C13.723 13.6409 13.697 13.6104 13.6568 13.5783C13.5828 13.5191 13.4414 13.4378 13.1879 13.4378C12.9344 13.4378 12.793 13.5191 12.7191 13.5783C12.6789 13.6104 12.6528 13.6409 12.6387 13.6597C12.6334 13.6668 12.63 13.6719 12.6285 13.6744C12.5011 13.9119 12.207 14.0063 11.9644 13.885C11.7174 13.7615 11.6173 13.4612 11.7408 13.2142C11.7893 13.1305 11.741 13.2137 11.741 13.2137L11.7413 13.2131L11.7419 13.212L11.7431 13.2096L11.7459 13.2042C11.7479 13.2004 11.7502 13.1961 11.7529 13.1912C11.7581 13.1816 11.7648 13.17 11.7728 13.1568C11.7888 13.1305 11.8105 13.0973 11.8387 13.0597C11.895 12.9847 11.9783 12.8903 12.0944 12.7974C12.3329 12.6066 12.6915 12.4378 13.1879 12.4378Z" fill="white"/>
</g>
<path fill-rule="evenodd" clip-rule="evenodd" d="M18.2605 1.18792L18.5213 1.18793C20.0324 1.18793 21.1879 2.3796 21.1879 3.93793L21.1879 20.4379C21.1879 21.9963 20.0324 23.1879 18.5213 23.1879L7.85459 23.1879C6.75658 23.1879 5.8463 22.5587 5.43066 21.6169C5.21775 21.2851 5.06966 20.897 5.00611 20.4676L2.59053 4.14533C2.3624 2.60378 3.33104 1.25578 4.82587 1.03456L15.3776 -0.527021C16.6629 -0.717232 17.8171 0.00251788 18.2605 1.18792ZM5.18793 11.938L5.18793 3.93793C5.18793 3.31445 5.37291 2.74967 5.69162 2.29641L5.02717 2.39475C4.40307 2.48711 3.87344 3.05594 4.00371 3.93619L5.18793 11.938ZM13.1818 1.18793L15.5789 0.833164C15.9524 0.777893 16.3429 0.895733 16.6242 1.18792L13.1818 1.18793ZM19.7594 3.93793L19.7594 20.4379C19.7594 21.3278 19.1522 21.8129 18.5213 21.8129L7.85459 21.8129C7.22369 21.8129 6.6165 21.3278 6.6165 20.4379L6.6165 3.93793C6.6165 3.04809 7.22369 2.56293 7.85459 2.56293L18.5213 2.56293C19.1522 2.56293 19.7594 3.04809 19.7594 3.93793Z" fill="white"/>
</g>
<defs>
<clipPath id="clip0_10411_165">
<rect width="24" height="24" fill="white"/>
</clipPath>
<clipPath id="clip1_10411_165">
<rect width="12" height="12" fill="white" transform="translate(7.18793 16.1879) rotate(-90)"/>
</clipPath>
</defs>
</svg>
