<svg width="24" height="24" viewBox="0 0 24 24" fill="none" xmlns="http://www.w3.org/2000/svg">
<g clip-path="url(#clip0_5109_477415)">
<path d="M15.7501 13.6306C15.7501 15.2798 15.2803 16.44 14.8243 17.181C14.5952 17.5532 14.368 17.8222 14.2019 17.9953C14.1189 18.0817 14.0514 18.144 14.0068 18.183C13.9845 18.2025 13.968 18.2161 13.9582 18.224L13.9488 18.2316L13.9482 18.232C13.7289 18.3981 13.6849 18.7103 13.8501 18.9306C14.0158 19.1515 14.3292 19.1963 14.5501 19.0306L14.5506 19.0302L14.5511 19.0299L14.5522 19.029L14.5551 19.0268L14.5629 19.0208C14.5691 19.016 14.5771 19.0096 14.5869 19.0017C14.6064 18.986 14.6329 18.9639 14.6653 18.9356C14.7301 18.8789 14.8188 18.7966 14.9233 18.6878C15.1322 18.4702 15.405 18.1454 15.6759 17.7051C16.2199 16.8212 16.7501 15.4814 16.7501 13.6306C16.7501 11.7798 16.2199 10.44 15.6759 9.5561C15.405 9.11579 15.1322 8.79105 14.9233 8.57344C14.8188 8.4646 14.7301 8.38235 14.6653 8.32565C14.6329 8.29728 14.6064 8.27528 14.5869 8.2595C14.5771 8.2516 14.5691 8.24527 14.5629 8.24046L14.5551 8.23441L14.5522 8.23224L14.5511 8.23137L14.5506 8.23099L14.5501 8.23064C14.3292 8.06496 14.0158 8.10973 13.8501 8.33064C13.6849 8.55092 13.7289 8.86314 13.9482 9.0292L13.9488 9.02964L13.9582 9.03719C13.968 9.04509 13.9845 9.05873 14.0068 9.07822C14.0514 9.11722 14.1189 9.17951 14.2019 9.26597C14.368 9.43899 14.5952 9.708 14.8243 10.0802C15.2803 10.8213 15.7501 11.9815 15.7501 13.6306Z" fill="white"/>
<path d="M13.9289 16.3878C14.3304 15.7185 14.7501 14.7536 14.7501 13.6306C14.7501 12.5077 14.3304 11.5427 13.9289 10.8734C13.7265 10.5362 13.5242 10.2664 13.3715 10.0796C13.2949 9.98609 13.2303 9.91284 13.1838 9.86187C13.1605 9.83637 13.1417 9.81639 13.1281 9.80219C13.1213 9.79509 13.1158 9.78943 13.1117 9.78524L13.1066 9.78005L13.1049 9.77829L13.1042 9.77762L13.123 9.79804L13.1037 9.77709C12.9084 9.58183 12.5918 9.58183 12.3966 9.77709C12.2015 9.9721 12.2013 10.2881 12.3958 10.4834L12.3963 10.4839L12.3971 10.4848L12.4058 10.4938C12.4142 10.5025 12.4276 10.5167 12.4453 10.5361C12.4808 10.575 12.5334 10.6346 12.5975 10.7129C12.726 10.8699 12.8987 11.1001 13.0714 11.3879C13.4198 11.9686 13.7501 12.7536 13.7501 13.6306C13.7501 14.5077 13.4198 15.2927 13.0714 15.8733C12.8987 16.1612 12.726 16.3913 12.5975 16.5483C12.5334 16.6267 12.4808 16.6862 12.4453 16.7251C12.4276 16.7445 12.4142 16.7587 12.4058 16.7675L12.3971 16.7765L12.3963 16.7773L12.3958 16.7778C12.2013 16.9731 12.2015 17.2891 12.3966 17.4841C12.5918 17.6794 12.9084 17.6794 13.1037 17.4841L13.123 17.4632L13.1042 17.4836L13.1049 17.4829L13.1066 17.4812L13.1117 17.476C13.1158 17.4718 13.1213 17.4661 13.1281 17.459C13.1417 17.4448 13.1605 17.4249 13.1838 17.3994C13.2303 17.3484 13.2949 17.2751 13.3715 17.1816C13.5242 16.9948 13.7265 16.725 13.9289 16.3878Z" fill="white"/>
<path d="M12.1545 15.3934C12.4446 14.9945 12.7501 14.3934 12.7501 13.6306C12.7501 12.8679 12.4446 12.2668 12.1545 11.8678C12.0087 11.6674 11.863 11.5124 11.7523 11.4064C11.6968 11.3531 11.6494 11.3116 11.6145 11.2823C11.597 11.2676 11.5826 11.256 11.5717 11.2473L11.5581 11.2367L11.5534 11.2331L11.5515 11.2317L11.5508 11.2311C11.5508 11.2311 11.6523 11.3147 11.5501 11.2306C11.3292 11.065 11.0158 11.1097 10.8501 11.3306C10.6849 11.5509 10.7289 11.863 10.948 12.0291L10.951 12.0314C10.9547 12.0344 10.9618 12.04 10.9716 12.0483C10.9914 12.0649 11.0222 12.0917 11.0604 12.1284C11.1373 12.202 11.2415 12.3127 11.3457 12.456C11.5556 12.7445 11.7501 13.1434 11.7501 13.6306C11.7501 14.1178 11.5556 14.5167 11.3457 14.8052C11.2415 14.9486 11.1373 15.0592 11.0604 15.1329C11.0222 15.1695 10.9914 15.1964 10.9716 15.2129C10.9618 15.2212 10.9547 15.2269 10.951 15.2298L10.948 15.2322C10.7289 15.3982 10.6849 15.7104 10.8501 15.9306C11.0158 16.1515 11.3292 16.1963 11.5501 16.0306C11.6523 15.9465 11.5508 16.0301 11.5508 16.0301L11.5515 16.0295L11.5534 16.0281L11.5581 16.0245L11.5717 16.0139C11.5826 16.0053 11.597 15.9936 11.6145 15.9789C11.6494 15.9496 11.6968 15.9081 11.7523 15.8549C11.863 15.7488 12.0087 15.5939 12.1545 15.3934Z" fill="white"/>
<path d="M10.7501 13.6306C10.7501 14.1271 10.5813 14.4857 10.3905 14.7242C10.2977 14.8403 10.2032 14.9235 10.1282 14.9798C10.0906 15.008 10.0574 15.0298 10.0311 15.0458C10.0179 15.0538 10.0063 15.0604 9.99668 15.0657C9.99186 15.0683 9.98752 15.0707 9.98368 15.0727L9.97831 15.0755L9.97591 15.0767L9.97479 15.0772L9.97425 15.0775C9.97425 15.0775 10.0575 15.0292 9.97372 15.0778C9.72673 15.2013 9.42639 15.1012 9.3029 14.8542C9.18158 14.6116 9.27605 14.3174 9.51356 14.1901C9.516 14.1885 9.52112 14.1851 9.52823 14.1798C9.54699 14.1657 9.57754 14.1396 9.60968 14.0995C9.66886 14.0255 9.7501 13.8841 9.75011 13.6306C9.7501 13.3771 9.66886 13.2357 9.60968 13.1618C9.57754 13.1216 9.54699 13.0955 9.52823 13.0814C9.52112 13.0761 9.516 13.0727 9.51356 13.0712C9.27605 12.9438 9.18158 12.6497 9.3029 12.407C9.42639 12.1601 9.72673 12.0599 9.97372 12.1834C10.0575 12.232 9.97425 12.1837 9.97425 12.1837L9.97479 12.184L9.97591 12.1845L9.97831 12.1858L9.98368 12.1885C9.98752 12.1906 9.99186 12.1929 9.99668 12.1955C10.0063 12.2008 10.0179 12.2075 10.0311 12.2155C10.0574 12.2315 10.0906 12.2532 10.1282 12.2814C10.2032 12.3377 10.2977 12.421 10.3905 12.5371C10.5813 12.7756 10.7501 13.1342 10.7501 13.6306Z" fill="white"/>
</g>
<path fill-rule="evenodd" clip-rule="evenodd" d="M22 18.7032L22 18.9639C22 20.4751 20.8083 21.6306 19.25 21.6306H2.75C1.19167 21.6306 0 20.4751 0 18.9639V8.29728C0 7.19927 0.629183 6.28898 1.57104 5.87335C1.9028 5.66044 2.29095 5.51235 2.72037 5.44879L19.0426 3.03322C20.5841 2.80508 21.9321 3.77373 22.1534 5.26856L23.7149 15.8203C23.9052 17.1056 23.1854 18.2598 22 18.7032ZM11.2499 5.63062H19.25C19.8735 5.63062 20.4383 5.8156 20.8915 6.13431L20.7932 5.46986C20.7008 4.84576 20.132 4.31613 19.2517 4.4464L11.2499 5.63062ZM22 13.6244L22.3548 16.0216C22.41 16.3951 22.2922 16.7856 22 17.0669L22 13.6244ZM19.25 20.202H2.75C1.86017 20.202 1.375 19.5949 1.375 18.9639V8.29728C1.375 7.66638 1.86017 7.05919 2.75 7.05919H19.25C20.1398 7.05919 20.625 7.66638 20.625 8.29728V18.9639C20.625 19.5948 20.1398 20.202 19.25 20.202Z" fill="white"/>
<defs>
<clipPath id="clip0_5109_477415">
<rect width="12" height="12" fill="white" transform="translate(7 7.63062)"/>
</clipPath>
</defs>
</svg>
