<svg width="64" height="64" viewBox="0 0 64 64" fill="none" xmlns="http://www.w3.org/2000/svg">
<path d="M32.0002 19.3334C36.3979 19.3334 39.4918 20.5862 41.468 21.8023C42.4605 22.413 43.1778 23.019 43.6392 23.4619C43.8698 23.6833 44.0359 23.8634 44.1399 23.9822C44.1918 24.0416 44.2282 24.0856 44.2493 24.1117L44.2694 24.137L44.2706 24.1385C44.7134 24.7232 45.546 24.8406 46.1334 24.4C46.7225 23.9582 46.8419 23.1225 46.4001 22.5334L46.3992 22.5321L46.3981 22.5308L46.3958 22.5277L46.39 22.5201L46.3739 22.4992C46.3611 22.4827 46.3442 22.4613 46.3231 22.4353C46.2811 22.3832 46.2224 22.3126 46.1467 22.2262C45.9955 22.0534 45.7762 21.8168 45.486 21.5382C44.9057 20.9811 44.0397 20.2537 42.8655 19.5312C40.5084 18.0806 36.9357 16.6667 32.0002 16.6667C27.0647 16.6667 23.4919 18.0806 21.1348 19.5312C19.9606 20.2537 19.0946 20.9811 18.5144 21.5382C18.2241 21.8168 18.0048 22.0534 17.8536 22.2262C17.7779 22.3126 17.7193 22.3832 17.6772 22.4353C17.6561 22.4613 17.6392 22.4827 17.6264 22.4992L17.6103 22.5201L17.6045 22.5277L17.6022 22.5308L17.6012 22.5321L17.6002 22.5334C17.1584 23.1225 17.2778 23.9582 17.8669 24.4C18.4543 24.8406 19.2869 24.7232 19.7297 24.1385L19.7309 24.137L19.751 24.1117C19.7721 24.0856 19.8085 24.0416 19.8604 23.9822C19.9644 23.8634 20.1305 23.6832 20.3611 23.4619C20.8225 23.019 21.5399 22.413 22.5324 21.8023C24.5085 20.5862 27.6024 19.3334 32.0002 19.3334Z" fill="url(#paint0_linear_3152_279607)"/>
<path d="M39.3527 24.19C37.568 23.1192 34.9947 22.0001 32.0002 22C29.0057 22.0001 26.4324 23.1192 24.6476 24.19C23.7484 24.7295 23.0289 25.269 22.5309 25.6764C22.2814 25.8806 22.0861 26.0527 21.9502 26.1769C21.8822 26.2389 21.8289 26.2891 21.791 26.3254C21.7721 26.3435 21.757 26.3582 21.7458 26.3691L21.732 26.3827L21.7273 26.3874L21.7255 26.3892L21.78 26.3391L21.7241 26.3906C21.2034 26.9113 21.2034 27.7555 21.7241 28.2762C22.2441 28.7962 23.0868 28.7969 23.6077 28.2782L23.6089 28.277L23.6113 28.2747L23.6352 28.2515C23.6586 28.2292 23.6964 28.1934 23.7482 28.1461C23.8519 28.0515 24.0107 27.9112 24.2196 27.7403C24.6383 27.3977 25.2521 26.9372 26.0196 26.4767C27.5681 25.5476 29.6614 24.6667 32.0002 24.6667C34.339 24.6667 36.4323 25.5476 37.9808 26.4767C38.7483 26.9372 39.3621 27.3977 39.7808 27.7403C39.9896 27.9112 40.1485 28.0515 40.2521 28.1461C40.3039 28.1934 40.3418 28.2292 40.3651 28.2515L40.3891 28.2747L40.3914 28.277L40.3926 28.2782C40.9135 28.7969 41.7562 28.7962 42.2762 28.2762C42.7969 27.7555 42.7969 26.9113 42.2762 26.3906L42.2204 26.3391L42.2748 26.3892L42.273 26.3874L42.2683 26.3827L42.2545 26.3691C42.2433 26.3582 42.2282 26.3435 42.2093 26.3254C42.1714 26.2891 42.1182 26.2389 42.0502 26.1769C41.9142 26.0527 41.7189 25.8806 41.4694 25.6764C40.9714 25.269 40.2519 24.7295 39.3527 24.19Z" fill="url(#paint1_linear_3152_279607)"/>
<path d="M36.701 28.9217C35.6371 28.148 34.0342 27.3334 32.0002 27.3334C29.9662 27.3334 28.3632 28.148 27.2993 28.9217C26.7648 29.3105 26.3516 29.6991 26.0688 29.9942C25.9269 30.1423 25.8162 30.2685 25.7381 30.3616C25.6989 30.4083 25.6678 30.4468 25.6448 30.4758L25.6164 30.5122L25.6068 30.5247L25.6031 30.5295L25.6016 30.5316C25.6016 30.5316 25.8244 30.2609 25.6002 30.5334C25.1584 31.1225 25.2778 31.9582 25.8669 32.4C26.4542 32.8405 27.2865 32.7232 27.7294 32.1389L27.7356 32.131C27.7435 32.121 27.7586 32.1022 27.7807 32.076C27.8249 32.0233 27.8965 31.9411 27.9941 31.8392C28.1905 31.6343 28.4857 31.3563 28.8678 31.0784C29.6372 30.5188 30.7009 30.0001 32.0002 30C33.2994 30.0001 34.3631 30.5188 35.1325 31.0784C35.5147 31.3563 35.8098 31.6343 36.0062 31.8392C36.1038 31.9411 36.1755 32.0233 36.2197 32.076C36.2417 32.1022 36.2568 32.121 36.2647 32.131L36.2709 32.1389C36.7138 32.7232 37.5462 32.8405 38.1334 32.4C38.7225 31.9582 38.8419 31.1225 38.4001 30.5334C38.1759 30.2609 38.3987 30.5316 38.3987 30.5316L38.3972 30.5295L38.3935 30.5247L38.3839 30.5122L38.3555 30.4758C38.3325 30.4468 38.3014 30.4083 38.2623 30.3616C38.1841 30.2685 38.0734 30.1423 37.9315 29.9942C37.6487 29.6991 37.2355 29.3105 36.701 28.9217Z" fill="url(#paint2_linear_3152_279607)"/>
<path d="M32.0002 32.6667C33.324 32.6667 34.2803 33.1167 34.9163 33.6255C35.2259 33.8732 35.448 34.125 35.598 34.325C35.6732 34.4253 35.7312 34.5138 35.7739 34.5841C35.7953 34.6193 35.8129 34.6501 35.827 34.6758C35.8341 34.6887 35.8403 34.7003 35.8457 34.7105L35.8531 34.7248L35.8563 34.7312L35.8579 34.7342L35.8586 34.7357C35.8586 34.7357 35.7298 34.5138 35.8593 34.7371C36.1886 35.3957 35.9216 36.1966 35.263 36.5259C34.616 36.8494 33.8317 36.5975 33.492 35.9642C33.4879 35.9577 33.4789 35.944 33.4646 35.925C33.4271 35.875 33.3576 35.7935 33.2505 35.7079C33.0532 35.55 32.6762 35.3334 32.0002 35.3334C31.3242 35.3334 30.9471 35.55 30.7499 35.7079C30.6428 35.7935 30.5732 35.875 30.5357 35.925C30.5214 35.944 30.5124 35.9577 30.5083 35.9642C30.1686 36.5975 29.3843 36.8494 28.7373 36.5259C28.0787 36.1966 27.8117 35.3957 28.141 34.7371C28.2705 34.5138 28.1417 34.7357 28.1417 34.7357L28.1425 34.7342L28.144 34.7312L28.1472 34.7248L28.1547 34.7105C28.16 34.7003 28.1662 34.6887 28.1733 34.6758C28.1874 34.6501 28.2051 34.6193 28.2264 34.5841C28.2691 34.5138 28.3271 34.4253 28.4024 34.325C28.5523 34.125 28.7744 33.8732 29.084 33.6255C29.72 33.1167 30.6764 32.6667 32.0002 32.6667Z" fill="url(#paint3_linear_3152_279607)"/>
<path fill-rule="evenodd" clip-rule="evenodd" d="M49.5236 53.9997L49.5236 9.99968C49.5236 7.62679 47.9045 6.33301 46.2221 6.33301L17.7776 6.33301C16.0952 6.33301 14.476 7.62679 14.476 9.99968L14.476 53.9997C14.476 56.3726 16.0952 57.6663 17.7776 57.6663L46.2221 57.6663C47.9045 57.6663 49.5236 56.3726 49.5236 53.9997ZM53.3332 53.9997L53.3332 9.99968C53.3332 5.84412 50.2517 2.66634 46.2221 2.66634L17.7776 2.66634C13.748 2.66634 10.6665 5.84412 10.6665 9.99968L10.6665 53.9997C10.6665 58.1552 13.748 61.333 17.7776 61.333L46.2221 61.333C50.2517 61.333 53.3332 58.1552 53.3332 53.9997Z" fill="url(#paint4_linear_3152_279607)"/>
<defs>
<linearGradient id="paint0_linear_3152_279607" x1="32.4867" y1="34.7157" x2="32.4867" y2="19.591" gradientUnits="userSpaceOnUse">
<stop stop-color="#231F20"/>
<stop offset="1" stop-color="#747374"/>
</linearGradient>
<linearGradient id="paint1_linear_3152_279607" x1="32.4867" y1="34.7157" x2="32.4867" y2="19.591" gradientUnits="userSpaceOnUse">
<stop stop-color="#231F20"/>
<stop offset="1" stop-color="#747374"/>
</linearGradient>
<linearGradient id="paint2_linear_3152_279607" x1="32.4867" y1="34.7157" x2="32.4867" y2="19.591" gradientUnits="userSpaceOnUse">
<stop stop-color="#231F20"/>
<stop offset="1" stop-color="#747374"/>
</linearGradient>
<linearGradient id="paint3_linear_3152_279607" x1="32.4867" y1="34.7157" x2="32.4867" y2="19.591" gradientUnits="userSpaceOnUse">
<stop stop-color="#231F20"/>
<stop offset="1" stop-color="#747374"/>
</linearGradient>
<linearGradient id="paint4_linear_3152_279607" x1="32.7075" y1="58.4947" x2="32.7075" y2="6.91986" gradientUnits="userSpaceOnUse">
<stop stop-color="#231F20"/>
<stop offset="1" stop-color="#747374"/>
</linearGradient>
</defs>
</svg>
