<svg width="24" height="24" viewBox="0 0 24 24" fill="none" xmlns="http://www.w3.org/2000/svg">
<g clip-path="url(#clip0_10411_168)">
<path d="M12 7.24989C13.6492 7.2499 14.8094 7.71969 15.5504 8.17572C15.9226 8.40476 16.1916 8.63199 16.3646 8.79809C16.4511 8.8811 16.5134 8.94864 16.5524 8.99321C16.5719 9.01548 16.5855 9.03198 16.5934 9.04175L16.601 9.05124L16.6014 9.05181C16.7675 9.27107 17.0797 9.3151 17.3 9.14989C17.5209 8.98421 17.5657 8.67081 17.4 8.44989L17.3996 8.44943L17.3992 8.44893L17.3984 8.44778L17.3962 8.44492L17.3902 8.43708C17.3853 8.43091 17.379 8.42288 17.3711 8.41311C17.3553 8.39359 17.3333 8.36712 17.305 8.3347C17.2483 8.2699 17.166 8.18119 17.0572 8.0767C16.8396 7.8678 16.5148 7.59502 16.0745 7.32407C15.1906 6.78011 13.8508 6.2499 12 6.24989C10.1492 6.2499 8.80941 6.78011 7.92548 7.32406C7.48517 7.59502 7.16043 7.8678 6.94283 8.0767C6.83398 8.18119 6.75174 8.26989 6.69503 8.3347C6.66667 8.36712 6.64466 8.39359 6.62888 8.41311C6.62099 8.42288 6.61465 8.43091 6.60985 8.43708L6.60379 8.44492L6.60163 8.44777L6.60076 8.44893L6.60038 8.44943L6.60003 8.44989C6.43434 8.67081 6.47912 8.98421 6.70003 9.14989C6.9203 9.3151 7.23253 9.27106 7.39858 9.05181L7.39903 9.05124L7.40658 9.04175C7.41448 9.03198 7.42812 9.01548 7.44761 8.99321C7.4866 8.94864 7.54889 8.8811 7.63536 8.79809C7.80838 8.63199 8.07739 8.40476 8.44958 8.17572C9.19064 7.71969 10.3509 7.2499 12 7.24989Z" fill="white"/>
<path d="M14.7572 9.07115C14.0879 8.66957 13.1229 8.2499 12 8.24989C10.8771 8.2499 9.91208 8.66957 9.24278 9.07115C8.90559 9.27346 8.63577 9.47576 8.44903 9.62854C8.35547 9.70509 8.28223 9.76965 8.23125 9.8162C8.20575 9.83948 8.18578 9.8583 8.17158 9.87189C8.16448 9.87869 8.15881 9.88419 8.15462 9.8883L8.14944 9.8934L8.14768 9.89514L8.14701 9.89581L8.16742 9.87705L8.14648 9.89634C7.95121 10.0916 7.95121 10.4082 8.14648 10.6034C8.34149 10.7985 8.65751 10.7987 8.85283 10.6042L8.85328 10.6037L8.85416 10.6029L8.86315 10.5942C8.8719 10.5858 8.8861 10.5724 8.90552 10.5547C8.94439 10.5192 9.00396 10.4666 9.08227 10.4025C9.23929 10.274 9.46946 10.1013 9.75728 9.92864C10.338 9.58023 11.123 9.2499 12 9.24989C12.8771 9.2499 13.662 9.58023 14.2427 9.92864C14.5305 10.1013 14.7607 10.274 14.9177 10.4025C14.996 10.4666 15.0556 10.5192 15.0945 10.5547C15.1139 10.5724 15.1281 10.5858 15.1369 10.5942L15.1458 10.6029L15.1467 10.6037L15.1472 10.6042C15.3425 10.7987 15.6585 10.7985 15.8535 10.6034C16.0488 10.4082 16.0488 10.0916 15.8535 9.89634L15.8326 9.87705L15.853 9.89581L15.8523 9.89514L15.8506 9.8934L15.8454 9.8883C15.8412 9.88419 15.8355 9.87869 15.8284 9.87189C15.8142 9.8583 15.7942 9.83948 15.7687 9.8162C15.7178 9.76965 15.6445 9.70509 15.551 9.62854C15.3642 9.47576 15.0944 9.27346 14.7572 9.07115Z" fill="white"/>
<path d="M13.7628 10.8455C13.3638 10.5554 12.7628 10.2499 12 10.2499C11.2373 10.2499 10.6362 10.5554 10.2372 10.8455C10.0367 10.9913 9.88179 11.137 9.77575 11.2477C9.72253 11.3032 9.68103 11.3506 9.65171 11.3855C9.63703 11.403 9.62535 11.4174 9.61673 11.4283L9.60608 11.4419L9.60248 11.4466L9.60111 11.4485L9.60053 11.4492C9.60053 11.4492 9.68409 11.3477 9.60003 11.4499C9.43434 11.6708 9.47911 11.9842 9.70003 12.1499C9.92025 12.3151 10.2324 12.2711 10.3985 12.052L10.4008 12.049C10.4038 12.0453 10.4094 12.0382 10.4177 12.0284C10.4343 12.0086 10.4611 11.9778 10.4977 11.9396C10.5714 11.8627 10.6821 11.7585 10.8254 11.6543C11.1139 11.4444 11.5128 11.2499 12 11.2499C12.4872 11.2499 12.8861 11.4444 13.1746 11.6543C13.3179 11.7585 13.4286 11.8627 13.5023 11.9396C13.5389 11.9778 13.5657 12.0086 13.5823 12.0284C13.5906 12.0382 13.5962 12.0453 13.5992 12.049L13.6015 12.052C13.7676 12.2711 14.0798 12.3151 14.3 12.1499C14.5209 11.9842 14.5657 11.6708 14.4 11.4499C14.3159 11.3477 14.3995 11.4492 14.3995 11.4492L14.3989 11.4485L14.3975 11.4466L14.3939 11.4419L14.3833 11.4283C14.3746 11.4174 14.363 11.403 14.3483 11.3855C14.319 11.3506 14.2775 11.3032 14.2242 11.2477C14.1182 11.137 13.9633 10.9913 13.7628 10.8455Z" fill="white"/>
<path d="M12 12.2499C12.4964 12.2499 12.855 12.4187 13.0936 12.6095C13.2096 12.7023 13.2929 12.7968 13.3492 12.8718C13.3774 12.9094 13.3991 12.9426 13.4151 12.9689C13.4232 12.9821 13.4298 12.9937 13.4351 13.0033C13.4377 13.0081 13.4401 13.0125 13.4421 13.0163L13.4448 13.0217L13.4461 13.0241L13.4466 13.0252L13.4469 13.0258C13.4469 13.0258 13.3986 12.9425 13.4472 13.0263C13.5707 13.2733 13.4706 13.5736 13.2236 13.6971C12.9809 13.8184 12.6868 13.724 12.5595 13.4864C12.5579 13.484 12.5545 13.4789 12.5492 13.4718C12.5351 13.453 12.509 13.4225 12.4689 13.3903C12.3949 13.3311 12.2535 13.2499 12 13.2499C11.7465 13.2499 11.6051 13.3311 11.5311 13.3903C11.491 13.4225 11.4649 13.453 11.4508 13.4718C11.4455 13.4789 11.4421 13.484 11.4405 13.4864C11.3132 13.724 11.0191 13.8184 10.7764 13.6971C10.5294 13.5736 10.4293 13.2733 10.5528 13.0263C10.6014 12.9425 10.5531 13.0258 10.5531 13.0258L10.5534 13.0252L10.5539 13.0241L10.5552 13.0217L10.5579 13.0163C10.5599 13.0125 10.5623 13.0081 10.5649 13.0033C10.5702 12.9937 10.5768 12.9821 10.5849 12.9689C10.6009 12.9426 10.6226 12.9094 10.6508 12.8718C10.7071 12.7968 10.7904 12.7023 10.9064 12.6095C11.1449 12.4187 11.5036 12.2499 12 12.2499Z" fill="white"/>
</g>
<path fill-rule="evenodd" clip-rule="evenodd" d="M18.5714 20.25L18.5714 3.75C18.5714 2.86017 17.9642 2.375 17.3333 2.375L6.66667 2.375C6.03577 2.375 5.42857 2.86017 5.42857 3.75L5.42857 20.25C5.42857 21.1398 6.03577 21.625 6.66667 21.625L17.3333 21.625C17.9642 21.625 18.5714 21.1398 18.5714 20.25ZM20 20.25L20 3.75C20 2.19167 18.8444 1 17.3333 1L6.66667 1C5.15556 1 4 2.19167 4 3.75L4 20.25C4 21.8083 5.15556 23 6.66667 23L17.3333 23C18.8444 23 20 21.8083 20 20.25Z" fill="white"/>
<defs>
<clipPath id="clip0_10411_168">
<rect width="12" height="12" fill="white" transform="translate(6 16) rotate(-90)"/>
</clipPath>
</defs>
</svg>
