<svg width="25" height="24" viewBox="0 0 25 24" fill="none" xmlns="http://www.w3.org/2000/svg">
<g clip-path="url(#clip0_10994_134956)">
<path fill-rule="evenodd" clip-rule="evenodd" d="M0.555344 0.291672C0.945869 -0.0988518 1.57903 -0.0988518 1.96956 0.291672L23.8726 22.1947C24.2631 22.5853 24.2631 23.2184 23.8726 23.6089C23.4821 23.9995 22.8489 23.9995 22.4584 23.6089L0.555344 1.70589C0.16482 1.31536 0.16482 0.682197 0.555344 0.291672Z" fill="#C2C1C1"/>
<path d="M14.4522 7.07515C14.9167 7.94834 13.9439 8.53061 13.2446 7.83125L10.8725 5.45922C10.6779 5.08278 10.7384 4.60861 11.0541 4.29295C11.4446 3.90243 12.0778 3.90243 12.4683 4.29295L12.5069 4.33485L12.4694 4.29401L12.4707 4.29535L12.4742 4.29887L12.4844 4.30924C12.4926 4.31763 12.5036 4.32895 12.5172 4.34315C12.5444 4.37155 12.582 4.4115 12.6286 4.46251C12.7217 4.56446 12.8508 4.71095 13.0039 4.89807C13.3095 5.27153 13.7141 5.81119 14.1187 6.48556C14.2299 6.67098 14.3419 6.86776 14.4522 7.07515Z" fill="#C2C1C1"/>
<path d="M18.1573 12.9095C18.6823 13.5373 19.7489 13.0694 19.7596 12.2511C19.7606 12.168 19.7612 12.0843 19.7612 12C19.7612 8.29843 18.7008 5.61881 17.6129 3.85096C17.0709 2.97034 16.5254 2.32086 16.1076 1.88565C15.8986 1.66796 15.7212 1.50348 15.5916 1.39006C15.5268 1.33333 15.4738 1.28932 15.4348 1.25776C15.4152 1.24198 15.3992 1.2293 15.3868 1.2197L15.3711 1.20759L15.3654 1.20325L15.3631 1.20151L15.3621 1.20075L15.3612 1.20006C14.9194 0.868688 14.2926 0.95823 13.9612 1.40006C13.6308 1.8406 13.7189 2.46505 14.1574 2.79717L14.1585 2.79806L14.1775 2.81316C14.197 2.82896 14.23 2.85624 14.2746 2.89521C14.3637 2.9732 14.4988 3.09778 14.6648 3.27072C14.997 3.61676 15.4515 4.15477 15.9095 4.89916C16.8216 6.38128 17.7612 8.7017 17.7612 12C17.7612 12.3257 17.9223 12.6285 18.1573 12.9095Z" fill="#C2C1C1"/>
<path d="M7.78158 7.79801C7.70641 8.16374 7.84013 8.5567 8.15703 8.79692L8.16296 8.80156C8.17048 8.80751 8.18455 8.81882 8.20427 8.83537C8.24377 8.86852 8.30537 8.92225 8.38179 8.99548C8.5355 9.14278 8.74402 9.36413 8.95246 9.65073C9.37213 10.2278 9.76118 11.0256 9.7612 12C9.76118 12.9745 9.37213 13.7722 8.95246 14.3493C8.74402 14.6359 8.5355 14.8572 8.38179 15.0045C8.30537 15.0778 8.24376 15.1315 8.20426 15.1646C8.18455 15.1812 8.17048 15.1925 8.16296 15.1984L8.15703 15.2031C7.71881 15.5353 7.63087 16.1595 7.9612 16.5999C8.29257 17.0418 8.91937 17.1313 9.3612 16.7999C9.56557 16.6318 9.36254 16.7989 9.36254 16.7989L9.36407 16.7978L9.36769 16.795L9.37711 16.7878L9.40436 16.7665C9.42614 16.7493 9.45503 16.7259 9.49001 16.6966C9.55988 16.6379 9.65452 16.5549 9.7656 16.4485C9.9869 16.2364 10.2784 15.9265 10.5699 15.5256C11.1502 14.7277 11.7612 13.5255 11.7612 12C11.7612 11.9369 11.7601 11.8744 11.7581 11.8124L7.78158 7.79801Z" fill="#C2C1C1"/>
<path d="M13.5732 13.6447L15.1823 15.2692C14.88 16.1287 14.4954 16.8866 14.1187 17.5144C13.7141 18.1888 13.3095 18.7285 13.0039 19.1019C12.8508 19.289 12.7217 19.4355 12.6286 19.5375C12.582 19.5885 12.5444 19.6284 12.5172 19.6568C12.5036 19.671 12.4926 19.6824 12.4844 19.6908L12.4742 19.7011L12.4707 19.7046L12.4694 19.706L12.5069 19.6652L12.4683 19.707C12.0778 20.0976 11.4446 20.0976 11.0541 19.707C10.6641 19.317 10.6636 18.685 11.0526 18.2943L11.0535 18.2934L11.0552 18.2917L11.0726 18.2737C11.0893 18.2562 11.1162 18.2278 11.1516 18.189C11.2226 18.1112 11.3278 17.9921 11.456 17.8355C11.7129 17.5214 12.0583 17.0611 12.4037 16.4854C12.874 15.7016 13.3278 14.7317 13.5732 13.6447Z" fill="#C2C1C1"/>
<path d="M16.9159 17.0194L18.4462 18.5642C18.1828 19.1568 17.8988 19.6844 17.6129 20.149C17.0709 21.0297 16.5254 21.6791 16.1076 22.1143C15.8986 22.332 15.7212 22.4965 15.5916 22.6099C15.5267 22.6667 15.4738 22.7107 15.4348 22.7422C15.4152 22.758 15.3992 22.7707 15.3868 22.7803L15.3711 22.7924L15.3654 22.7967L15.3631 22.7985L15.3621 22.7992L15.3612 22.7999C14.9194 23.1313 14.2926 23.0418 13.9612 22.5999C13.6308 22.1594 13.7189 21.5349 14.1574 21.2028L14.1585 21.2019L14.1775 21.1868C14.197 21.171 14.23 21.1438 14.2746 21.1048C14.3637 21.0268 14.4988 20.9022 14.6648 20.7293C14.997 20.3832 15.4515 19.8452 15.9095 19.1008C16.2591 18.5328 16.6127 17.8416 16.9159 17.0194Z" fill="#C2C1C1"/>
<path d="M7.76121 12C7.76118 12.9929 7.42369 13.7101 7.04207 14.1871C6.85634 14.4193 6.66745 14.5859 6.51746 14.6984C6.44224 14.7548 6.37587 14.7983 6.32315 14.8303C6.29675 14.8463 6.27362 14.8596 6.25435 14.8702C6.24471 14.8755 6.23602 14.8801 6.22835 14.8841L6.2176 14.8897L6.21281 14.8921L6.21057 14.8933L6.20948 14.8938C6.20948 14.8938 6.37589 14.7972 6.20842 14.8943C5.71444 15.1413 5.11377 14.9411 4.86678 14.4471C4.62415 13.9619 4.81308 13.3737 5.2881 13.1189C5.29298 13.1158 5.30322 13.109 5.31746 13.0984C5.35496 13.0702 5.41607 13.0181 5.48034 12.9377C5.5987 12.7898 5.76118 12.507 5.76121 12C5.76118 11.493 5.5987 11.2102 5.48034 11.0623C5.41607 10.9819 5.35496 10.9298 5.31746 10.9016C5.30322 10.891 5.29298 10.8842 5.2881 10.8811C4.81308 10.6263 4.62415 10.0381 4.86678 9.55287C5.11377 9.05889 5.71444 8.85866 6.20842 9.10565C6.37589 9.20278 6.20948 9.10618 6.20948 9.10618L6.21057 9.10673L6.21281 9.10786L6.2176 9.1103L6.22835 9.11587C6.23602 9.11989 6.24472 9.12455 6.25436 9.12985C6.27363 9.14044 6.29675 9.15368 6.32315 9.16971C6.37587 9.20172 6.44224 9.24523 6.51746 9.30164C6.66745 9.41414 6.85634 9.58072 7.04207 9.81289C7.42369 10.2899 7.76118 11.0072 7.76121 12Z" fill="#C2C1C1"/>
</g>
<defs>
<clipPath id="clip0_10994_134956">
<rect width="24" height="24" fill="white" transform="translate(0.260986)"/>
</clipPath>
</defs>
</svg>
