<svg width="24" height="24" viewBox="0 0 24 24" fill="none" xmlns="http://www.w3.org/2000/svg">
<path d="M17.0002 12C17.0002 15.2983 16.0606 17.6187 15.1486 19.1008C14.6905 19.8452 14.236 20.3832 13.9038 20.7293C13.7378 20.9022 13.6027 21.0268 13.5136 21.1048C13.469 21.1438 13.436 21.171 13.4165 21.1868L13.3975 21.2019L13.3964 21.2028C12.9579 21.5349 12.8698 22.1594 13.2002 22.5999C13.5316 23.0418 14.1584 23.1313 14.6002 22.7999L14.6011 22.7992L14.6021 22.7985L14.6045 22.7967L14.6102 22.7924L14.6258 22.7803C14.6382 22.7707 14.6542 22.758 14.6738 22.7422C14.7128 22.7107 14.7658 22.6667 14.8306 22.6099C14.9602 22.4965 15.1376 22.332 15.3466 22.1143C15.7644 21.6791 16.31 21.0297 16.8519 20.149C17.9398 18.3812 19.0002 15.7016 19.0002 12C19.0002 8.29843 17.9398 5.61881 16.8519 3.85096C16.31 2.97034 15.7644 2.32086 15.3466 1.88565C15.1376 1.66796 14.9602 1.50348 14.8306 1.39006C14.7658 1.33333 14.7128 1.28932 14.6738 1.25776C14.6542 1.24198 14.6382 1.2293 14.6258 1.2197L14.6102 1.20759L14.6045 1.20325L14.6021 1.20151L14.6011 1.20075L14.6002 1.20006C14.1584 0.868688 13.5316 0.95823 13.2002 1.40006C12.8698 1.8406 12.9579 2.46505 13.3964 2.79717L13.3975 2.79806L13.4165 2.81316C13.436 2.82896 13.469 2.85624 13.5136 2.89521C13.6027 2.9732 13.7378 3.09778 13.9038 3.27072C14.236 3.61676 14.6905 4.15477 15.1486 4.89916C16.0606 6.38128 17.0002 8.7017 17.0002 12Z" fill="white"/>
<path d="M13.3577 17.5144C14.1609 16.1758 15.0002 14.2459 15.0002 12C15.0002 9.75417 14.1609 7.82415 13.3577 6.48556C12.9531 5.81119 12.5485 5.27153 12.2429 4.89807C12.0898 4.71095 11.9607 4.56446 11.8676 4.46251C11.821 4.4115 11.7834 4.37155 11.7562 4.34315C11.7426 4.32895 11.7316 4.31763 11.7234 4.30924L11.7132 4.29887L11.7097 4.29535L11.7084 4.29401L11.7459 4.33485L11.7073 4.29295C11.3168 3.90243 10.6836 3.90243 10.2931 4.29295C9.90309 4.68298 9.90259 5.31501 10.2916 5.70566L10.2925 5.70656L10.2942 5.70833L10.3116 5.7263C10.3284 5.74379 10.3552 5.77221 10.3906 5.81105C10.4616 5.88878 10.5669 6.00791 10.695 6.16454C10.9519 6.47858 11.2973 6.93892 11.6427 7.51455C12.3395 8.67593 13.0002 10.2459 13.0002 12C13.0002 13.7541 12.3395 15.3241 11.6427 16.4854C11.2973 17.0611 10.9519 17.5214 10.695 17.8355C10.5669 17.9921 10.4616 18.1112 10.3906 18.189C10.3552 18.2278 10.3284 18.2562 10.3116 18.2737L10.2942 18.2917L10.2925 18.2934L10.2916 18.2943C9.90258 18.685 9.90308 19.317 10.2931 19.707C10.6836 20.0976 11.3168 20.0976 11.7073 19.707L11.7459 19.6652L11.7084 19.706L11.7097 19.7046L11.7132 19.7011L11.7234 19.6908C11.7316 19.6824 11.7426 19.671 11.7562 19.6568C11.7834 19.6284 11.821 19.5885 11.8676 19.5375C11.9607 19.4355 12.0898 19.289 12.2429 19.1019C12.5485 18.7285 12.9531 18.1888 13.3577 17.5144Z" fill="white"/>
<path d="M9.80895 15.5256C10.3893 14.7277 11.0002 13.5255 11.0002 12C11.0002 10.4745 10.3893 9.27231 9.80895 8.47439C9.51739 8.07349 9.22591 7.76358 9.00462 7.55151C8.89354 7.44506 8.7989 7.36206 8.72902 7.30342C8.69404 7.27406 8.66515 7.25071 8.64338 7.23347L8.61612 7.21217L8.60671 7.20496L8.60309 7.20222L8.60156 7.20107C8.60156 7.20107 8.80458 7.36817 8.60021 7.20006C8.15838 6.86869 7.53158 6.95823 7.20021 7.40006C6.86989 7.84049 6.95782 8.46474 7.39605 8.79692L7.40197 8.80156C7.40949 8.80751 7.42357 8.81882 7.44328 8.83537C7.48278 8.86852 7.54439 8.92225 7.62081 8.99548C7.77451 9.14278 7.98304 9.36413 8.19148 9.65073C8.61115 10.2278 9.00019 11.0256 9.00021 12C9.00019 12.9745 8.61115 13.7722 8.19148 14.3493C7.98304 14.6359 7.77451 14.8572 7.62081 15.0045C7.54438 15.0778 7.48278 15.1315 7.44328 15.1646C7.42357 15.1812 7.40949 15.1925 7.40197 15.1984L7.39604 15.2031C6.95782 15.5353 6.86989 16.1595 7.20021 16.5999C7.53158 17.0418 8.15838 17.1313 8.60021 16.7999C8.80458 16.6318 8.60156 16.7989 8.60156 16.7989L8.60309 16.7978L8.6067 16.795L8.61612 16.7878L8.64338 16.7665C8.66515 16.7493 8.69404 16.7259 8.72902 16.6966C8.79889 16.6379 8.89354 16.5549 9.00462 16.4485C9.22591 16.2364 9.51739 15.9265 9.80895 15.5256Z" fill="white"/>
<path d="M7.00022 12C7.0002 12.9929 6.6627 13.7101 6.28109 14.1871C6.09535 14.4193 5.90646 14.5859 5.75647 14.6984C5.68125 14.7548 5.61489 14.7983 5.56217 14.8303C5.53576 14.8463 5.51264 14.8596 5.49337 14.8702C5.48373 14.8755 5.47504 14.8801 5.46736 14.8841L5.45662 14.8897L5.45183 14.8921L5.44958 14.8933L5.44849 14.8938C5.44849 14.8938 5.6149 14.7972 5.44743 14.8943C4.95345 15.1413 4.35278 14.9411 4.10579 14.4471C3.86316 13.9619 4.0521 13.3737 4.52712 13.1189C4.53199 13.1158 4.54223 13.109 4.55647 13.0984C4.59398 13.0702 4.65509 13.0181 4.71935 12.9377C4.83772 12.7898 5.0002 12.507 5.00022 12C5.0002 11.493 4.83772 11.2102 4.71935 11.0623C4.65509 10.9819 4.59398 10.9298 4.55647 10.9016C4.54223 10.891 4.53199 10.8842 4.52712 10.8811C4.0521 10.6263 3.86316 10.0381 4.10579 9.55287C4.35278 9.05889 4.95345 8.85866 5.44743 9.10565C5.6149 9.20278 5.44849 9.10618 5.44849 9.10618L5.44958 9.10673L5.45183 9.10786L5.45662 9.1103L5.46736 9.11587C5.47504 9.11989 5.48373 9.12455 5.49337 9.12985C5.51264 9.14044 5.53576 9.15368 5.56217 9.16971C5.61489 9.20172 5.68125 9.24523 5.75647 9.30164C5.90646 9.41414 6.09535 9.58072 6.28109 9.81289C6.6627 10.2899 7.0002 11.0072 7.00022 12Z" fill="white"/>
</svg>
