<?xml version="1.0" encoding="UTF-8"?>
<svg version="1.1" viewBox="0 0 24 24" xmlns="http://www.w3.org/2000/svg">
<path d="m20.698 0.36514c0.0454 0.0366 0.0905 0.0744 0.13521 0.11212 0.26457 0.20594 0.63466 0.28692 0.95346 0.37706l0.0843 0.0238c0.0535 0.0147 0.10663 0.0293 0.16013 0.0432 0.15977 0.0436 0.2675 0.10113 0.38915 0.21326l-0.36643 0.0733c0.0898 0.17955 0.1517 0.18212 0.32979 0.2565l0.0366 0.10993c-0.13558 0.0451-0.262 0.0421-0.40307 0.0432l-0.18102 3e-3 -0.28215 3e-3c-0.75669 0-0.75669 0-1.4423 0.28105-0.0751 0.15024-0.0458 0.30047 2e-3 0.45584 0.14657 0.30048 0.40454 0.48955 0.66617 0.68523 0.1594 0.11982 0.31367 0.24624 0.46757 0.37266l0.0799 0.0652c0.18652 0.1539 0.3591 0.31549 0.51777 0.49834l0.0568 0.0645c0.0418 0.0568 0.0418 0.0568 0.0418 0.13009h0.0733c0.10993 0.2107 0.10993 0.2107 0.10993 0.29314h0.0733c0.35324 0.84023 0.4214 1.7266 0.0953 2.5903a5.3015 5.3015 0 0 1-0.16855 0.34115l-0.0528 0.10333c-0.21326 0.40711-0.4727 0.80799-0.79003 1.1425h-0.0733l-0.0297 0.0711c-0.0436 0.0755-0.0436 0.0755-0.15354 0.11212v0.0733c-0.0495 0.0476-0.0495 0.0476-0.11946 0.10114l-0.0777 0.0597-0.0843 0.0638-0.0865 0.0652a7.9809 7.9809 0 0 1-0.7314 0.47966c-0.10626 0.0652-0.21253 0.13081-0.31843 0.19714l-0.077 0.0476c-0.0964 0.0597-0.18395 0.11469-0.26419 0.19494-0.0125 0.1048-0.0125 0.1048-0.0125 0.22828l-3e-3 0.14108-1e-3 0.0747c-0.0169 0.94027-0.12569 1.6929-0.82594 2.3774a3.3921 3.3921 0 0 1-0.91608 0.58629l-0.11872 0.0557c-0.77574 0.34078-1.6123 0.38659-2.4478 0.40161l-0.23745 5e-3 -0.14107 3e-3c-0.13925 0.0114-0.25797 0.037-0.38952 0.0843-0.0451 0.0817-0.0451 0.0817-0.0733 0.18322-0.13631 0.22572-0.29021 0.34188-0.513 0.47856-0.2074 0.12825-0.3679 0.24038-0.51301 0.43752l-0.0714 0.0938-0.0638 0.0894-0.0645 0.0894a1.2679 1.2679 0 0 0-0.13008 0.31367c0.40307-0.11543 0.80358-0.23965 1.203-0.36863 0.22426-0.0722 0.44888-0.14291 0.67424-0.2118 0.13521-0.0414 0.27006-0.0835 0.4049-0.12568l0.39648-0.12349 0.20301-0.063c1.639-0.51227 1.639-0.51227 2.0399-0.33712 0.29132 0.17589 0.46611 0.4727 0.6354 0.75779 0.10626 0.17808 0.21986 0.35104 0.33345 0.52473l0.0616 0.0945 0.0594 0.0909 0.0561 0.0861c0.0451 0.0685 0.0912 0.13558 0.13778 0.20301a0.55991 0.55991 0 0 1 0.0975 0.31549c-0.0733 0.0733-0.0733 0.0733-0.18102 0.0755-0.30524-0.0535-0.58996-0.3067-0.80835-0.5152v-0.0733l-0.10993-0.0366c-0.14657-0.16343-0.14657-0.16343-0.14657-0.25651l-0.18322 0.0733 9e-3 0.1026 0.0114 0.13338 0.0117 0.13265 4e-3 0.10773-0.0367 0.0366c-0.16892 0-0.23745-0.0179-0.35947-0.13741-0.10406-0.16269-0.11726-0.34115-0.13668-0.52986-7e-3 -0.107-7e-3 -0.107-0.0901-0.17552-0.29314-0.0355-0.55808 0.0165-0.83583 0.10553l-0.11176 0.0341a35.907 35.907 0 0 0-0.51154 0.16123c-0.28948 0.0927-0.57896 0.18652-0.86845 0.28069-0.16892 0.055-0.33821 0.1092-0.50787 0.16269a26.962 26.962 0 0 1-0.72627 0.21693c-0.17515 0.0513-0.34298 0.11213-0.51007 0.18578-0.0689 0.0256-0.0689 0.0256-0.17882 0.0256v0.0733c-0.47856 0.2609-0.47856 0.2609-0.73286 0.2565a1.4555 1.4555 0 0 1-0.25651-0.10993v-0.0733l-0.10993-0.0367c-0.10773-0.16636-0.12752-0.31476-0.12385-0.5086l7.3e-4 -0.0781a1.1301 1.1301 0 0 1 0.12312-0.51264l0.0367-0.10993h0.0733l0.01-0.0674c0.0568-0.33785 0.2008-0.60901 0.39282-0.88933 0.0447-0.0828 0.0594-0.16013 0.074-0.25247-0.18981 0.0623-0.37962 0.12496-0.5687 0.18908a28.915 28.915 0 0 1-0.17332 0.0579c-0.31403 0.1048-0.58263 0.22352-0.84243 0.43422-0.11323 0.0905-0.22902 0.17735-0.34444 0.26493-0.10187 0.077-0.20337 0.15463-0.30488 0.23195a70.857 70.857 0 0 1-0.52766 0.39941 6.3319 6.3319 0 0 1-0.2074 0.14621c-0.21729 0.14767-0.35214 0.26126-0.43898 0.51154-0.12093 0.34444-0.34811 0.58885-0.67351 0.75595-0.11725 0.0546-0.18614 0.0868-0.31586 0.0868l-0.0366 0.10993h-0.0733l-0.0205 0.0733c-0.0645 0.13448-0.1517 0.22902-0.2521 0.33821-0.0597 0.0623-0.0597 0.0623-0.0938 0.13815h-0.0733l-0.0297 0.0894-0.0436 0.0938-0.10993 0.0367c-0.0249 0.0608-0.0491 0.12202-0.0733 0.18321a5.7731 5.7731 0 0 1-0.18322 0.24295c-0.13264 0.16819-0.13264 0.16819-0.2565 0.34335h-0.0733l-0.0733 0.18321h-0.0733l-0.0344 0.0872c-0.0388 0.096-0.0388 0.096-0.0755 0.16929h-0.0733l-0.0733 0.18322h-0.0733l-0.0271 0.0788c-0.0524 0.11836-0.11799 0.20814-0.19751 0.31074l-0.089 0.11689-0.0454 0.059c-0.34445 0.44925-0.34445 0.44925-0.63026 0.93697h-0.0733l-0.0279 0.077a2.4928 2.4928 0 0 1-0.18725 0.34225l-0.0755 0.12092-0.0759 0.11946-0.074 0.11726a1.0443 1.0443 0 0 1-0.20997 0.22609c-0.28581 0.24184-0.60901 0.52692-0.77866 0.86587h-0.0733l-0.0297 0.0986a1.4269 1.4269 0 0 1-0.15354 0.30451 1.8516 1.8516 0 0 0-0.16489 0.32063l-0.055 0.11909-0.10993 0.0366c-0.1561-0.14108-0.17772-0.21949-0.19311-0.42689-0.0183-0.55331 0.14988-1.0066 0.50018-1.4397 0.0707-0.074 0.0707-0.074 0.0594-0.18542l-0.0762 0.0117-0.10004 0.0136-0.0993 0.0139c-0.0909-3e-3 -0.0909-3e-3 -0.15757-0.0517-0.0432-0.0608-0.0432-0.0608-0.0414-0.14144 0.10883-0.32576 0.26493-0.54342 0.57529-0.70538a3.3737 3.3737 0 0 1 0.6834-0.21217c0.10114-0.03 0.15977-0.0733 0.24148-0.13814h0.0733l0.0293-0.0817a1.0139 1.0139 0 0 1 0.16306-0.25724c0.11433-0.14218 0.21473-0.28875 0.3111-0.44338l0.0465-0.0601h0.0733c9e-3 -0.0257 0.0183-0.052 0.0282-0.0784 0.0495-0.1147 0.10993-0.20997 0.18029-0.3133l0.0784-0.1158c0.0938-0.13594 0.18798-0.27152 0.28289-0.40674 0.0432-0.0608 0.085-0.12275 0.12642-0.18504h0.0733l0.0128-0.0641c0.0256-0.0887 0.0612-0.15317 0.11103-0.23122l0.0465-0.0747c0.0495-0.0696 0.0495-0.0696 0.10114-0.11946a1.4265 1.4265 0 0 0 0.16306-0.20886l0.0594-0.0879 0.0623-0.0931c0.13594-0.20117 0.27299-0.39978 0.4192-0.59325 0.13191-0.17956 0.20007-0.34518 0.25796-0.55845 0.0953-0.34298 0.23525-0.57896 0.52547-0.79039 0.0942-0.0506 0.19201-0.0901 0.29094-0.13045 0.32869-0.14437 0.58373-0.34811 0.85269-0.58263 0.0945-0.0817 0.19238-0.15903 0.28985-0.23745a3.5324 3.5324 0 0 0 0.30927-0.27922l0.0894-0.0894h0.0733l0.0733-0.14657h0.0733l0.0293-0.0649a1.0374 1.0374 0 0 1 0.16306-0.21912c0.0905-0.10187 0.17919-0.20411 0.26347-0.31147l0.055-0.0696c0.0513-0.0759 0.0513-0.0759 0.0389-0.21437l-0.0828-0.022a89.691 89.691 0 0 1-0.58702-0.15683c-1.3507-0.36204-1.3507-0.36204-1.9685-0.66398l-0.12825-0.0608c-0.21986-0.10516-0.42652-0.21143-0.61377-0.36936-0.23452-0.16929-0.50458-0.13924-0.77684-0.10223a12.904 12.904 0 0 0-0.48808 0.0942c-0.55588 0.11469-1.0121 0.29681-1.4918 0.60241-0.21143 0.13045-0.21143 0.13045-0.36936 0.12239l-0.0894-0.03c-0.10114-0.30304-0.0256-0.58922 0.0781-0.88127 0.0308-0.10406 0.0381-0.18394 0.0319-0.29131-0.23965 4e-3 -0.35507 0.14328-0.51521 0.30231l-0.077 0.0744a28.315 28.315 0 0 0-0.39721 0.39282c-0.0366 0.0366-0.0366 0.0366-0.12385 0.0458-0.096-9e-3 -0.096-9e-3 -0.16013-0.0572-0.12349-0.16673-0.10297-0.37853-0.0824-0.57493 0.12532-0.56504 0.12532-0.56504 0.21986-0.65958 1e-3 -0.0612 1e-3 -0.12202 0-0.18322-0.28142 5e-3 -0.48149 0.10297-0.72444 0.23452-0.10516 0.052-0.18541 0.0839-0.30157 0.0953l-0.0733-0.0366c-0.0495-0.64089 0.38182-1.2173 0.76951-1.6856 0.57237-0.57896 1.3206-0.92707 2.1367-0.9322 0.23085 3e-3 0.44155 0.0333 0.66397 0.0989 0.12862 0.0367 0.2543 0.0513 0.38732 0.0638-6e-3 -0.0253-0.0125-0.0502-0.0183-0.0762l-0.0231-0.10004-0.0231-0.0993c-9e-3 -0.0909-9e-3 -0.0909 0.0645-0.20081 0.0696-0.0136 0.0696-0.0136 0.15537-0.0128l0.0978-3.7e-4 0.10627 7.3e-4 0.22609-7.3e-4h0.11945c0.84646-2e-3 1.6647-0.0256 2.4463-0.38988l0.14474-0.0652c0.26017-0.11836 0.51338-0.24551 0.76438-0.38109 1.2404-0.66727 2.5723-1.2129 3.9827-1.3584l0.0861-9e-3c1.561-0.14255 2.83 0.34151 4.1088 1.1806 0.22352 0.14034 0.44008 0.1594 0.70098 0.10333l0.13851-0.0403c0.18212-0.0388 0.38476-0.0367 0.56614 1e-3 0.52253 0.0997 1.0396 0.0513 1.4877-0.23305 0.3657-0.25064 0.67021-0.58629 0.77171-1.0308 0.0755-0.66215 0.0374-1.1642-0.37633-1.7101-0.17222-0.21436-0.38512-0.37303-0.61304-0.5251v-0.0733l-0.0663-0.0114c-0.0934-0.0293-0.12239-0.066-0.19018-0.13522-0.0469-0.0359-0.0942-0.0711-0.14218-0.10553-0.3122-0.23158-0.3122-0.23158-0.37082-0.40747l-0.0667-0.033c-0.34737-0.17516-0.58262-0.71381-0.70281-1.0663-0.19165-0.58189-0.1583-1.247 0.11909-1.8003 0.12935-0.20447 0.29681-0.35764 0.51997-0.45071 0.48588-0.0773 0.823 0.0817 1.2297 0.34555z" fill="#f9f9f9" stroke-width=".036643"/>
</svg>
