<svg width="25" height="24" viewBox="0 0 25 24" fill="none" xmlns="http://www.w3.org/2000/svg">
<g clip-path="url(#clip0_14510_132902)">
<path d="M15.5 2.77177C15.5 3.21085 15.7803 3.59657 16.1816 3.77485C19.3267 5.17227 21.5 8.31447 21.5 12C21.5 17 17.5 21 12.5 21C7.5 21 3.5 17 3.5 12C3.5 8.31447 5.6733 5.17227 8.81844 3.77485C9.21969 3.59657 9.5 3.21085 9.5 2.77177C9.5 2.08781 8.84522 1.59303 8.21469 1.85804C4.25945 3.52047 1.5 7.42235 1.5 12C1.5 18.1 6.4 23 12.5 23C18.6 23 23.5 18.1 23.5 12C23.5 7.42235 20.7405 3.52048 16.7853 1.85804C16.1548 1.59303 15.5 2.08781 15.5 2.77177Z" fill="#454444"/>
<path d="M11.5 12C11.5 12.6 11.9 13 12.5 13C13.1 13 13.5 12.6 13.5 12L13.5 1C13.5 0.400002 13.1 2.02821e-06 12.5 1.9233e-06C11.9 1.81839e-06 11.5 0.400002 11.5 1L11.5 12Z" fill="#454444"/>
</g>
<defs>
<clipPath id="clip0_14510_132902">
<rect width="24" height="24" fill="white" transform="translate(0.5)"/>
</clipPath>
</defs>
</svg>
