<svg width="96" height="96" viewBox="0 0 96 96" fill="none" xmlns="http://www.w3.org/2000/svg">
<g id="Passport Prime">
<g id="Vector">
<path fill-rule="evenodd" clip-rule="evenodd" d="M48 4.00001C49.7824 4.00122 53.759 4.08064 57.2715 4.15909C59.048 4.19876 60.7159 4.23843 61.9396 4.26818L64.0073 4.31939L64.0704 4.3246C66.9408 4.56126 69.0553 5.53021 71.0066 6.841L71.0435 6.86582L71.5322 7.22237C71.6029 7.27074 71.6627 7.31549 71.7078 7.35021C71.7617 7.39177 71.812 7.43252 71.8397 7.45505L71.8445 7.45893L71.8726 7.48159L71.8957 7.49661L71.9574 7.54274C72.9585 8.29196 74.0868 9.16021 74.8043 10.2918C75.6025 11.518 75.8626 12.5514 75.9801 13.4664L76 13.621V82.2616L75.995 82.3397C75.9285 83.3747 75.6398 84.447 74.8463 85.6666C74.3811 86.4033 73.7984 86.9731 73.2427 87.444C72.8101 87.8106 72.3077 88.1861 71.8274 88.545L71.4742 88.8097L71.4099 88.8582L71.3424 88.9019L71.287 88.9382L71.1884 89.0341L71.0278 89.1446C69.0948 90.4748 66.9339 91.4387 64.1142 91.6752L64.1081 91.6757C62.0488 91.8426 52.4402 91.9609 48.0197 92H48C43.5 92 33.9542 91.8429 31.8919 91.6757L31.8858 91.6752C29.0753 91.4394 26.9193 90.4811 24.9912 89.1576C24.9053 89.1004 24.8333 89.0467 24.7811 89.0065C24.7268 88.9647 24.6764 88.9238 24.6487 88.9013L24.6162 88.8751L24.6097 88.8709L24.4106 88.7273C23.2968 87.9249 21.9723 86.9707 21.1451 85.6529C20.4228 84.5154 20.0742 83.4161 20.005 82.3397L20 82.2616V13.6987L20.005 13.6207C20.0715 12.585 20.3606 11.512 21.1552 10.2914C21.8165 9.24934 22.8616 8.43312 23.7349 7.75103L23.9589 7.57573L24.012 7.534L24.0673 7.49553L24.0727 7.49177L24.0973 7.47448L24.177 7.41722L24.209 7.39368L24.2591 7.34497L24.9053 6.87339L24.9314 6.85543C26.8684 5.52254 29.0304 4.56028 31.8889 4.3246L31.952 4.31939L34.0196 4.26818C35.2433 4.23843 36.9113 4.19876 38.6878 4.15909C42.2002 4.08064 46.1769 4.00121 47.9593 4L48 4.00001ZM62.9984 8.13203C62.9984 8.13203 51.2763 7.82728 47.9808 7.82609L48 7.82609H47.9615L47.9808 7.82609C44.6852 7.82728 32.9631 8.13203 32.9631 8.13203C30.6941 8.32324 29.002 9.08809 27.4253 10.1971L26.9638 10.5413C26.8868 10.6178 26.6176 10.809 26.6176 10.809C26.582 10.8376 26.5467 10.866 26.5118 10.894C25.5661 11.6531 24.872 12.2103 24.464 12.8741C23.9256 13.7155 23.7718 14.3656 23.7333 14.9775V80.9843C23.7718 81.5962 23.9641 82.2845 24.464 83.0876C25.0024 83.9672 25.9254 84.6556 27.1176 85.5352C27.1753 85.5734 27.233 85.6212 27.2907 85.669C27.3483 85.7168 27.406 85.7646 27.4637 85.8029C29.0405 86.9119 30.7326 87.6768 32.9631 87.868C34.8091 88.021 43.7312 88.1739 48 88.1739C52.2303 88.1357 61.1909 88.021 63.0369 87.868C65.2674 87.6768 66.9595 86.9119 68.5363 85.8029C68.6516 85.6882 68.767 85.6117 68.8823 85.5352C69.0085 85.4381 69.1317 85.344 69.2516 85.2523C70.2656 84.4772 71.0545 83.8742 71.536 83.0876C72.0744 82.2463 72.2282 81.5962 72.2667 80.9843V14.9775C72.1898 14.3656 72.0359 13.7155 71.4975 12.8741C71.0745 12.1858 70.3438 11.5739 69.3439 10.809C69.2862 10.7708 69.2285 10.723 69.1708 10.6752C69.1132 10.6274 69.0555 10.5796 68.9978 10.5413L68.5363 10.1971C66.9211 9.08809 65.2674 8.32324 62.9984 8.13203Z" fill="url(#paint0_linear_3152_279606)"/>
<path d="M40.7172 80H55.2828C55.7951 80 56 80.5 56 81.5C56 83.1667 53.7459 84 52.004 84H43.996C42.2541 84 40 83.1667 40 81.5C40 80.5 40.2049 80 40.7172 80Z" fill="url(#paint1_linear_3152_279606)"/>
<path fill-rule="evenodd" clip-rule="evenodd" d="M41.281 83.3402C41.0745 83.2253 40.8843 83.0953 40.7172 82.9502C40.2793 82.5701 40 82.0867 40 81.5C40 80.5 40.2049 80 40.7172 80H55.2828C55.7951 80 56 80.5 56 81.5C56 82.0867 55.7207 82.5701 55.2828 82.9502C55.1157 83.0953 54.9255 83.2253 54.719 83.3402C54.6824 83.3606 54.6452 83.3805 54.6076 83.4C53.8336 83.8 52.8574 84 52.004 84H43.996C43.1426 84 42.1664 83.8 41.3924 83.4C41.3548 83.3805 41.3177 83.3606 41.281 83.3402ZM64 19.4H32C31.6686 19.4 31.4 19.6686 31.4 20V72C31.4 72.3314 31.6686 72.6 32 72.6H64C64.3314 72.6 64.6 72.3314 64.6 72V20C64.6 19.6686 64.3314 19.4 64 19.4ZM32 16C29.7909 16 28 17.7909 28 20V72C28 74.2091 29.7909 76 32 76H64C66.2091 76 68 74.2091 68 72V20C68 17.7909 66.2091 16 64 16H32Z" fill="url(#paint2_linear_3152_279606)"/>
</g>
</g>
<defs>
<linearGradient id="paint0_linear_3152_279606" x1="48" y1="86.1461" x2="48" y2="12.7729" gradientUnits="userSpaceOnUse">
<stop stop-color="#231F20"/>
<stop offset="1" stop-color="#747374"/>
</linearGradient>
<linearGradient id="paint1_linear_3152_279606" x1="48" y1="86.1461" x2="48" y2="12.7729" gradientUnits="userSpaceOnUse">
<stop stop-color="#231F20"/>
<stop offset="1" stop-color="#747374"/>
</linearGradient>
<linearGradient id="paint2_linear_3152_279606" x1="48" y1="86.1461" x2="48" y2="12.7729" gradientUnits="userSpaceOnUse">
<stop stop-color="#231F20"/>
<stop offset="1" stop-color="#747374"/>
</linearGradient>
</defs>
</svg>
