<svg width="24" height="24" viewBox="0 0 24 24" fill="none" xmlns="http://www.w3.org/2000/svg">
<path fill-rule="evenodd" clip-rule="evenodd" d="M19.1289 5.08676C19.2355 5.56922 19.1455 5.98893 19.0527 6.27464L14.3289 20.8129C14.2361 21.0986 14.0622 21.4911 13.6924 21.8187C13.3111 22.1565 12.8557 22.3083 12.4109 22.3555C11.62 22.4393 10.6086 22.2138 9.34431 21.803C8.08002 21.3922 7.12924 20.9801 6.53864 20.4475C6.20652 20.1479 5.92727 19.7574 5.81738 19.26C5.71079 18.7775 5.80079 18.3578 5.89363 18.0721L10.6174 3.53384C10.7102 3.24813 10.8841 2.85567 11.2539 2.52801C11.6352 2.19021 12.0906 2.0384 12.5354 1.99127C13.3263 1.90747 14.3377 2.13298 15.602 2.54377C16.8663 2.95457 17.8171 3.3666 18.4077 3.89928C18.7398 4.19884 19.019 4.58938 19.1289 5.08676ZM15.1807 3.84023C17.7066 4.66095 17.9668 5.20532 17.7562 5.85339L13.0325 20.3917C12.8219 21.0397 12.2915 21.3272 9.76556 20.5065C7.23965 19.6858 6.97952 19.1414 7.19009 18.4933L11.9138 3.95508C12.1244 3.30701 12.6548 3.01952 15.1807 3.84023ZM11.4048 12.5347C11.5199 12.1807 11.9001 11.9869 12.2541 12.102L12.7669 12.2686C13.1209 12.3836 13.3147 12.7639 13.1997 13.1179L13.033 13.6307C12.918 13.9847 12.5378 14.1784 12.1838 14.0634L11.6709 13.8968C11.3169 13.7818 11.1232 13.4015 11.2382 13.0475L11.4048 12.5347ZM10.5869 11.5604C10.4099 11.5029 10.2198 11.5997 10.1623 11.7767L9.7874 12.9306C9.72989 13.1076 9.82676 13.2977 10.0038 13.3552L10.2602 13.4385C10.4372 13.496 10.6273 13.3992 10.6848 13.2222L11.0597 12.0683C11.1172 11.8913 11.0204 11.7012 10.8433 11.6437L10.5869 11.5604ZM13.7518 12.9432C13.8093 12.7662 13.9995 12.6693 14.1765 12.7268L14.4329 12.8101C14.6099 12.8676 14.7068 13.0578 14.6492 13.2348L14.2743 14.3886C14.2168 14.5656 14.0267 14.6625 13.8497 14.6049L13.5933 14.5216C13.4163 14.4641 13.3194 14.274 13.3769 14.097L13.7518 12.9432ZM11.5056 10.2899L13.0829 5.43559L16.0142 6.38803L14.4369 11.2424L11.5056 10.2899ZM12.4536 4.72547C12.5111 4.54846 12.7012 4.45158 12.8783 4.5091L16.7243 5.75876C16.9013 5.81628 16.9982 6.0064 16.9407 6.18341L15.0662 11.9525C15.0087 12.1295 14.8186 12.2264 14.6415 12.1689L10.7955 10.9192C10.6185 10.8617 10.5216 10.6716 10.5791 10.4946L12.4536 4.72547Z" fill="#231F20"/>
</svg>
