<svg width="24" height="24" viewBox="0 0 24 24" fill="none" xmlns="http://www.w3.org/2000/svg">
<path fill-rule="evenodd" clip-rule="evenodd" d="M6 8C4.93913 8 3.92172 8.42143 3.17157 9.17157C2.42143 9.92172 2 10.9391 2 12C2 13.0609 2.42143 14.0783 3.17157 14.8284C3.54301 15.1999 3.98396 15.4945 4.46927 15.6955C4.95457 15.8965 5.47471 16 6 16H7C7.55228 16 8 16.4477 8 17C8 17.5523 7.55228 18 7 18H6C5.21207 18 4.43185 17.8448 3.7039 17.5433C2.97595 17.2417 2.31451 16.7998 1.75736 16.2426C0.632141 15.1174 0 13.5913 0 12C0 10.4087 0.632141 8.88258 1.75736 7.75736C2.88258 6.63214 4.4087 6 6 6H7C7.55228 6 8 6.44772 8 7C8 7.55228 7.55228 8 7 8H6ZM16 7C16 6.44772 16.4477 6 17 6H18C18.7879 6 19.5681 6.15519 20.2961 6.45672C21.0241 6.75825 21.6855 7.20021 22.2426 7.75736C22.7998 8.31451 23.2417 8.97595 23.5433 9.7039C23.8448 10.4319 24 11.2121 24 12C24 12.7879 23.8448 13.5681 23.5433 14.2961C23.2417 15.0241 22.7998 15.6855 22.2426 16.2426C21.6855 16.7998 21.0241 17.2417 20.2961 17.5433C19.5681 17.8448 18.7879 18 18 18H17C16.4477 18 16 17.5523 16 17C16 16.4477 16.4477 16 17 16H18C18.5253 16 19.0454 15.8965 19.5307 15.6955C20.016 15.4945 20.457 15.1999 20.8284 14.8284C21.1999 14.457 21.4945 14.016 21.6955 13.5307C21.8965 13.0454 22 12.5253 22 12C22 11.4747 21.8965 10.9546 21.6955 10.4693C21.4945 9.98396 21.1999 9.54301 20.8284 9.17157C20.457 8.80014 20.016 8.5055 19.5307 8.30448C19.0454 8.10346 18.5253 8 18 8H17C16.4477 8 16 7.55228 16 7Z" fill="#E1E0E1"/>
<path d="M15.5858 10.5858C16.3668 9.80474 17.6332 9.80474 18.4142 10.5858C19.1953 11.3668 19.1953 12.6332 18.4142 13.4142C17.6332 14.1953 16.3668 14.1953 15.5858 13.4142C14.8047 12.6332 14.8047 11.3668 15.5858 10.5858Z" fill="#E1E0E1"/>
<path d="M10.5858 10.5858C11.3668 9.80474 12.6332 9.80474 13.4142 10.5858C14.1953 11.3668 14.1953 12.6332 13.4142 13.4142C12.6332 14.1953 11.3668 14.1953 10.5858 13.4142C9.80474 12.6332 9.80474 11.3668 10.5858 10.5858Z" fill="#E1E0E1"/>
<path d="M5.58579 10.5858C6.36683 9.80474 7.63317 9.80474 8.41421 10.5858C9.19526 11.3668 9.19526 12.6332 8.41421 13.4142C7.63317 14.1953 6.36683 14.1953 5.58579 13.4142C4.80474 12.6332 4.80474 11.3668 5.58579 10.5858Z" fill="#E1E0E1"/>
</svg>
