<svg width="24" height="24" viewBox="0 0 24 24" fill="none" xmlns="http://www.w3.org/2000/svg">
<path fill-rule="evenodd" clip-rule="evenodd" d="M14 2.1274C8.99998 3.12731 6.16667 5.96073 5 7.6274H5.00004H5.00383C4.05646 8.97042 3.5 10.609 3.5 12.3774C3.5 15.6762 5.43604 18.5227 8.23384 19.8428C6.57391 20.9836 4.14036 20.5555 2 20.1275C4 22.1274 7 23.1274 9.5 22.6274C14.5 21.6275 17.3333 18.7941 18.5 17.1274H18.5C18.4987 17.1274 18.4975 17.1274 18.4962 17.1274C19.4436 15.7844 20 14.1459 20 12.3774C20 9.0787 18.0639 6.23214 15.2661 4.91209C16.926 3.77127 19.3596 4.19933 21.5 4.62734C19.5 2.62742 16.5 1.62745 14 2.1274ZM11.75 15.4712C13.4586 15.4712 14.8438 14.0861 14.8438 12.3774C14.8438 10.6688 13.4586 9.2837 11.75 9.2837C10.0414 9.2837 8.65625 10.6688 8.65625 12.3774C8.65625 14.0861 10.0414 15.4712 11.75 15.4712Z" fill="#231F20"/>
</svg>
