<svg width="24" height="24" viewBox="0 0 24 24" fill="none" xmlns="http://www.w3.org/2000/svg">
<path fill-rule="evenodd" clip-rule="evenodd" d="M13.0002 2.83374C13.0002 2.28146 12.5525 1.83374 12.0002 1.83374C11.4479 1.83374 11.0002 2.28146 11.0002 2.83374V12.0004C11.0002 12.5527 11.4479 13.0004 12.0002 13.0004C12.5525 13.0004 13.0002 12.5527 13.0002 12.0004V2.83374ZM6.86858 7.79464C7.25905 7.40405 7.25894 6.77089 6.86835 6.38043C6.47777 5.98996 5.8446 5.99007 5.45414 6.38066C4.16081 7.67441 3.28013 9.32261 2.92346 11.1169C2.56679 12.9111 2.75015 14.7708 3.45035 16.4608C4.15055 18.1509 5.33615 19.5954 6.85723 20.6116C8.37832 21.6279 10.1666 22.1703 11.9959 22.1703C13.8253 22.1703 15.6136 21.6279 17.1347 20.6116C18.6557 19.5954 19.8413 18.1509 20.5415 16.4608C21.2417 14.7708 21.4251 12.9111 21.0684 11.1169C20.7118 9.32261 19.8311 7.67441 18.5378 6.38066C18.1473 5.99007 17.5141 5.98996 17.1235 6.38043C16.7329 6.77089 16.7328 7.40405 17.1233 7.79464C18.137 8.80866 18.8273 10.1005 19.1068 11.5068C19.3864 12.9131 19.2427 14.3707 18.6938 15.6953C18.145 17.02 17.2158 18.1521 16.0236 18.9486C14.8314 19.7452 13.4298 20.1703 11.9959 20.1703C10.5621 20.1703 9.16051 19.7452 7.96831 18.9486C6.7761 18.1521 5.84685 17.02 5.29805 15.6953C4.74924 14.3707 4.60553 12.9131 4.88508 11.5068C5.16463 10.1005 5.85489 8.80866 6.86858 7.79464Z" fill="#231F20"/>
</svg>
