<svg width="24" height="24" viewBox="0 0 24 24" fill="none" xmlns="http://www.w3.org/2000/svg">
<path fill-rule="evenodd" clip-rule="evenodd" d="M11.8284 1.37501L11.8303 1.375L12.1715 1.375C13.2076 1.37808 15.4364 1.40937 15.9147 1.45227C16.5681 1.51086 17.0613 1.73953 17.5083 2.06461L17.5195 2.07274L17.5303 2.08137C17.5806 2.12142 17.6279 2.15883 17.6733 2.19472L17.725 2.23548C17.9601 2.4206 18.2129 2.61968 18.3718 2.87885C18.5425 3.15723 18.6048 3.40282 18.6192 3.63426C18.6293 3.79731 18.6237 4.66539 18.6204 5.04948V18.9505C18.6237 19.3346 18.6293 20.2027 18.6192 20.3657C18.6048 20.5972 18.5425 20.8428 18.3718 21.1212C18.2129 21.3803 17.9601 21.5794 17.725 21.7645L17.6733 21.8053C17.6279 21.8412 17.5806 21.8786 17.5304 21.9186L17.5195 21.9273L17.5083 21.9354C17.0613 22.2605 16.5681 22.4891 15.9147 22.5477C15.4364 22.5906 13.2076 22.6219 12.1715 22.625L12.1696 22.625H11.8303L11.8284 22.625C10.7924 22.6219 8.56356 22.5906 8.08519 22.5477C7.43182 22.4891 6.93862 22.2605 6.49157 21.9354L6.48038 21.9273L6.46956 21.9186C6.41931 21.8786 6.37201 21.8412 6.32662 21.8053L6.27491 21.7645C6.03984 21.5794 5.78705 21.3803 5.62811 21.1212C5.45737 20.8428 5.39509 20.5972 5.38075 20.3657C5.37065 20.2027 5.37625 19.3347 5.37956 18.9506V5.04943C5.37625 4.66531 5.37065 3.7973 5.38075 3.63425C5.39509 3.40282 5.45737 3.15723 5.62811 2.87885C5.78706 2.61969 6.03985 2.4206 6.27492 2.23548L6.32661 2.19472C6.372 2.15883 6.41931 2.12142 6.46956 2.08137L6.48038 2.07274L6.49157 2.06461C6.93862 1.73953 7.43182 1.51086 8.08519 1.45227C8.56356 1.40937 10.7924 1.37808 11.8284 1.37501ZM11.8398 2.96368C11.3354 2.96521 10.5702 2.97375 9.88241 2.98634C9.1946 2.99893 8.58412 3.01558 8.38909 3.03334C8.02432 3.06655 7.75835 3.18549 7.4781 3.39056C7.43252 3.42741 7.38925 3.46214 7.34959 3.49398L7.34949 3.49406C7.04354 3.73964 6.98775 3.7955 6.9619 3.83827C6.93053 3.89021 6.91723 3.92468 6.9109 3.94548L6.90825 3.9548C6.90383 3.97156 6.90127 3.98872 6.89991 4.01105L6.89942 4.02434L6.89854 4.06282C6.89797 4.0948 6.89753 4.13592 6.89723 4.18473C6.89662 4.28219 6.89655 4.40538 6.89684 4.53788L6.89707 4.62574C6.89784 4.8664 6.89956 5.12098 6.90102 5.29272L6.90104 5.29526L6.90105 17.2217L6.90102 17.2269C6.89938 17.4198 6.89741 17.717 6.89684 17.9818C6.89655 18.1143 6.89662 18.2374 6.89723 18.3349C6.89754 18.3837 6.89798 18.4248 6.89854 18.4568L6.89942 18.4953L6.89991 18.5087C6.90153 18.5351 6.90483 18.5542 6.9109 18.5742C6.91684 18.5937 6.9289 18.6252 6.95624 18.6718L6.96191 18.6814C6.98775 18.7241 7.04427 18.7806 7.35023 19.0262C7.38983 19.058 7.43262 19.0923 7.47811 19.1291C7.74084 19.3213 7.99102 19.4379 8.32183 19.4791C8.34388 19.4818 8.36629 19.4842 8.38909 19.4863C8.7792 19.5218 10.832 19.5529 11.8406 19.556L12.1593 19.556C13.0419 19.5533 14.7238 19.5291 15.3919 19.4994C15.4873 19.4951 15.5621 19.4907 15.6108 19.4863C15.93 19.4572 16.1735 19.3625 16.4172 19.2019C16.452 19.179 16.4868 19.1547 16.5218 19.1291C16.5673 19.0923 16.6101 19.058 16.6497 19.0262C16.9556 18.7806 17.0122 18.7241 17.038 18.6813C17.0694 18.6294 17.0827 18.5949 17.089 18.5742C17.0951 18.5542 17.0984 18.5351 17.1 18.5087L17.1005 18.4953L17.1014 18.4568C17.1019 18.4248 17.1024 18.3837 17.1027 18.3349C17.1033 18.2374 17.1034 18.1142 17.1031 17.9817C17.1025 17.717 17.1005 17.4197 17.0989 17.2269L17.0989 17.2217L17.0989 5.29272C17.1005 5.09989 17.1025 4.80263 17.1031 4.53789C17.1034 4.40539 17.1033 4.28219 17.1027 4.18473C17.1024 4.13592 17.1019 4.0948 17.1014 4.06282L17.1005 4.02435L17.1 4.01105C17.0984 3.98459 17.0951 3.96542 17.089 3.94549C17.0827 3.92469 17.0694 3.89021 17.038 3.83827C17.0122 3.7955 16.9557 3.73914 16.6498 3.49356C16.6103 3.46183 16.5672 3.42725 16.5218 3.39057C16.2416 3.18549 15.9756 3.06655 15.6108 3.03334C15.2207 2.99783 13.1689 2.96674 12.1601 2.96368H11.8398ZM13.8206 20.5035H10.1793C10.0512 20.5035 9.99995 20.6285 9.99995 20.8785C9.99995 21.2952 10.5635 21.5035 10.9989 21.5035H13.001C13.4364 21.5035 14 21.2952 14 20.8785C14 20.6285 13.9487 20.5035 13.8206 20.5035Z" fill="white"/>
</svg>
