<svg width="24" height="24" viewBox="0 0 24 24" fill="none" xmlns="http://www.w3.org/2000/svg">
<path d="M8.08698 9.01743C8.52818 7.36343 10.0677 6.125 11.9169 6.125C14.1205 6.125 15.875 7.8773 15.875 10C15.875 10.9682 15.4636 11.6553 14.7136 12.2657C13.9112 12.9187 12.7908 13.4237 11.4887 13.9597C10.9142 14.1962 10.6401 14.8537 10.8766 15.4282C11.1131 16.0028 11.7706 16.2768 12.3452 16.0403C13.6172 15.5167 15.0384 14.9024 16.1339 14.0107C17.282 13.0764 18.125 11.7933 18.125 10C18.125 6.59986 15.328 3.875 11.9169 3.875C9.04567 3.875 6.61619 5.80133 5.913 8.43753C5.75286 9.03786 6.10971 9.65433 6.71004 9.81447C7.31037 9.97461 7.92685 9.61776 8.08698 9.01743Z" fill="black"/>
<path d="M11.7769 18.0156C11.0282 18.0156 10.4212 18.6225 10.4212 19.3712C10.4212 20.1199 11.0282 20.7268 11.7769 20.7268C12.5255 20.7268 13.1325 20.1199 13.1325 19.3712C13.1325 18.6225 12.5255 18.0156 11.7769 18.0156Z" fill="black"/>
</svg>
