<svg width="24" height="24" viewBox="0 0 24 24" fill="none" xmlns="http://www.w3.org/2000/svg">
<path d="M0 12C0 5.37258 5.37258 0 12 0C18.6274 0 24 5.37258 24 12C24 18.6274 18.6274 24 12 24C5.37258 24 0 18.6274 0 12Z" fill="#E3E2E2"/>
<path d="M7.75739 16.2427C7.43919 15.9245 7.43919 15.5002 7.75739 15.182L10.9394 12L7.75739 8.81805C7.43919 8.49985 7.43919 8.07558 7.75739 7.75739C8.07558 7.43919 8.49985 7.43919 8.81805 7.75739L12 10.9394L15.182 7.75739C15.5002 7.43919 15.9245 7.43919 16.2427 7.75739C16.5609 8.07558 16.5609 8.49985 16.2427 8.81805L13.0607 12L16.2427 15.182C16.5609 15.5002 16.5609 15.9245 16.2427 16.2427C15.9245 16.5609 15.5002 16.5609 15.182 16.2427L12 13.0607L8.81805 16.2427C8.49985 16.5609 8.07558 16.5609 7.75739 16.2427Z" fill="#959394"/>
</svg>
