<svg width="24" height="24" viewBox="0 0 24 24" fill="none" xmlns="http://www.w3.org/2000/svg">
<path fill-rule="evenodd" clip-rule="evenodd" d="M12 22C17.5228 22 22 17.5228 22 12C22 6.47715 17.5228 2 12 2C6.47715 2 2 6.47715 2 12C2 17.5228 6.47715 22 12 22ZM12 24C18.6274 24 24 18.6274 24 12C24 5.37258 18.6274 0 12 0C5.37258 0 0 5.37258 0 12C0 18.6274 5.37258 24 12 24Z" fill="white"/>
<path d="M18.3064 7.50848C18.3064 6.95619 17.8587 6.50848 17.3064 6.50848C16.7542 6.50848 16.3064 6.95619 16.3064 7.50848V9.97166C16.3064 10.4713 16.1058 10.9528 15.7449 11.3096C15.3836 11.6668 14.8912 11.8695 14.3753 11.8695H7.27535L9.20858 9.95822C9.60133 9.56993 9.60494 8.93678 9.21665 8.54403C8.82836 8.15129 8.1952 8.14767 7.80246 8.53597L4.13858 12.1583C3.94857 12.3461 3.84164 12.6022 3.84164 12.8694C3.84164 13.1366 3.94857 13.3927 4.13858 13.5806L7.80246 17.2029C8.1952 17.5912 8.82836 17.5876 9.21665 17.1948C9.60494 16.8021 9.60133 16.1689 9.20858 15.7806L7.27556 13.8695H14.3753C15.4143 13.8695 16.4129 13.4616 17.151 12.7319C17.8895 12.0018 18.3064 11.0091 18.3064 9.97166V7.50848Z" fill="white"/>
</svg>
