<svg width="25" height="24" viewBox="0 0 25 24" fill="none" xmlns="http://www.w3.org/2000/svg">
<path d="M17.5 21L17.5 13L7.5 13L7.5 21M7.5 3L7.5 8L15.5 8M19.5 21L5.5 21C4.96956 21 4.46086 20.7893 4.08578 20.4142C3.71071 20.0391 3.5 19.5304 3.5 19L3.5 5C3.5 4.46957 3.71071 3.96086 4.08579 3.58579C4.46086 3.21071 4.96957 3 5.5 3L16.5 3L21.5 8L21.5 19C21.5 19.5304 21.2893 20.0391 20.9142 20.4142C20.5391 20.7893 20.0304 21 19.5 21Z" stroke="#454444" stroke-width="2" stroke-linecap="round" stroke-linejoin="round"/>
</svg>
