<svg width="24" height="24" viewBox="0 0 24 24" fill="none" xmlns="http://www.w3.org/2000/svg">
<g clip-path="url(#clip0_11461_13872)">
<path fill-rule="evenodd" clip-rule="evenodd" d="M5.77392 23.669L17.332 23.669C19.6029 23.669 21.4438 21.8281 21.4438 19.5572L21.4438 14.5761L22.3329 13.4647L22.3329 4.44531C22.3329 2.17442 20.492 0.333499 18.2211 0.333499L5.77392 0.333498C3.50303 0.333499 1.66211 2.17442 1.66211 4.44531L1.66211 19.5572C1.66211 21.8281 3.50303 23.669 5.77392 23.669ZM17.332 21.669L5.77392 21.669C4.6076 21.669 3.66211 20.7236 3.66211 19.5572L3.66211 4.44531C3.66211 3.27899 4.6076 2.3335 5.77392 2.3335L18.2211 2.3335C19.3874 2.3335 20.3329 3.27899 20.3329 4.44531L20.3329 8.33531L19.1102 8.33531L19.1102 10.3353L20.3329 10.3353L20.3329 12.7632L19.4438 13.8745L19.4438 19.5572C19.4438 20.7236 18.4983 21.669 17.332 21.669ZM17.8876 16.4457C17.8876 15.8934 17.4399 15.4457 16.8876 15.4457C16.3353 15.4457 15.8876 15.8934 15.8876 16.4457L15.8876 19.1129C15.8876 19.6652 16.3353 20.1129 16.8876 20.1129C17.4399 20.1129 17.8876 19.6652 17.8876 19.1129L17.8876 16.4457ZM7.21854 16.4457C7.21854 15.8934 6.77082 15.4457 6.21854 15.4457C5.66625 15.4457 5.21854 15.8934 5.21854 16.4457L5.21854 19.1129C5.21853 19.6652 5.66625 20.1129 6.21853 20.1129C6.77082 20.1129 7.21853 19.6652 7.21854 19.1129L7.21854 16.4457ZM10.7749 16.4457C10.7749 15.8934 10.3272 15.4457 9.77489 15.4457C9.22261 15.4457 8.77489 15.8934 8.77489 16.4457L8.77489 19.1129C8.77489 19.6652 9.22261 20.1129 9.77489 20.1129C10.3272 20.1129 10.7749 19.6652 10.7749 19.1129L10.7749 16.4457ZM14.3313 16.4457C14.3313 15.8934 13.8835 15.4457 13.3313 15.4457C12.779 15.4457 12.3313 15.8934 12.3313 16.4457L12.3313 19.1129C12.3313 19.6652 12.779 20.1129 13.3312 20.1129C13.8835 20.1129 14.3312 19.6652 14.3312 19.1129L14.3313 16.4457Z" fill="#454444"/>
</g>
<defs>
<clipPath id="clip0_11461_13872">
<rect width="24" height="24" fill="white"/>
</clipPath>
</defs>
</svg>
