<svg width="32" height="32" viewBox="0 0 32 32" fill="none" xmlns="http://www.w3.org/2000/svg">
<path d="M16 30.6535C15.7333 30.6535 15.6 30.6535 15.4667 30.5202C14.9333 30.2535 4 24.6535 4 15.9868V6.65352C4 6.12018 4.4 5.58685 4.8 5.45352L15.4667 1.45352C15.7333 1.32018 16.1333 1.32018 16.4 1.45352L27.0667 5.45352C27.6 5.58685 28 6.12018 28 6.65352V15.9868C28 24.6535 17.0667 30.2535 16.5333 30.5202C16.4 30.6535 16.2667 30.6535 16 30.6535ZM6.66667 7.58685V15.9868C6.66667 21.9869 13.8667 26.5202 16 27.8535C18.1333 26.6535 25.3333 22.1202 25.3333 15.9868V7.58685L16 4.12018L6.66667 7.58685Z" fill="#231F20"/>
<path d="M11.1665 22.1752C10.8904 22.1752 10.6665 21.9513 10.6665 21.6752V8.5C10.6665 8.22386 10.8904 8 11.1665 8H16.4986C17.7541 8 18.8274 8.2025 19.7184 8.60751C20.6229 9.01251 21.3182 9.59302 21.8042 10.349C22.2902 11.105 22.5332 12.0028 22.5332 13.0423C22.5332 14.0818 22.2902 14.9796 21.8042 15.7356C21.3182 16.4916 20.6229 17.0721 19.7184 17.4771C18.8274 17.8821 17.7541 18.0846 16.4986 18.0846H12.9464C12.6365 18.0846 12.4773 17.7136 12.6909 17.489C12.9103 17.2582 13.299 17.4135 13.299 17.732V21.6752C13.299 21.9513 13.0752 22.1752 12.799 22.1752H11.1665ZM13.299 16.2152C13.299 16.5414 12.8984 16.6977 12.6775 16.4577C12.4662 16.2282 12.629 15.8571 12.9409 15.8571H16.3771C17.5381 15.8571 18.4089 15.6141 18.9894 15.1281C19.5834 14.6286 19.8804 13.9333 19.8804 13.0423C19.8804 12.1378 19.5834 11.4425 18.9894 10.9565C18.4089 10.4705 17.5381 10.2275 16.3771 10.2275H12.9383C12.6254 10.2275 12.4609 9.8564 12.671 9.62454C12.8926 9.38001 13.299 9.53678 13.299 9.86679V16.2152Z" fill="#231F20"/>
</svg>
