<svg width="24" height="24" viewBox="0 0 24 24" fill="none" xmlns="http://www.w3.org/2000/svg">
<path fill-rule="evenodd" clip-rule="evenodd" d="M11.6 22.89C11.7 22.99 11.8 22.99 12 22.99C12.2 22.99 12.3 22.99 12.4 22.89C12.8 22.69 21 18.49 21 11.99V4.99001C21 4.59001 20.7 4.19001 20.3 4.09001L12.3 1.09001C12.1 0.990015 11.8 0.990015 11.6 1.09001L3.6 4.09001C3.3 4.19001 3 4.59001 3 4.99001V11.99C3 18.49 11.2 22.69 11.6 22.89ZM5 11.99V5.69001L12 3.09001L19 5.69001V11.99C19 16.59 13.6 19.99 12 20.89C10.4 19.89 5 16.49 5 11.99ZM13.3162 5.43876C12.6687 5.22291 12 5.70488 12 6.38744V17C12 17.8241 12.9408 18.2944 13.6 17.8L13.6704 17.7472C15.2122 16.5908 16.5462 15.1807 17.6153 13.5771L17.8321 13.2519C17.9416 13.0877 18 12.8947 18 12.6972V7.72077C18 7.29034 17.7246 6.90821 17.3162 6.77209L13.3162 5.43876Z" fill="#231F20"/>
</svg>
