<svg width="24" height="24" viewBox="0 0 24 24" fill="none" xmlns="http://www.w3.org/2000/svg">
<path d="M12 22.975C11.8 22.975 11.7 22.975 11.6 22.875C11.2 22.675 3 18.475 3 11.975L3 4.975C3 4.575 3.3 4.175 3.6 4.075L11.6 1.075C11.8 0.974998 12.1 0.974998 12.3 1.075L20.3 4.075C20.7 4.175 21 4.575 21 4.975L21 11.975C21 18.475 12.8 22.675 12.4 22.875C12.3 22.975 12.2 22.975 12 22.975ZM5 5.675L5 11.975C5 16.475 10.4 19.875 12 20.875C13.6 19.975 19 16.575 19 11.975L19 5.675L12 3.075L5 5.675Z" fill="#231F20"/>
<path d="M16.9497 12.7071C16.7376 12.9193 16.5255 12.99 16.2426 12.99L12.99 12.99L12.99 16.2427C12.99 16.8083 12.5657 17.2326 12 17.2326C11.4343 17.2326 11.0101 16.8083 11.0101 16.2427L11.0101 12.99L7.75736 12.99C7.19168 12.99 6.76741 12.5657 6.76741 12C6.76741 11.4343 7.19168 11.0101 7.75736 11.0101L11.0101 11.0101L11.0101 7.75737C11.0101 7.19169 11.4343 6.76742 12 6.76742C12.5657 6.76742 12.9899 7.19169 12.9899 7.75737L12.99 11.0101L16.2426 11.0101C16.8083 11.0101 17.2326 11.4343 17.2326 12C17.2326 12.2829 17.1619 12.495 16.9497 12.7071Z" fill="#231F20"/>
</svg>
