<svg width="25" height="24" viewBox="0 0 25 24" fill="none" xmlns="http://www.w3.org/2000/svg">
<path d="M12.5 22.975C12.3 22.975 12.2 22.975 12.1 22.875C11.7 22.675 3.5 18.475 3.5 11.975V4.975C3.5 4.575 3.8 4.175 4.1 4.075L12.1 1.075C12.3 0.975 12.6 0.975 12.8 1.075L20.8 4.075C21.2 4.175 21.5 4.575 21.5 4.975V11.975C21.5 18.475 13.3 22.675 12.9 22.875C12.8 22.975 12.7 22.975 12.5 22.975ZM5.5 5.675V11.975C5.5 16.475 10.9 19.875 12.5 20.875C14.1 19.975 19.5 16.575 19.5 11.975V5.675L12.5 3.075L5.5 5.675Z" fill="white"/>
<path d="M15.5 16C15.2 16 15 15.9 14.8 15.7L12.5 13.4L10.2 15.7C9.8 16.1 9.2 16.1 8.8 15.7C8.4 15.3 8.4 14.7 8.8 14.3L11.1 12L8.8 9.70001C8.4 9.30001 8.4 8.70001 8.8 8.30001C9.2 7.90001 9.8 7.90001 10.2 8.30001L12.5 10.6L14.8 8.30001C15.2 7.90001 15.8 7.90001 16.2 8.30001C16.6 8.70001 16.6 9.30001 16.2 9.70001L13.9 12L16.2 14.3C16.6 14.7 16.6 15.3 16.2 15.7C16 15.9 15.8 16 15.5 16Z" fill="white"/>
</svg>
