<svg width="24" height="24" viewBox="0 0 24 24" fill="none" xmlns="http://www.w3.org/2000/svg">
<path d="M19 2.99098C19.1 2.99098 19.3 2.99098 19.4 3.09098C19.8 3.29098 20 3.59098 20 3.99098L20 19.991C20 20.391 19.8 20.691 19.4 20.891C19.1 21.091 18.7 20.991 18.4 20.791L8.4 12.791C8.2 12.591 8 12.291 8 11.991C8 11.691 8.1 11.391 8.4 11.191L18.4 3.19098C18.6 3.09098 18.8 2.99098 19 2.99098ZM18 17.891L18 6.09098L10.6 11.991L18 17.891ZM5 3.99098C5.6 3.99098 6 4.39098 6 4.99098L6 18.991C6 19.591 5.6 19.991 5 19.991C4.4 19.991 4 19.591 4 18.991L4 4.99098C4 4.39098 4.4 3.99098 5 3.99098Z" fill="#231F20"/>
</svg>
