<svg width="24" height="24" viewBox="0 0 24 24" fill="none" xmlns="http://www.w3.org/2000/svg">
<path d="M5 21C4.9 21 4.7 21 4.6 20.9C4.2 20.7 4 20.4 4 20V3.99998C4 3.59998 4.2 3.29998 4.6 3.09998C4.9 2.89998 5.3 2.99998 5.6 3.19998L15.6 11.2C15.8 11.4 16 11.7 16 12C16 12.3 15.9 12.6 15.6 12.8L5.6 20.8C5.4 20.9 5.2 21 5 21ZM6 6.09998V17.9L13.4 12L6 6.09998ZM19 20C18.4 20 18 19.6 18 19V4.99998C18 4.39998 18.4 3.99998 19 3.99998C19.6 3.99998 20 4.39998 20 4.99998V19C20 19.6 19.6 20 19 20Z" fill="#231F20"/>
</svg>
