<svg width="128" height="128" viewBox="0 0 128 128" fill="none" xmlns="http://www.w3.org/2000/svg">
<path fill-rule="evenodd" clip-rule="evenodd" d="M50.049 1.68H77.9507C80.5427 1.67995 82.707 1.6799 84.4753 1.82438C86.3199 1.97508 88.0528 2.30102 89.6918 3.13615C92.2057 4.41702 94.2495 6.46084 95.5304 8.97469C96.3655 10.6137 96.6914 12.3467 96.8421 14.1912C96.9866 15.9595 96.9866 18.1239 96.9865 20.716V107.284C96.9866 109.876 96.9866 112.04 96.8421 113.809C96.6914 115.653 96.3655 117.386 95.5304 119.025C94.2495 121.539 92.2057 123.583 89.6918 124.864C88.0528 125.699 86.3199 126.025 84.4753 126.176C82.7071 126.32 80.5429 126.32 77.951 126.32H50.0487C47.4568 126.32 45.2926 126.32 43.5244 126.176C41.6798 126.025 39.9469 125.699 38.3079 124.864C35.794 123.583 33.7502 121.539 32.4693 119.025C31.6342 117.386 31.3083 115.653 31.1576 113.809C31.0131 112.041 31.0131 109.876 31.0132 107.284V20.7158C31.0131 18.1238 31.0131 15.9595 31.1576 14.1912C31.3083 12.3467 31.6342 10.6137 32.4693 8.97469C33.7502 6.46084 35.794 4.41702 38.3079 3.13615C39.9469 2.30102 41.6798 1.97508 43.5244 1.82438C45.2927 1.6799 47.457 1.67995 50.049 1.68ZM44.1194 9.10678C42.7267 9.22057 42.0624 9.42361 41.625 9.64644C40.486 10.2268 39.56 11.1528 38.9796 12.2918C38.7568 12.7292 38.5538 13.3935 38.44 14.7862C38.3227 16.2215 38.3199 18.0856 38.3199 20.864V107.136C38.3199 109.914 38.3227 111.778 38.44 113.214C38.5538 114.607 38.7568 115.271 38.9796 115.708C39.56 116.847 40.486 117.773 41.625 118.354C42.0624 118.576 42.7267 118.779 44.1194 118.893C45.5547 119.01 47.4188 119.013 50.1972 119.013H77.8025C80.5809 119.013 82.445 119.01 83.8803 118.893C85.273 118.779 85.9374 118.576 86.3747 118.354C87.5137 117.773 88.4397 116.847 89.0201 115.708C89.2429 115.271 89.446 114.607 89.5597 113.214C89.677 111.778 89.6799 109.914 89.6799 107.136V20.864C89.6799 18.0856 89.677 16.2215 89.5597 14.7862C89.446 13.3935 89.2429 12.7292 89.0201 12.2918C88.4397 11.1528 87.5137 10.2268 86.3747 9.64644C85.9374 9.42361 85.273 9.22057 83.8803 9.10678C82.445 8.98951 80.5809 8.98667 77.8025 8.98667H50.1972C47.4188 8.98667 45.5547 8.98951 44.1194 9.10678Z" fill="black"/>
<path fill-rule="evenodd" clip-rule="evenodd" d="M50.6669 114.133C50.6669 112.926 51.6459 111.947 52.8535 111.947H75.1469C76.3545 111.947 77.3335 112.926 77.3335 114.133C77.3335 115.341 76.3545 116.32 75.1469 116.32H52.8535C51.6459 116.32 50.6669 115.341 50.6669 114.133Z" fill="black"/>
</svg>
