<svg width="96" height="96" viewBox="0 0 96 96" fill="none" xmlns="http://www.w3.org/2000/svg">
<g id="Smartphone">
<path id="Union" fill-rule="evenodd" clip-rule="evenodd" d="M70.9494 96H25.0503C21.0596 96 18.0078 93.0347 18.0078 89.157V6.84298C18.0078 2.96529 21.0596 0 25.0503 0H70.9494C74.9401 0 77.9919 2.96529 77.9919 6.84298V89.157C77.9919 93.0347 74.9401 96 70.9494 96ZM26.1772 10.7947C26.1772 9.55746 26.9872 8.73267 28.2023 8.73267H67.7975C69.0125 8.73267 69.8226 9.55746 69.8226 10.7947V85.2057C69.8226 86.4429 69.0125 87.2677 67.7975 87.2677H28.2023C26.9872 87.2677 26.1772 86.4429 26.1772 85.2057V10.7947ZM35.9399 78.6172C34.6605 78.6172 33.6234 79.6543 33.6234 80.9337C33.6234 82.2131 34.6605 83.2502 35.9399 83.2502H60.0598C61.3391 83.2502 62.3763 82.2131 62.3763 80.9337C62.3763 79.6543 61.3391 78.6172 60.0598 78.6172H35.9399Z" fill="url(#paint0_linear_3088_34254)"/>
</g>
<defs>
<linearGradient id="paint0_linear_3088_34254" x1="47.9998" y1="89.6139" x2="47.9998" y2="9.57041" gradientUnits="userSpaceOnUse">
<stop stop-color="#231F20"/>
<stop offset="1" stop-color="#747374"/>
</linearGradient>
</defs>
</svg>
