<svg width="24" height="24" viewBox="0 0 24 24" fill="none" xmlns="http://www.w3.org/2000/svg">
<path d="M6.50001 5.5C7.10001 5.5 7.50001 5.1 7.50001 4.5C7.50001 3.9 7.10001 3.5 6.50001 3.5L2.50001 3.5C1.90001 3.5 1.50001 3.9 1.50001 4.5C1.50001 5.1 1.90001 5.5 2.50001 5.5L6.50001 5.5ZM17.5 20.5C18.1 20.5 18.5 20.1 18.5 19.5L18.5 6.90039L20.7998 9.2002C21.1998 9.6002 21.8002 9.6002 22.2002 9.2002C22.6002 8.8002 22.6002 8.19981 22.2002 7.79981L18.2002 3.79981C18.1003 3.69994 18.0003 3.59987 17.9004 3.59961C17.8004 3.49961 17.6 3.5 17.5 3.5C17.4 3.5 17.1996 3.49961 17.0996 3.59961C16.9997 3.59987 16.8997 3.69994 16.7998 3.79981L12.7998 7.79981C12.3998 8.19981 12.3998 8.8002 12.7998 9.2002C13.1998 9.6002 13.8002 9.6002 14.2002 9.2002L16.5 6.90039L16.5 19.5C16.5 20.1 16.9 20.5 17.5 20.5ZM8.50001 10.5C9.10001 10.5 9.50001 10.1 9.50001 9.5C9.50001 8.9 9.10001 8.5 8.50001 8.5L2.50001 8.5C1.90001 8.5 1.50001 8.9 1.50001 9.5C1.50001 10.1 1.90001 10.5 2.50001 10.5L8.50001 10.5ZM10.5 15.5C11.1 15.5 11.5 15.1 11.5 14.5C11.5 13.9 11.1 13.5 10.5 13.5L2.50001 13.5C1.90001 13.5 1.50001 13.9 1.50001 14.5C1.50001 15.1 1.90001 15.5 2.50001 15.5L10.5 15.5ZM12.5 20.5C13.1 20.5 13.5 20.1 13.5 19.5C13.5 18.9 13.1 18.5 12.5 18.5L2.5 18.5C1.9 18.5 1.5 18.9 1.5 19.5C1.5 20.1 1.9 20.5 2.5 20.5L12.5 20.5Z" fill="white"/>
</svg>
