<svg width="24" height="24" viewBox="0 0 24 24" fill="none" xmlns="http://www.w3.org/2000/svg">
<path d="M19 8C19 8.3 18.9 8.5 18.7 8.7C18.3 9.1 17.7 9.1 17.3 8.7L12 3.4L6.7 8.7C6.3 9.1 5.7 9.1 5.3 8.7C4.9 8.3 4.9 7.7 5.3 7.3L11.3 1.3C11.7 0.899999 12.3 0.899999 12.7 1.3L18.7 7.3C18.9 7.5 19 7.7 19 8ZM19 16C19 16.3 18.9 16.5 18.7 16.7L12.7 22.7C12.3 23.1 11.7 23.1 11.3 22.7L5.3 16.7C4.9 16.3 4.9 15.7 5.3 15.3C5.7 14.9 6.3 14.9 6.7 15.3L12 20.6L17.3 15.3C17.7 14.9 18.3 14.9 18.7 15.3C18.9 15.5 19 15.7 19 16Z" fill="#231F20"/>
</svg>
