<svg width="24" height="24" viewBox="0 0 24 24" fill="none" xmlns="http://www.w3.org/2000/svg">
<path d="M12 23C11.4 23 11 22.6 11 22V18C11 17.4 11.4 17 12 17C12.6 17 13 17.4 13 18V22C13 22.6 12.6 23 12 23ZM4.9 20.1C4.6 20.1 4.4 20 4.2 19.8C3.8 19.4 3.8 18.8 4.2 18.4L7 15.6C7.4 15.2 8 15.2 8.4 15.6C8.8 16 8.8 16.6 8.4 17L5.6 19.8C5.4 20 5.2 20.1 4.9 20.1ZM19.1 20.1C18.8 20.1 18.6 20 18.4 19.8L15.6 17C15.2 16.6 15.2 16 15.6 15.6C16 15.2 16.6 15.2 17 15.6L19.8 18.4C20.2 18.8 20.2 19.4 19.8 19.8C19.6 20 19.3 20.1 19.1 20.1ZM22 13H18C17.4 13 17 12.6 17 12C17 11.4 17.4 11 18 11H22C22.6 11 23 11.4 23 12C23 12.6 22.6 13 22 13ZM6 13H2C1.4 13 1 12.6 1 12C1 11.4 1.4 11 2 11H6C6.6 11 7 11.4 7 12C7 12.6 6.6 13 6 13ZM7.8 8.8C7.5 8.8 7.3 8.7 7.1 8.5L4.2 5.6C3.8 5.2 3.8 4.6 4.2 4.2C4.6 3.8 5.2 3.8 5.6 4.2L8.4 7C8.8 7.4 8.8 8 8.4 8.4C8.3 8.7 8 8.8 7.8 8.8ZM16.2 8.8C15.9 8.8 15.7 8.7 15.5 8.5C15.1 8.1 15.1 7.5 15.5 7.1L18.3 4.3C18.7 3.9 19.3 3.9 19.7 4.3C20.1 4.7 20.1 5.3 19.7 5.7L16.9 8.5C16.8 8.7 16.5 8.8 16.2 8.8ZM12 7C11.4 7 11 6.6 11 6V2C11 1.4 11.4 1 12 1C12.6 1 13 1.4 13 2V6C13 6.6 12.6 7 12 7Z" fill="white"/>
</svg>
