<svg width="64" height="64" viewBox="0 0 64 64" fill="none" xmlns="http://www.w3.org/2000/svg">
<path d="M31.9998 61.3332C15.7332 61.3332 2.6665 48.2665 2.6665 31.9998C2.6665 15.7332 15.7332 2.6665 31.9998 2.6665C48.2665 2.6665 61.3332 15.7332 61.3332 31.9998C61.3332 48.2665 48.2665 61.3332 31.9998 61.3332ZM31.9998 7.99984C18.6665 7.99984 7.99984 18.6665 7.99984 31.9998C7.99984 45.3332 18.6665 55.9998 31.9998 55.9998C45.3332 55.9998 55.9998 45.3332 55.9998 31.9998C55.9998 18.6665 45.3332 7.99984 31.9998 7.99984ZM31.9998 47.9998C30.3998 47.9998 29.3332 46.9332 29.3332 45.3332C29.3332 43.7332 30.3998 42.6665 31.9998 42.6665C33.5998 42.6665 34.6665 43.7332 34.6665 45.3332C34.6665 46.9332 33.5998 47.9998 31.9998 47.9998ZM31.7332 37.3332C30.6665 37.3332 29.5998 36.5332 29.3332 35.4665C28.7998 34.1332 29.5998 32.5332 30.9332 31.9998C32.5332 31.4665 37.0665 29.3332 37.0665 26.3998C37.0665 23.9998 35.7332 22.1332 33.5998 21.3332C32.2665 20.7998 30.9332 21.0665 29.5998 21.5998C28.2665 22.1332 27.4665 23.1998 26.9332 24.5332C26.3998 25.8665 24.7998 26.6665 23.4665 26.1332C21.8665 26.1332 21.3332 24.5332 21.5998 23.1998C23.4665 17.5998 29.5998 14.6665 35.1998 16.7998C39.4665 18.3998 42.3998 22.3998 42.3998 26.9332C42.3998 33.8665 33.5998 37.0665 32.5332 37.3332H31.7332Z" fill="#009DB9"/>
</svg>
