<svg width="22" height="22" viewBox="0 0 22 22" fill="none" xmlns="http://www.w3.org/2000/svg">
<path d="M11.4 21.6C10.6 21.6 9.90002 21.3 9.30002 20.7L0.700024 12.1C0.500024 11.9 0.400024 11.7 0.400024 11.4V1.39999C0.400024 0.799994 0.800024 0.399994 1.40002 0.399994H11.4C11.7 0.399994 11.9 0.499994 12.1 0.699994L20.7 9.29999C21.9 10.5 21.9 12.4 20.7 13.5L13.5 20.7C12.9 21.3 12.2 21.6 11.4 21.6ZM2.40002 11L10.7 19.3C11.1 19.7 11.7 19.7 12.1 19.3L19.3 12.1C19.7 11.7 19.7 11.1 19.3 10.7L11 2.39999H2.40002V11ZM6.40002 7.39999C5.90002 7.39999 5.40002 6.99999 5.40002 6.39999C5.40002 5.79999 5.80002 5.39999 6.40002 5.39999C7.00002 5.39999 7.40002 5.79999 7.40002 6.39999C7.40002 6.99999 7.00002 7.39999 6.40002 7.39999Z" fill="#231F20"/>
</svg>
