<svg width="24" height="24" viewBox="0 0 24 24" fill="none" xmlns="http://www.w3.org/2000/svg">
<path d="M22 7C22 7.6 21.6 8 21 8L5.4 8L7.7 10.3C8.1 10.7 8.1 11.3 7.7 11.7C7.3 12.1 6.7 12.1 6.3 11.7L2.3 7.7C2.2 7.6 2.1 7.5 2.1 7.4C2 7.3 2 7.1 2 7C2 6.9 2 6.7 2.1 6.6C2.1 6.5 2.2 6.4 2.3 6.3L6.3 2.3C6.7 1.9 7.3 1.9 7.7 2.3C8.1 2.7 8.1 3.3 7.7 3.7L5.4 6L21 6C21.6 6 22 6.4 22 7Z" fill="#231F20"/>
<path d="M2 17C2 16.4 2.4 16 3 16L18.6 16L16.3 13.7C15.9 13.3 15.9 12.7 16.3 12.3C16.7 11.9 17.3 11.9 17.7 12.3L21.7 16.3C21.8 16.4 21.9 16.5 21.9 16.6C22 16.7 22 16.9 22 17C22 17.1 22 17.3 21.9 17.4C21.9 17.5 21.8 17.6 21.7 17.7L17.7 21.7C17.3 22.1 16.7 22.1 16.3 21.7C15.9 21.3 15.9 20.7 16.3 20.3L18.6 18L3 18C2.4 18 2 17.6 2 17Z" fill="#231F20"/>
</svg>
