<svg width="24" height="24" viewBox="0 0 24 24" fill="none" xmlns="http://www.w3.org/2000/svg">
<path d="M4.87866 10.5447C5.44128 9.98214 6.20435 9.66596 7 9.66596L7 6.59228C7.00021 5.61928 7.29321 4.66816 7.84201 3.85901C8.3908 3.04987 9.17078 2.41898 10.0835 2.04603C10.9961 1.67307 12.0006 1.57476 12.97 1.76351C13.9393 1.95227 14.8302 2.41962 15.53 3.10656C16.1603 3.73176 16.6122 4.50951 16.84 5.36144C16.8728 5.48687 16.8802 5.61744 16.8618 5.74569C16.8434 5.87395 16.7995 5.99737 16.7327 6.10892C16.6658 6.22047 16.5773 6.31796 16.4722 6.39583C16.3671 6.4737 16.2474 6.53041 16.12 6.56274C15.9926 6.59507 15.86 6.60237 15.7298 6.58424C15.5995 6.5661 15.4742 6.52289 15.3609 6.45705C15.2476 6.39122 15.1486 6.30406 15.0695 6.20055C14.9904 6.09704 14.9328 5.97921 14.9 5.85378C14.7649 5.34158 14.4959 4.87312 14.12 4.49494C13.6999 4.08174 13.1646 3.80061 12.5821 3.68716C11.9996 3.57371 11.3959 3.63303 10.8477 3.85762C10.2994 4.08221 9.83118 4.46196 9.50226 4.94877C9.17334 5.43559 8.99854 6.00757 9 6.59228L9 9.66597L17 9.66601C17.7956 9.666 18.5587 9.98209 19.1213 10.5447C19.6839 11.1074 20 11.8705 20 12.6662L20 19.6665C20 20.4622 19.6839 21.2253 19.1213 21.788C18.5587 22.3506 17.7957 22.6667 17 22.6667L7 22.6666C6.20435 22.6666 5.44128 22.3506 4.87866 21.7879C4.31604 21.2253 4 20.4622 4 19.6665L4 12.6661C4 11.8704 4.31604 11.1073 4.87866 10.5447Z" fill="#231F20"/>
</svg>
