<svg width="65" height="65" viewBox="0 0 65 65" fill="none" xmlns="http://www.w3.org/2000/svg">
<g filter="url(#filter0_i_13447_1979)">
<path d="M13.5098 28.1794C15.0102 26.6794 17.045 25.8362 19.1667 25.8362L19.1667 17.6397C19.1673 15.045 19.9486 12.5087 21.4121 10.351C22.8756 8.19329 24.9555 6.51093 27.3893 5.51638C29.8231 4.52182 32.5016 4.25967 35.0866 4.76301C37.6716 5.26635 40.0472 6.51263 41.9134 8.34446C43.5943 10.0117 44.7992 12.0857 45.4067 14.3575C45.4943 14.692 45.5141 15.0402 45.465 15.3822C45.4159 15.7242 45.2988 16.0533 45.1205 16.3508C44.9422 16.6482 44.7062 16.9082 44.4259 17.1159C44.1455 17.3235 43.8264 17.4747 43.4867 17.5609C43.1471 17.6471 42.7935 17.6666 42.4461 17.6183C42.0988 17.5699 41.7645 17.4547 41.4624 17.2791C41.1603 17.1036 40.8963 16.8711 40.6854 16.5951C40.4746 16.3191 40.321 16.0049 40.2334 15.6704C39.873 14.3045 39.1559 13.0553 38.1534 12.0468C37.033 10.945 35.6057 10.1953 34.0523 9.89274C32.4989 9.5902 30.8893 9.74839 29.4272 10.3473C27.9652 10.9462 26.7166 11.9589 25.8394 13.257C24.9623 14.5552 24.4962 16.0805 24.5001 17.6397L24.5001 25.8362L45.8334 25.8363C47.9551 25.8363 49.99 26.6792 51.4903 28.1796C52.9906 29.68 53.8334 31.7149 53.8334 33.8367L53.8334 52.5044C53.8334 54.6262 52.9906 56.6612 51.4903 58.1615C49.99 59.6619 47.9552 60.5048 45.8334 60.5048L19.1667 60.5047C17.045 60.5047 15.0102 59.6619 13.5098 58.1615C12.0095 56.6611 11.1667 54.6261 11.1667 52.5043L11.1667 33.8366C11.1667 31.7148 12.0095 29.6798 13.5098 28.1794Z" fill="#959394"/>
</g>
<defs>
<filter id="filter0_i_13447_1979" x="11.1667" y="4.5136" width="42.6667" height="69.9912" filterUnits="userSpaceOnUse" color-interpolation-filters="sRGB">
<feFlood flood-opacity="0" result="BackgroundImageFix"/>
<feBlend mode="normal" in="SourceGraphic" in2="BackgroundImageFix" result="shape"/>
<feColorMatrix in="SourceAlpha" type="matrix" values="0 0 0 0 0 0 0 0 0 0 0 0 0 0 0 0 0 0 127 0" result="hardAlpha"/>
<feOffset dy="14"/>
<feGaussianBlur stdDeviation="12"/>
<feComposite in2="hardAlpha" operator="arithmetic" k2="-1" k3="1"/>
<feColorMatrix type="matrix" values="0 0 0 0 0 0 0 0 0 0 0 0 0 0 0 0 0 0 0.25 0"/>
<feBlend mode="normal" in2="shape" result="effect1_innerShadow_13447_1979"/>
</filter>
</defs>
</svg>
