<svg width="24" height="24" viewBox="0 0 24 24" fill="none" xmlns="http://www.w3.org/2000/svg">
<path d="M22.8616 11.2219L12.3621 1.1355C12.1721 0.954833 11.8271 0.954833 11.6382 1.1355L1.13864 11.2219C0.999662 11.3548 0.961616 11.5501 1.04068 11.7189C1.11864 11.8876 1.29964 11.9967 1.49963 11.9967H5.99943V22.5415C5.99943 22.7946 6.22339 23 6.4994 23H17.4989C17.7749 23 17.9989 22.7946 18.0009 22.5415V11.9967H22.5007C22.7007 11.9967 22.8807 11.8876 22.9597 11.7189C23.0386 11.5501 22.9996 11.3548 22.8616 11.2219ZM17.4989 11.0797C17.2229 11.0797 16.9989 11.2851 16.9989 11.5382V22.0831H6.99935V11.5382C6.99935 11.2851 6.77538 11.0797 6.49937 11.0797H2.66755L11.9991 2.11571L21.3307 11.0797H17.4989Z" fill="white" stroke="white"/>
</svg>
