<svg width="25" height="24" viewBox="0 0 25 24" fill="none" xmlns="http://www.w3.org/2000/svg">
<path fill-rule="evenodd" clip-rule="evenodd" d="M1.96809 0.292893C1.57757 -0.0976311 0.944404 -0.0976311 0.55388 0.292893C0.163355 0.683417 0.163355 1.31658 0.55388 1.70711L7.54858 8.70181C6.72274 9.04032 6.14105 9.85222 6.14105 10.8C6.14105 11.7191 6.68811 12.5105 7.47439 12.8662V13.7067C7.47439 14.593 7.9629 15.4072 8.74498 15.8243L11.4744 17.28V18.2785C10.6173 18.6019 10.0077 19.4298 10.0077 20.4C10.0077 21.6518 11.0226 22.6667 12.2744 22.6667C13.5263 22.6667 14.5411 21.6518 14.5411 20.4C14.5411 19.4297 13.9315 18.6019 13.0744 18.2785V14.6012L13.3135 14.4667L22.4583 23.6115C22.8488 24.0021 23.482 24.0021 23.8725 23.6115C24.263 23.221 24.263 22.5878 23.8725 22.1973L1.96809 0.292893ZM11.4744 12.6276L10.5059 11.6591C10.2503 12.2828 9.72463 12.7672 9.07439 12.967V13.7067C9.07439 14.0021 9.23723 14.2735 9.49792 14.4126L11.4744 15.4667V12.6276Z" fill="#C2C1C1"/>
<path d="M11.8125 1.59998C12.0178 1.24442 12.531 1.24442 12.7363 1.59998L14.8148 5.19998C15.02 5.55554 14.7634 5.99998 14.3529 5.99998H13.0744V7.69686C13.0744 8.38435 12.2645 8.75163 11.7473 8.2987C11.5739 8.14679 11.4744 7.92743 11.4744 7.69686V5.99998H10.1959C9.78538 5.99998 9.52878 5.55554 9.73406 5.19998L11.8125 1.59998Z" fill="#C2C1C1"/>
<path d="M16.2911 11.3465C15.9834 11.3473 15.7411 11.1053 15.7411 10.7976V10.6666H15.2077C14.9132 10.6666 14.6744 10.4279 14.6744 10.1333V7.46665C14.6744 7.1721 14.9132 6.93332 15.2077 6.93332H17.8744C18.169 6.93332 18.4078 7.1721 18.4078 7.46665V10.1333C18.4078 10.4279 18.169 10.6666 17.8744 10.6666H17.3411V10.7976C17.3411 11.0994 17.0965 11.3444 16.7947 11.3452L16.2911 11.3465Z" fill="#C2C1C1"/>
</svg>
