<svg width="24" height="24" viewBox="0 0 24 24" fill="none" xmlns="http://www.w3.org/2000/svg">
<path d="M12.4619 1.59998C12.2567 1.24442 11.7435 1.24442 11.5382 1.59998L9.45971 5.19998C9.25442 5.55554 9.51103 5.99998 9.92159 5.99998H11.2V15.4667L9.22357 14.4126C8.96288 14.2735 8.80004 14.0021 8.80004 13.7067V12.967C9.72653 12.6823 10.4 11.8198 10.4 10.8C10.4 9.54814 9.38522 8.53332 8.13337 8.53332C6.88152 8.53332 5.8667 9.54814 5.8667 10.8C5.8667 11.7191 6.41376 12.5105 7.20003 12.8662V13.7067C7.20003 14.593 7.68855 15.4072 8.47063 15.8243L11.2 17.28V18.2785C10.343 18.6019 9.73338 19.4298 9.73338 20.4C9.73338 21.6518 10.7482 22.6667 12.0001 22.6667C13.2519 22.6667 14.2667 21.6518 14.2667 20.4C14.2667 19.4297 13.6571 18.6019 12.8 18.2785V14.6012L15.8434 12.8894C16.5991 12.4643 17.0667 11.6646 17.0667 10.7976V10.6666H17.6001C17.8946 10.6666 18.1334 10.4279 18.1334 10.1333V7.46665C18.1334 7.1721 17.8946 6.93332 17.6001 6.93332H14.9334C14.6388 6.93332 14.4001 7.1721 14.4001 7.46665V10.1333C14.4001 10.4279 14.6388 10.6666 14.9334 10.6666H15.4667V10.7976C15.4667 11.0866 15.3108 11.3532 15.0589 11.4948L12.8 12.7655V5.99998H14.0785C14.4891 5.99998 14.7457 5.55554 14.5404 5.19998L12.4619 1.59998Z" fill="white"/>
</svg>
