<svg width="24" height="24" viewBox="0 0 24 24" fill="none" xmlns="http://www.w3.org/2000/svg">
<path d="M18.6022 1.34681C18.7922 1.1266 19.0686 1 19.3594 1H21.4898C21.9177 1 22.1479 1.50261 21.8684 1.82662L14.5415 10.319L23.4041 22.2011C23.6501 22.5308 23.4147 23 23.0033 23H16.8432C16.6863 23 16.5385 22.9263 16.444 22.8011L10.7935 15.309L4.30589 22.8267C4.21091 22.9367 4.07273 23 3.92735 23H1.56567C1.13773 23 0.907549 22.4974 1.18709 22.1734L9.07356 13.0323L0.604069 1.80105C0.35563 1.4716 0.590656 1 1.00328 1H7.34311C7.50095 1 7.64953 1.07454 7.7439 1.20107L12.8372 8.02985L18.6022 1.34681ZM17.6098 20.7662H19.649L6.48589 3.11651H4.29759L17.6098 20.7662Z" fill="#E1E0E1"/>
</svg>
