<svg width="364" height="198" viewBox="0 0 364 198" fill="none" xmlns="http://www.w3.org/2000/svg">
<path fill-rule="evenodd" clip-rule="evenodd" d="M211.053 145.741L279.073 127.515C285.498 125.793 289.094 119.564 287.373 113.14L275.222 67.7932C273.501 61.369 267.272 57.7728 260.847 59.4941L192.827 77.7201C186.403 79.4415 182.807 85.6704 184.528 92.0946L196.679 137.442C198.4 143.866 204.629 147.462 211.053 145.741ZM204.236 135.416C204.844 137.684 206.761 138.79 209.028 138.183L277.048 119.957C279.316 119.349 280.422 117.433 279.815 115.165L267.664 69.8183C267.057 67.551 265.14 66.4444 262.873 67.0519L194.852 85.278C192.585 85.8855 191.478 87.8021 192.086 90.0694L204.236 135.416Z" fill="#525152"/>
<path d="M261.386 95.7878C263.207 102.586 262.359 107.94 261.109 111.549C260.482 113.362 259.748 114.747 259.186 115.662C258.905 116.119 258.668 116.458 258.509 116.673C258.429 116.78 258.37 116.857 258.334 116.901L258.299 116.944C257.489 117.895 257.632 119.238 258.624 119.945C259.62 120.655 261.09 120.458 261.909 119.507L261.913 119.503L261.917 119.498L261.927 119.485L261.956 119.451C261.979 119.424 262.008 119.388 262.044 119.343C262.115 119.254 262.211 119.132 262.326 118.975C262.558 118.663 262.869 118.216 263.223 117.64C263.93 116.489 264.808 114.819 265.55 112.675C267.04 108.37 267.965 102.203 265.92 94.5727C263.876 86.9429 259.992 82.0638 256.549 79.0808C254.833 77.5949 253.238 76.5876 252.05 75.9444C251.456 75.6226 250.963 75.3914 250.607 75.2363C250.428 75.1588 250.284 75.1002 250.178 75.0589C250.125 75.0382 250.081 75.0219 250.048 75.0096L250.006 74.9941L249.991 74.9887L249.984 74.9865L249.979 74.9847C248.794 74.57 247.423 75.1354 246.915 76.2474C246.41 77.3562 246.957 78.591 248.135 79.0092L248.186 79.0288C248.239 79.0494 248.329 79.0856 248.452 79.1389C248.697 79.2455 249.072 79.4202 249.544 79.6758C250.488 80.1873 251.816 81.0202 253.266 82.2762C256.152 84.7771 259.564 88.9892 261.386 95.7878Z" fill="#525152"/>
<path d="M256.173 109.367C257.254 106.12 258.091 101.632 256.851 97.0028C255.611 92.3736 252.642 88.9053 250.081 86.6341C248.791 85.4899 247.576 84.6234 246.677 84.0392C246.226 83.7465 245.853 83.523 245.585 83.3694C245.452 83.2926 245.344 83.2331 245.267 83.1911C245.228 83.1701 245.197 83.1534 245.174 83.1411L245.145 83.1259L245.135 83.1208L245.239 83.1802L245.128 83.1173C244.027 82.5496 242.592 82.9343 241.922 83.9765C241.253 85.0174 241.601 86.3204 242.699 86.8893L242.706 86.8932L242.755 86.9197C242.803 86.9456 242.88 86.9879 242.981 87.0464C243.185 87.1635 243.49 87.3451 243.867 87.5901C244.623 88.0813 245.66 88.8203 246.761 89.797C248.983 91.7675 251.348 94.6023 252.316 98.2179C253.285 101.833 252.654 105.471 251.716 108.288C251.251 109.684 250.722 110.843 250.313 111.646C250.109 112.047 249.936 112.357 249.818 112.56C249.759 112.662 249.714 112.736 249.685 112.783L249.656 112.83L249.652 112.837C248.985 113.879 249.335 115.181 250.435 115.748C251.536 116.316 252.972 115.931 253.642 114.889L253.706 114.779L253.646 114.883L253.652 114.873L253.669 114.846C253.683 114.824 253.702 114.794 253.725 114.756C253.771 114.681 253.834 114.576 253.911 114.442C254.066 114.176 254.278 113.795 254.522 113.317C255.008 112.361 255.628 111.003 256.173 109.367Z" fill="#525152"/>
<path d="M247.028 107.424C247.903 105.426 248.624 102.577 247.782 99.4329C246.939 96.2886 244.89 94.1817 243.134 92.8895C242.251 92.2403 241.419 91.7786 240.8 91.4759C240.49 91.324 240.229 91.2104 240.038 91.132C239.943 91.0927 239.864 91.0621 239.805 91.0398L239.732 91.0125L239.707 91.0033L239.697 90.9999C239.697 90.9999 240.245 91.2195 239.689 90.9972C238.504 90.5826 237.133 91.1479 236.625 92.2599C236.12 93.3685 236.664 94.6018 237.841 95.0202L237.857 95.0262C237.877 95.0339 237.915 95.0487 237.969 95.0708C238.077 95.1151 238.246 95.1884 238.46 95.293C238.89 95.5032 239.485 95.8328 240.116 96.2969C241.386 97.2313 242.709 98.6395 243.247 100.648C243.785 102.657 243.344 104.537 242.711 105.982C242.397 106.699 242.046 107.282 241.779 107.679C241.646 107.876 241.536 108.024 241.465 108.117C241.429 108.163 241.404 108.195 241.39 108.212L241.379 108.225C240.569 109.176 240.714 110.516 241.707 111.223C242.702 111.932 244.172 111.736 244.991 110.785C245.362 110.314 244.997 110.778 244.997 110.778L245.003 110.771L245.021 110.75L245.071 110.69C245.11 110.641 245.163 110.575 245.226 110.493C245.352 110.33 245.521 110.101 245.714 109.815C246.099 109.243 246.588 108.427 247.028 107.424Z" fill="#525152"/>
<path d="M238.713 101.863C239.261 103.91 238.892 105.593 238.29 106.808C237.997 107.399 237.661 107.858 237.383 108.181C237.243 108.342 237.117 108.472 237.015 108.57C236.964 108.62 236.919 108.661 236.881 108.694C236.862 108.711 236.845 108.726 236.83 108.739L236.809 108.757L236.799 108.765L236.795 108.769C236.795 108.769 237.116 108.47 236.79 108.772C235.807 109.581 234.334 109.534 233.501 108.666C232.683 107.813 232.787 106.485 233.723 105.672C233.732 105.662 233.752 105.642 233.778 105.612C233.848 105.531 233.958 105.386 234.059 105.182C234.246 104.805 234.458 104.123 234.178 103.078C233.898 102.033 233.373 101.549 233.023 101.316C232.833 101.189 232.666 101.119 232.565 101.084C232.527 101.07 232.5 101.063 232.487 101.059C231.269 100.823 230.516 99.7249 230.798 98.5773C231.086 97.4091 232.337 96.6314 233.593 96.8404C234.027 96.9389 233.599 96.8413 233.599 96.8413L233.604 96.8423L233.617 96.8444L233.644 96.8494C233.664 96.853 233.686 96.8573 233.711 96.8624C233.76 96.8725 233.82 96.8858 233.889 96.9028C234.026 96.9367 234.201 96.9861 234.402 97.0567C234.804 97.1974 235.325 97.426 235.874 97.7917C237.003 98.5431 238.164 99.8165 238.713 101.863Z" fill="#525152"/>
<path d="M219.564 66.6497L219.564 66.6632V66.6767V174.4V174.413L219.564 174.427C219.589 177.635 219.619 183.95 219.569 184.848C219.551 185.171 219.51 185.459 219.425 185.766C219.339 186.077 219.191 186.471 218.912 186.979C218.588 187.571 217.989 188.164 215.831 190.072C215.535 190.334 215.217 190.615 214.878 190.917C212.721 192.66 210.675 193.662 207.92 193.938L208.27 197.421L207.92 193.938C205.052 194.226 190.064 194.476 182.716 194.5C182.714 194.5 182.713 194.5 182.711 194.5L180.413 194.5L180.385 194.5C180.383 194.5 180.382 194.5 180.38 194.5C173.032 194.476 158.043 194.226 155.175 193.938L154.826 197.421L155.175 193.938C152.421 193.662 150.375 192.66 148.217 190.917C147.88 190.617 147.563 190.336 147.269 190.076L147.265 190.072C145.107 188.164 144.508 187.571 144.183 186.979C143.905 186.471 143.756 186.077 143.67 185.766C143.585 185.459 143.544 185.171 143.527 184.848C143.477 183.95 143.507 177.635 143.532 174.427L143.532 174.413V174.4V66.6767V66.6632L143.532 66.6497C143.507 63.4409 143.477 57.1263 143.527 56.2283C143.544 55.9058 143.585 55.6171 143.67 55.3099C143.756 54.9994 143.905 54.6056 144.183 54.0977C144.508 53.5056 145.107 52.9126 147.265 51.0039L147.267 51.0022C147.562 50.7415 147.879 50.4605 148.217 50.1594C150.375 48.4162 152.42 47.4142 155.175 47.1378C158.043 46.8502 173.03 46.6007 180.379 46.5762H180.413H182.717C190.065 46.6007 205.053 46.8502 207.92 47.1378C210.675 47.4142 212.721 48.4162 214.878 50.1594C215.217 50.4611 215.535 50.7427 215.831 51.0039C217.989 52.9126 218.588 53.5056 218.912 54.0977C219.191 54.6056 219.339 54.9994 219.425 55.3099C219.51 55.6171 219.551 55.9058 219.569 56.2283C219.619 57.1263 219.589 63.4409 219.564 66.6497Z" fill="url(#paint0_linear_2318_211640)" stroke="#525152" stroke-width="7"/>
<defs>
<linearGradient id="paint0_linear_2318_211640" x1="181.548" y1="43.0762" x2="181.548" y2="198" gradientUnits="userSpaceOnUse">
<stop offset="0.133599" stop-color="#252525"/>
<stop offset="1" stop-color="#3A3A3A"/>
</linearGradient>
</defs>
</svg>
