<svg width="480" height="64" viewBox="0 0 480 64" fill="none" xmlns="http://www.w3.org/2000/svg">
<g clip-path="url(#clip0_1666_21535)">
<rect x="-58" y="71.25" width="270.5" height="7" transform="rotate(-30 -58 71.25)" fill="black"/>
<rect x="-86" y="71.25" width="270.5" height="7" transform="rotate(-30 -86 71.25)" fill="black"/>
<rect x="-114" y="71.25" width="270.5" height="7" transform="rotate(-30 -114 71.25)" fill="black"/>
<rect x="-30" y="71.25" width="270.5" height="7" transform="rotate(-30 -30 71.25)" fill="black"/>
<rect x="-2" y="71.25" width="270.5" height="7" transform="rotate(-30 -2 71.25)" fill="black"/>
<rect x="26" y="71.25" width="270.5" height="7" transform="rotate(-30 26 71.25)" fill="black"/>
<rect x="54" y="71.25" width="270.5" height="7" transform="rotate(-30 54 71.25)" fill="black"/>
<rect x="82" y="71.25" width="270.5" height="7" transform="rotate(-30 82 71.25)" fill="black"/>
<rect x="110" y="71.25" width="270.5" height="7" transform="rotate(-30 110 71.25)" fill="black"/>
<rect x="138" y="71.25" width="270.5" height="7" transform="rotate(-30 138 71.25)" fill="black"/>
<rect x="166" y="71.25" width="270.5" height="7" transform="rotate(-30 166 71.25)" fill="black"/>
<rect x="248" y="71.25" width="270.5" height="7" transform="rotate(-30 248 71.25)" fill="black"/>
<rect x="220" y="71.25" width="270.5" height="7" transform="rotate(-30 220 71.25)" fill="black"/>
<rect x="192" y="71.25" width="270.5" height="7" transform="rotate(-30 192 71.25)" fill="black"/>
<rect x="276" y="71.25" width="270.5" height="7" transform="rotate(-30 276 71.25)" fill="black"/>
<rect x="304" y="71.25" width="270.5" height="7" transform="rotate(-30 304 71.25)" fill="black"/>
<rect x="332" y="71.25" width="270.5" height="7" transform="rotate(-30 332 71.25)" fill="black"/>
<rect x="360" y="71.25" width="270.5" height="7" transform="rotate(-30 360 71.25)" fill="black"/>
<rect x="388" y="71.25" width="270.5" height="7" transform="rotate(-30 388 71.25)" fill="black"/>
<rect x="416" y="71.25" width="270.5" height="7" transform="rotate(-30 416 71.25)" fill="black"/>
<rect x="444" y="71.25" width="270.5" height="7" transform="rotate(-30 444 71.25)" fill="black"/>
</g>
<defs>
<clipPath id="clip0_1666_21535">
<rect width="480" height="64" fill="white"/>
</clipPath>
</defs>
</svg>
