<svg width="188" height="132" viewBox="0 0 188 132" fill="none" xmlns="http://www.w3.org/2000/svg">
<path fill-rule="evenodd" clip-rule="evenodd" d="M114.729 60.571H161.25C165.644 60.571 169.004 57.1651 169.004 52.7112V21.2719C169.004 16.818 165.644 13.4121 161.25 13.4121H114.729C110.335 13.4121 106.975 16.818 106.975 21.2719V52.7112C106.975 57.1651 110.335 60.571 114.729 60.571ZM112.144 52.7112C112.144 54.2832 113.178 55.3311 114.729 55.3311H161.25C162.801 55.3311 163.835 54.2832 163.835 52.7112V21.2719C163.835 19.7 162.801 18.652 161.25 18.652H114.729C113.178 18.652 112.144 19.7 112.144 21.2719V52.7112Z" fill="#525152"/>
<path d="M155.388 36.9824C155.388 41.6959 153.931 45.0118 152.517 47.1299C151.806 48.1936 151.102 48.9625 150.587 49.457C150.329 49.7041 150.12 49.8822 149.981 49.9936C149.912 50.0493 149.861 50.0883 149.831 50.1109L149.801 50.1325C149.121 50.6071 148.983 51.5007 149.495 52.1303C150.009 52.7617 150.981 52.8896 151.666 52.4161L151.669 52.414L151.673 52.4115L151.682 52.4053L151.706 52.388C151.725 52.3743 151.75 52.3562 151.781 52.3336C151.841 52.2885 151.923 52.2256 152.024 52.1446C152.225 51.9825 152.5 51.7474 152.824 51.4363C153.472 50.8144 154.318 49.8863 155.158 48.6278C156.845 46.1014 158.49 42.2722 158.49 36.9824C158.49 31.6926 156.845 27.8633 155.158 25.3369C154.318 24.0785 153.472 23.1503 152.824 22.5284C152.5 22.2173 152.225 21.9822 152.024 21.8201C151.923 21.7391 151.841 21.6762 151.781 21.6311C151.75 21.6085 151.725 21.5904 151.706 21.5767L151.682 21.5594L151.673 21.5532L151.669 21.5507L151.666 21.5486C150.981 21.0751 150.009 21.203 149.495 21.8344C148.983 22.464 149.121 23.3576 149.801 23.8322L149.831 23.8538C149.861 23.8764 149.912 23.9154 149.981 23.9711C150.12 24.0825 150.329 24.2606 150.587 24.5077C151.102 25.0022 151.806 25.7711 152.517 26.8348C153.931 28.9529 155.388 32.2689 155.388 36.9824Z" fill="#525152"/>
<path d="M149.74 44.8628C150.985 42.9499 152.287 40.1918 152.287 36.9824C152.287 33.7729 150.985 31.0148 149.74 29.1019C149.112 28.1382 148.485 27.367 148.011 26.8333C147.774 26.5659 147.573 26.3565 147.429 26.2108C147.357 26.1379 147.298 26.0809 147.256 26.0403C147.235 26.02 147.218 26.0038 147.205 25.9918L147.19 25.977L147.184 25.972L147.24 26.0284L147.18 25.9685C146.575 25.4105 145.593 25.4105 144.987 25.9685C144.383 26.5259 144.382 27.4291 144.985 27.9874L144.989 27.9912L145.016 28.0169C145.042 28.0419 145.084 28.0825 145.139 28.138C145.249 28.2491 145.412 28.4193 145.611 28.6431C146.009 29.0919 146.545 29.7498 147.08 30.5724C148.161 32.2321 149.185 34.4757 149.185 36.9824C149.185 39.4891 148.161 41.7326 147.08 43.3923C146.545 44.2149 146.009 44.8728 145.611 45.3216C145.412 45.5454 145.249 45.7156 145.139 45.8267C145.084 45.8822 145.042 45.9228 145.016 45.9478L144.989 45.9735L144.985 45.9773C144.382 46.5356 144.383 47.4388 144.987 47.9962C145.593 48.5543 146.575 48.5543 147.18 47.9962L147.24 47.9363L147.184 47.9927L147.19 47.9877L147.205 47.9729C147.218 47.9609 147.235 47.9447 147.256 47.9244C147.298 47.8838 147.357 47.8268 147.429 47.7539C147.573 47.6082 147.774 47.3988 148.011 47.1314C148.485 46.5977 149.112 45.8265 149.74 44.8628Z" fill="#525152"/>
<path d="M144.237 42.0207C145.137 40.8804 146.084 39.1624 146.084 36.9824C146.084 34.8024 145.137 33.0843 144.237 31.944C143.785 31.3711 143.333 30.9283 142.989 30.6252C142.817 30.4731 142.67 30.3545 142.562 30.2707C142.508 30.2287 142.463 30.1953 142.429 30.1707L142.387 30.1403L142.372 30.13L142.367 30.126C142.367 30.126 142.679 30.3632 142.362 30.123C141.677 29.6494 140.705 29.7774 140.191 30.4088C139.679 31.0382 139.815 31.9303 140.495 32.405L140.504 32.4116C140.516 32.4201 140.538 32.4363 140.568 32.4599C140.629 32.5073 140.725 32.5841 140.844 32.6887C141.082 32.8992 141.405 33.2155 141.728 33.6251C142.379 34.4497 142.983 35.5899 142.983 36.9824C142.983 38.3749 142.379 39.515 141.728 40.3396C141.405 40.7492 141.082 41.0655 140.844 41.276C140.725 41.3806 140.629 41.4574 140.568 41.5048C140.538 41.5284 140.516 41.5446 140.504 41.5531L140.495 41.5597C139.815 42.0344 139.679 42.9265 140.191 43.5559C140.705 44.1873 141.677 44.3153 142.362 43.8417C142.679 43.6015 142.367 43.8387 142.367 43.8387L142.372 43.8347L142.387 43.8244L142.429 43.794C142.463 43.7694 142.508 43.736 142.562 43.694C142.67 43.6102 142.817 43.4916 142.989 43.3395C143.333 43.0364 143.785 42.5936 144.237 42.0207Z" fill="#525152"/>
<path d="M139.881 36.9824C139.881 38.4012 139.358 39.4262 138.766 40.1079C138.478 40.4396 138.185 40.6777 137.952 40.8385C137.836 40.9191 137.733 40.9813 137.651 41.027C137.61 41.0499 137.574 41.0688 137.544 41.084C137.53 41.0915 137.516 41.0982 137.504 41.1039L137.487 41.1119L137.48 41.1154L137.477 41.117C137.477 41.117 137.733 40.9797 137.473 41.1185C136.707 41.4715 135.776 41.1854 135.393 40.4794C135.017 39.786 135.31 38.9454 136.046 38.5813C136.054 38.5769 136.07 38.5672 136.092 38.552C136.15 38.5118 136.245 38.4372 136.344 38.3224C136.528 38.111 136.78 37.7069 136.78 36.9824C136.78 36.2578 136.528 35.8537 136.344 35.6423C136.245 35.5275 136.15 35.4529 136.092 35.4127C136.07 35.3975 136.054 35.3878 136.046 35.3834C135.31 35.0193 135.017 34.1787 135.393 33.4853C135.776 32.7793 136.707 32.4932 137.473 32.8462C137.733 32.985 137.477 32.8477 137.477 32.8477L137.48 32.8493L137.487 32.8528L137.504 32.8608C137.516 32.8665 137.53 32.8732 137.544 32.8807C137.574 32.8959 137.61 32.9148 137.651 32.9377C137.733 32.9834 137.836 33.0456 137.952 33.1262C138.185 33.287 138.478 33.5251 138.766 33.8568C139.358 34.5385 139.881 35.5635 139.881 36.9824Z" fill="#525152"/>
<path d="M81.9582 121.208H34.0415C25.8957 121.208 19.6665 114.979 19.6665 106.833V30.166C19.6665 22.0202 25.8957 15.791 34.0415 15.791H81.9582C90.104 15.791 96.3332 22.0202 96.3332 30.166V106.833C96.3332 114.979 90.104 121.208 81.9582 121.208ZM34.0415 25.3743C31.1665 25.3743 29.2498 27.291 29.2498 30.166V106.833C29.2498 109.708 31.1665 111.624 34.0415 111.624H81.9582C84.8332 111.624 86.7498 109.708 86.7498 106.833V30.166C86.7498 27.291 84.8332 25.3743 81.9582 25.3743H34.0415ZM57.9998 102.041C55.1248 102.041 53.2082 100.124 53.2082 97.2494C53.2082 94.3744 55.1248 92.4577 57.9998 92.4577C60.8748 92.4577 62.7915 94.3744 62.7915 97.2494C62.7915 100.124 60.8748 102.041 57.9998 102.041Z" fill="#525152"/>
<path fill-rule="evenodd" clip-rule="evenodd" d="M114.729 118.571H161.25C165.644 118.571 169.004 115.165 169.004 110.711V79.2719C169.004 74.818 165.644 71.4121 161.25 71.4121H114.729C110.335 71.4121 106.975 74.818 106.975 79.2719V110.711C106.975 115.165 110.335 118.571 114.729 118.571ZM112.144 110.711C112.144 112.283 113.178 113.331 114.729 113.331H161.25C162.801 113.331 163.835 112.283 163.835 110.711V79.2719C163.835 77.7 162.801 76.652 161.25 76.652H114.729C113.178 76.652 112.144 77.7 112.144 79.2719V110.711Z" fill="#525152"/>
<path d="M155.388 94.9824C155.388 99.6959 153.931 103.012 152.517 105.13C151.806 106.194 151.102 106.962 150.587 107.457C150.329 107.704 150.12 107.882 149.981 107.994C149.912 108.049 149.861 108.088 149.831 108.111L149.801 108.132C149.121 108.607 148.983 109.501 149.495 110.13C150.009 110.762 150.981 110.89 151.666 110.416L151.669 110.414L151.673 110.412L151.682 110.405L151.706 110.388C151.725 110.374 151.75 110.356 151.781 110.334C151.841 110.289 151.923 110.226 152.024 110.145C152.225 109.982 152.5 109.747 152.824 109.436C153.472 108.814 154.318 107.886 155.158 106.628C156.845 104.101 158.49 100.272 158.49 94.9824C158.49 89.6926 156.845 85.8633 155.158 83.3369C154.318 82.0785 153.472 81.1503 152.824 80.5284C152.5 80.2173 152.225 79.9822 152.024 79.8201C151.923 79.7391 151.841 79.6762 151.781 79.6311C151.75 79.6085 151.725 79.5904 151.706 79.5767L151.682 79.5594L151.673 79.5532L151.669 79.5507L151.666 79.5486C150.981 79.0751 150.009 79.203 149.495 79.8344C148.983 80.464 149.121 81.3576 149.801 81.8322L149.831 81.8538C149.861 81.8764 149.912 81.9154 149.981 81.9711C150.12 82.0825 150.329 82.2606 150.587 82.5077C151.102 83.0022 151.806 83.7711 152.517 84.8348C153.931 86.9529 155.388 90.2689 155.388 94.9824Z" fill="#525152"/>
<path d="M149.74 102.863C150.985 100.95 152.287 98.1918 152.287 94.9824C152.287 91.7729 150.985 89.0148 149.74 87.1019C149.112 86.1382 148.485 85.367 148.011 84.8333C147.774 84.5659 147.573 84.3565 147.429 84.2108C147.357 84.1379 147.298 84.0809 147.256 84.0403C147.235 84.02 147.218 84.0038 147.205 83.9918L147.19 83.977L147.184 83.972L147.24 84.0284L147.18 83.9685C146.575 83.4105 145.593 83.4105 144.987 83.9685C144.383 84.5259 144.382 85.4291 144.985 85.9874L144.989 85.9912L145.016 86.0169C145.042 86.0419 145.084 86.0825 145.139 86.138C145.249 86.2491 145.412 86.4193 145.611 86.6431C146.009 87.0919 146.545 87.7498 147.08 88.5724C148.161 90.2321 149.185 92.4757 149.185 94.9824C149.185 97.4891 148.161 99.7326 147.08 101.392C146.545 102.215 146.009 102.873 145.611 103.322C145.412 103.545 145.249 103.716 145.139 103.827C145.084 103.882 145.042 103.923 145.016 103.948L144.989 103.974L144.985 103.977C144.382 104.536 144.383 105.439 144.987 105.996C145.593 106.554 146.575 106.554 147.18 105.996L147.24 105.936L147.184 105.993L147.19 105.988L147.205 105.973C147.218 105.961 147.235 105.945 147.256 105.924C147.298 105.884 147.357 105.827 147.429 105.754C147.573 105.608 147.774 105.399 148.011 105.131C148.485 104.598 149.112 103.827 149.74 102.863Z" fill="#525152"/>
<path d="M144.237 100.021C145.137 98.8804 146.084 97.1624 146.084 94.9824C146.084 92.8024 145.137 91.0843 144.237 89.944C143.785 89.3711 143.333 88.9283 142.989 88.6252C142.817 88.4731 142.67 88.3545 142.562 88.2707C142.508 88.2287 142.463 88.1953 142.429 88.1707L142.387 88.1403L142.372 88.13L142.367 88.126C142.367 88.126 142.679 88.3632 142.362 88.123C141.677 87.6494 140.705 87.7774 140.191 88.4088C139.679 89.0382 139.815 89.9303 140.495 90.405L140.504 90.4116C140.516 90.4201 140.538 90.4363 140.568 90.4599C140.629 90.5073 140.725 90.5841 140.844 90.6887C141.082 90.8992 141.405 91.2155 141.728 91.6251C142.379 92.4497 142.983 93.5899 142.983 94.9824C142.983 96.3749 142.379 97.515 141.728 98.3396C141.405 98.7492 141.082 99.0655 140.844 99.276C140.725 99.3806 140.629 99.4574 140.568 99.5048C140.538 99.5284 140.516 99.5446 140.504 99.5531L140.495 99.5597C139.815 100.034 139.679 100.927 140.191 101.556C140.705 102.187 141.677 102.315 142.362 101.842C142.679 101.602 142.367 101.839 142.367 101.839L142.372 101.835L142.387 101.824L142.429 101.794C142.463 101.769 142.508 101.736 142.562 101.694C142.67 101.61 142.817 101.492 142.989 101.34C143.333 101.036 143.785 100.594 144.237 100.021Z" fill="#525152"/>
<path d="M139.881 94.9824C139.881 96.4012 139.358 97.4262 138.766 98.1079C138.478 98.4396 138.185 98.6777 137.952 98.8385C137.836 98.9191 137.733 98.9813 137.651 99.027C137.61 99.0499 137.574 99.0688 137.544 99.084C137.53 99.0915 137.516 99.0982 137.504 99.1039L137.487 99.1119L137.48 99.1154L137.477 99.117C137.477 99.117 137.733 98.9797 137.473 99.1185C136.707 99.4715 135.776 99.1854 135.393 98.4794C135.017 97.786 135.31 96.9454 136.046 96.5813C136.054 96.5769 136.07 96.5672 136.092 96.552C136.15 96.5118 136.245 96.4372 136.344 96.3224C136.528 96.111 136.78 95.7069 136.78 94.9824C136.78 94.2578 136.528 93.8537 136.344 93.6423C136.245 93.5275 136.15 93.4529 136.092 93.4127C136.07 93.3975 136.054 93.3878 136.046 93.3834C135.31 93.0193 135.017 92.1787 135.393 91.4853C135.776 90.7793 136.707 90.4932 137.473 90.8462C137.733 90.985 137.477 90.8477 137.477 90.8477L137.48 90.8493L137.487 90.8528L137.504 90.8608C137.516 90.8665 137.53 90.8732 137.544 90.8807C137.574 90.8959 137.61 90.9148 137.651 90.9377C137.733 90.9834 137.836 91.0456 137.952 91.1262C138.185 91.287 138.478 91.5251 138.766 91.8568C139.358 92.5385 139.881 93.5635 139.881 94.9824Z" fill="#525152"/>
<path d="M102.73 72V61.2H105.298V72H102.73ZM98.4819 67.8V65.4H109.546V67.8H98.4819Z" fill="#525152"/>
</svg>
