<svg width="105" height="105" viewBox="0 0 105 105" fill="none" xmlns="http://www.w3.org/2000/svg">
<path fill-rule="evenodd" clip-rule="evenodd" d="M96.007 68.9799L94.9222 69.2705V77.486C94.9222 83.8057 90.0895 88.6384 83.7697 88.6384H16.8551C10.5354 88.6384 5.70264 83.8057 5.70264 77.486V32.8762C5.70264 32.3642 5.73436 31.8619 5.79602 31.3712C6.16257 26.8253 9.28985 22.9405 14.0536 21.664L78.6882 4.34526C84.7925 2.70959 90.7114 6.12685 92.3471 12.2312L103.893 55.321C105.529 61.4253 102.111 67.3442 96.007 68.9799ZM42.5572 21.7238H83.7697C85.0276 21.7238 86.2265 21.9152 87.3402 22.2717L85.1654 14.1555C84.5881 12.001 82.767 10.9496 80.6125 11.5269L42.5572 21.7238ZM94.9222 61.4847C96.4999 60.7038 97.2077 59.0978 96.7113 57.2453L94.9222 50.5682V61.4847ZM18.8539 81.2031C18.8538 81.203 18.854 81.2032 18.8539 81.2031L16.8551 81.2035C14.6246 81.2035 13.1376 79.7165 13.1376 77.486V32.8762C13.1376 30.6457 14.6246 29.1587 16.8551 29.1587H83.7697C86.0002 29.1587 87.4872 30.6457 87.4872 32.8762V77.486C87.4872 79.7165 86.0002 81.2035 83.7697 81.2035L18.8539 81.2031Z" fill="white"/>
<path d="M75.3378 55.168C75.3378 61.856 73.2421 66.5611 71.2078 69.5664C70.1861 71.0758 69.1724 72.1668 68.4315 72.8684C68.0612 73.2191 67.7599 73.4717 67.5611 73.6298C67.4617 73.7089 67.3881 73.7642 67.3445 73.7962L67.3022 73.8268C66.3241 74.5003 66.1251 75.7683 66.8621 76.6616C67.6012 77.5575 68.9993 77.7391 69.9847 77.0671L69.989 77.0642L69.9942 77.0607L70.0069 77.0519L70.0419 77.0273C70.0694 77.0078 70.1053 76.9821 70.1488 76.9501C70.2359 76.8861 70.354 76.7969 70.4986 76.6819C70.7877 76.4519 71.1834 76.1184 71.6495 75.6769C72.5814 74.7945 73.7982 73.4775 75.007 71.6919C77.4335 68.1071 79.7987 62.6737 79.7987 55.168C79.7987 47.6622 77.4335 42.2287 75.007 38.644C73.7982 36.8583 72.5814 35.5413 71.6495 34.6589C71.1834 34.2175 70.7877 33.8839 70.4986 33.654C70.354 33.5389 70.2359 33.4497 70.1488 33.3857C70.1053 33.3537 70.0694 33.328 70.0419 33.3085L70.0069 33.284L69.9942 33.2752L69.9891 33.2716L69.9847 33.2687C68.9993 32.5968 67.6012 32.7783 66.8621 33.6742C66.1251 34.5675 66.3241 35.8355 67.3022 36.509L67.3445 36.5396C67.3881 36.5716 67.4617 36.6269 67.5611 36.706C67.7599 36.8641 68.0612 37.1167 68.4315 37.4674C69.1724 38.1691 70.1861 39.26 71.2078 40.7694C73.2421 43.7747 75.3378 48.4799 75.3378 55.168Z" fill="white"/>
<path d="M67.2134 66.3496C69.0048 63.6353 70.8769 59.7219 70.8769 55.168C70.8769 50.614 69.0048 46.7005 67.2134 43.9862C66.3109 42.6187 65.4084 41.5245 64.7269 40.7672C64.3854 40.3878 64.0974 40.0907 63.8898 39.884C63.7859 39.7806 63.702 39.6996 63.6413 39.642C63.611 39.6132 63.5865 39.5902 63.5681 39.5732L63.5454 39.5522L63.5376 39.5451L63.6183 39.6251L63.5323 39.5402C62.6612 38.7483 61.249 38.7483 60.3779 39.5402C59.508 40.3311 59.5069 41.6126 60.3746 42.4048L60.3804 42.4102L60.4192 42.4466C60.4565 42.4821 60.5164 42.5397 60.5955 42.6185C60.7538 42.7761 60.9885 43.0177 61.2743 43.3353C61.8474 43.972 62.6178 44.9055 63.3882 46.0727C64.9424 48.4276 66.416 51.6112 66.416 55.168C66.416 58.7247 64.9424 61.9082 63.3882 64.2631C62.6178 65.4303 61.8474 66.3638 61.2743 67.0006C60.9885 67.3182 60.7538 67.5597 60.5955 67.7174C60.5164 67.7961 60.4565 67.8537 60.4192 67.8892L60.3804 67.9256L60.3746 67.931C59.5069 68.7232 59.508 70.0048 60.3779 70.7956C61.249 71.5875 62.6612 71.5875 63.5323 70.7956L63.6183 70.7107L63.5376 70.7908L63.5454 70.7836L63.5681 70.7626C63.5865 70.7456 63.611 70.7226 63.6413 70.6938C63.702 70.6362 63.7859 70.5552 63.8898 70.4518C64.0974 70.2451 64.3854 69.948 64.7269 69.5686C65.4084 68.8113 66.3109 67.7171 67.2134 66.3496Z" fill="white"/>
<path d="M59.298 62.3169C60.5924 60.6989 61.955 58.2612 61.9551 55.168C61.955 52.0747 60.5924 49.6369 59.298 48.019C58.6477 47.2061 57.9976 46.5777 57.504 46.1476C57.2562 45.9318 57.0451 45.7635 56.8893 45.6446C56.8113 45.585 56.7468 45.5377 56.6983 45.5027L56.6375 45.4595L56.6165 45.4449L56.6084 45.4394C56.6084 45.4394 57.0578 45.7759 56.602 45.435C55.6165 44.7631 54.2185 44.9446 53.4794 45.8405C52.7426 46.7336 52.9387 47.9994 53.9161 48.673L53.9294 48.6824C53.9461 48.6944 53.9775 48.7174 54.0215 48.7509C54.1096 48.8182 54.247 48.9271 54.4175 49.0756C54.7603 49.3743 55.2254 49.8231 55.6903 50.4043C56.6264 51.5743 57.4941 53.1921 57.4942 55.168C57.4941 57.1438 56.6264 58.7615 55.6903 59.9316C55.2254 60.5127 54.7603 60.9615 54.4175 61.2602C54.247 61.4087 54.1096 61.5177 54.0215 61.5849C53.9775 61.6184 53.9461 61.6414 53.9294 61.6534L53.9161 61.6629C52.9387 62.3364 52.7426 63.6022 53.4793 64.4953C54.2185 65.3912 55.6165 65.5728 56.602 64.9008C57.0578 64.5599 56.6084 64.8964 56.6084 64.8964L56.6165 64.8909L56.6375 64.8763L56.6983 64.8331C56.7468 64.7981 56.8113 64.7508 56.8893 64.6912C57.0451 64.5723 57.2562 64.404 57.504 64.1882C57.9976 63.7582 58.6477 63.1298 59.298 62.3169Z" fill="white"/>
<path d="M53.0333 55.168C53.0332 57.1812 52.2804 58.6355 51.4293 59.6028C51.015 60.0735 50.5937 60.4113 50.2591 60.6394C50.0914 60.7538 49.9433 60.842 49.8258 60.9069C49.7669 60.9394 49.7153 60.9663 49.6723 60.9878C49.6508 60.9985 49.6314 61.0079 49.6143 61.0161L49.5903 61.0274L49.5797 61.0323L49.5746 61.0346C49.5746 61.0346 49.9434 60.8399 49.5699 61.0368C48.4681 61.5376 47.1283 61.1316 46.5774 60.13C46.0362 59.146 46.4576 57.9533 47.5171 57.4367C47.528 57.4304 47.5508 57.4167 47.5826 57.3951C47.6662 57.338 47.8026 57.2322 47.9459 57.0693C48.2099 56.7693 48.5723 56.196 48.5724 55.168C48.5723 54.1399 48.2099 53.5665 47.9459 53.2665C47.8026 53.1036 47.6662 52.9978 47.5826 52.9408C47.5508 52.9191 47.528 52.9054 47.5171 52.8991C46.4576 52.3825 46.0362 51.1898 46.5774 50.2058C47.1283 49.2042 48.4681 48.7982 49.5699 49.299C49.9434 49.4959 49.5746 49.3012 49.5746 49.3012L49.5797 49.3035L49.5903 49.3084L49.6143 49.3197C49.6314 49.3279 49.6508 49.3373 49.6723 49.348C49.7153 49.3695 49.7669 49.3964 49.8258 49.4289C49.9433 49.4938 50.0914 49.582 50.2591 49.6964C50.5937 49.9245 51.015 50.2623 51.4293 50.7331C52.2804 51.7003 53.0332 53.1547 53.0333 55.168Z" fill="white"/>
</svg>
