<svg width="220" height="50" viewBox="0 0 220 50" fill="none" xmlns="http://www.w3.org/2000/svg">
<path d="M22.1198 12.8878C24.6879 12.0402 27.459 12.0308 30.0328 12.861C32.6067 13.6912 34.85 15.318 36.4389 17.5064L39.0649 15.5999C37.0718 12.8547 34.2577 10.814 31.029 9.77254C27.8004 8.73112 24.3243 8.74289 21.1027 9.80614C17.8812 10.8694 15.081 12.9291 13.1065 15.6878C11.4849 17.9534 10.4892 20.5942 10.2032 23.345H3.7178V12.593H11.6286L14.0625 9.34791H0.472656V40.382L3.7178 38.2159V26.5901H10.1966C10.4841 29.4691 11.5482 32.226 13.2877 34.5604C15.3148 37.2806 18.1541 39.2862 21.3954 40.2874C24.6368 41.2885 28.1125 41.2336 31.3206 40.1303C34.5286 39.0271 37.303 36.9327 39.243 34.1497L36.5808 32.294C35.0343 34.5125 32.8226 36.1821 30.2652 37.0616C27.7078 37.941 24.9371 37.9849 22.3531 37.1868C19.7692 36.3886 17.5058 34.7898 15.8899 32.6213C14.2739 30.4528 13.3891 27.8268 13.3631 25.1225C13.3371 22.4182 14.1714 19.7757 15.7454 17.5765C17.3194 15.3773 19.5516 13.7354 22.1198 12.8878Z" fill="#868385"/>
<path d="M24.274 19.4145C25.4582 19.0237 26.7361 19.0194 27.923 19.4022C29.1099 19.785 30.1444 20.5352 30.8771 21.5444L33.5031 19.6379C32.3662 18.0719 30.761 16.9078 28.9192 16.3138C27.0775 15.7197 25.0946 15.7264 23.2569 16.3329C21.4192 16.9394 19.8219 18.1143 18.6956 19.6879C17.5692 21.2616 16.9723 23.1525 16.9908 25.0876C17.0094 27.0227 17.6426 28.9018 18.7989 30.4535C19.9552 32.0053 21.5748 33.1493 23.4237 33.7204C25.2727 34.2915 27.2554 34.2602 29.0854 33.6309C30.9154 33.0016 32.498 31.8069 33.6047 30.2194L30.9425 28.3636C30.2293 29.3867 29.2094 30.1566 28.0301 30.5621C26.8508 30.9677 25.573 30.9879 24.3815 30.6198C23.1899 30.2518 22.1462 29.5145 21.401 28.5145C20.6558 27.5145 20.2478 26.3035 20.2358 25.0564C20.2239 23.8094 20.6086 22.5908 21.3344 21.5767C22.0603 20.5625 23.0897 19.8054 24.274 19.4145Z" fill="#868385"/>
<path d="M80.9415 12.6351H78.3209V13.0471H80.9415V12.6351ZM73.4537 13.9141C73.0482 14.1344 72.7331 14.4034 72.559 14.7317H73.4537V13.9141ZM87.0596 17.8345L86.0724 18.8401L86.0247 19.3515H87.2096V17.8345H87.0596ZM78.1493 25.8696L73.0482 20.4887L73.8844 30.2096L78.1493 25.8696ZM79.1583 25.8829L84.0349 31.0188L85.0469 20.1594H84.9471V19.9862L79.1583 25.8829ZM72.9498 19.3443L78.656 25.3539L82.0312 21.9193H77.2726V20.1223H82.7762V21.1612L84.9471 18.952V17.0266H85.3389L85.4655 15.6675H72.6335L72.9498 19.3443ZM86.7266 34.9175C86.7501 35.0578 86.7624 35.202 86.7624 35.349C86.7624 36.7784 85.6037 37.9369 84.1745 37.9369C83.182 37.9369 82.3199 37.3783 81.8858 36.5582H75.5572V37.9101H73.8922V36.5548C73.6972 36.5274 73.5101 36.342 73.4934 36.1475L73.1379 32.0153L64.3173 41L63.7901 40.4819L73.0552 31.0535L72.0564 19.4424L63.2422 10.1446V9.12063L71.9581 18.2999L71.7284 15.6303H70.646V14.7318H71.5984C71.6148 14.6813 71.6365 14.6223 71.665 14.5564C71.9817 13.8245 72.6357 13.3012 73.4538 12.929V12.3352H74.9891V12.427C75.789 12.2432 76.6347 12.1433 77.4225 12.0925V11.7367H81.8402V13.9456H77.4225V13.0125C76.64 13.071 75.7762 13.1778 74.9891 13.3651V14.7318H85.4302C85.0205 13.7649 83.4274 13.3122 81.8401 13.107V12.1921C83.4331 12.3895 85.0705 12.835 85.8925 13.7973C86.1118 13.5181 86.4526 13.3387 86.8352 13.3387C87.4969 13.3387 88.0333 13.875 88.0333 14.5367C88.0333 15.1983 87.4969 15.7347 86.8352 15.7347C86.6705 15.7347 86.5135 15.7015 86.3706 15.6413L86.2415 17.0265H86.8394L94.727 9V10.0245L87.8529 17.0264H87.996V20.1594H85.9495L84.8568 31.8843L92.9401 40.3974L92.4038 40.9063L86.7266 34.9175ZM81.5864 35.349C81.5864 34.0224 82.5846 32.9289 83.8709 32.7787L83.9451 31.9834L78.6513 26.3992L73.967 31.1707L74.3532 35.6598H81.6049C81.5927 35.5579 81.5864 35.4542 81.5864 35.349ZM82.8285 35.349C82.8285 36.0923 83.431 36.695 84.1744 36.695C84.9177 36.695 85.5203 36.0923 85.5203 35.349C85.5203 34.6057 84.9177 34.0031 84.1744 34.0031C83.431 34.0031 82.8285 34.6057 82.8285 35.349ZM83.3003 35.349C83.3003 34.8663 83.6917 34.4749 84.1744 34.4749C84.6571 34.4749 85.0485 34.8663 85.0485 35.349C85.0485 35.8318 84.6571 36.2231 84.1744 36.2231C83.6917 36.2231 83.3003 35.8318 83.3003 35.349Z" fill="#868385"/>
<path d="M134.729 41C135.263 41 135.797 40.9732 136.329 40.9198V36.1198C135.798 36.1847 135.263 36.2115 134.729 36.2C131.758 36.2 128.909 35.02 126.809 32.9196C124.709 30.8192 123.529 27.9704 123.529 25C123.529 22.0296 124.709 19.1808 126.809 17.0804C128.909 14.98 131.758 13.8 134.729 13.8C135.263 13.7885 135.798 13.8153 136.329 13.8802V9.0802C135.797 9.02677 135.263 9 134.729 9C130.485 9 126.415 10.6857 123.415 13.6863C120.414 16.6869 118.729 20.7565 118.729 25C118.729 29.2435 120.414 33.3131 123.415 36.3137C126.415 39.3143 130.485 41 134.729 41Z" fill="#868385"/>
<path d="M161.929 41C162.463 41 162.997 40.9732 163.529 40.9198V36.1198C162.998 36.1847 162.463 36.2115 161.929 36.2C159.375 36.2002 156.898 35.3278 154.908 33.7273C152.918 32.1268 151.535 29.8943 150.988 27.4H160.329V22.6H150.988C151.535 20.1057 152.918 17.8732 154.908 16.2727C156.898 14.6722 159.375 13.7998 161.929 13.8C162.463 13.7885 162.998 13.8153 163.529 13.8802V9.0802C162.997 9.02677 162.463 9 161.929 9C157.685 9 153.615 10.6857 150.615 13.6863C147.614 16.6869 145.929 20.7565 145.929 25C145.929 29.2435 147.614 33.3131 150.615 36.3137C153.615 39.3143 157.685 41 161.929 41Z" fill="#868385"/>
<path fill-rule="evenodd" clip-rule="evenodd" d="M187.527 9V19C187.527 20.2377 188.019 21.4247 188.894 22.2998C189.769 23.175 190.956 23.6667 192.194 23.6667H197.527C198.765 23.6667 199.952 23.175 200.827 22.2998C201.702 21.4247 202.194 20.2377 202.194 19V9H198.861V19C198.861 19.3536 198.72 19.6928 198.47 19.9428C198.22 20.1929 197.881 20.3333 197.527 20.3333H192.194C191.84 20.3333 191.501 20.1929 191.251 19.9428C191.001 19.6928 190.861 19.3536 190.861 19V9H187.527Z" fill="#868385"/>
<path fill-rule="evenodd" clip-rule="evenodd" d="M204.861 9V23.6667H208.194V18.3333L214.861 23.6667H219.527L210.194 16.3333L219.527 9H214.861L208.194 14.3333V9H204.861Z" fill="#868385"/>
<path fill-rule="evenodd" clip-rule="evenodd" d="M202.194 26.3333V29.6667H192.194C191.84 29.6667 191.501 29.8071 191.251 30.0572C191.001 30.3072 190.861 30.6464 190.861 31V36.3333C190.861 36.687 191.001 37.0261 191.251 37.2761C191.501 37.5262 191.84 37.6667 192.194 37.6667H202.194V41H192.194C190.956 41 189.769 40.5083 188.894 39.6332C188.019 38.758 187.527 37.571 187.527 36.3333V31C187.527 29.7623 188.019 28.5753 188.894 27.7002C189.769 26.825 190.956 26.3333 192.194 26.3333H202.194Z" fill="#868385"/>
<path fill-rule="evenodd" clip-rule="evenodd" d="M204.861 41V31C204.861 29.7623 205.352 28.5753 206.228 27.7002C207.103 26.825 208.29 26.3333 209.527 26.3333H214.861C216.098 26.3333 217.285 26.825 218.161 27.7002C219.036 28.5753 219.527 29.7623 219.527 31V41H216.194V37.6667H208.194V41H204.861ZM208.194 34.3333H216.194V31C216.194 30.6464 216.054 30.3072 215.803 30.0572C215.553 29.8071 215.214 29.6667 214.861 29.6667H209.527C209.174 29.6667 208.835 29.8071 208.585 30.0572C208.334 30.3072 208.194 30.6464 208.194 31V34.3333Z" fill="#868385"/>
<path fill-rule="evenodd" clip-rule="evenodd" d="M187.527 9V19C187.527 20.2377 188.019 21.4247 188.894 22.2998C189.769 23.175 190.956 23.6667 192.194 23.6667H197.527C198.765 23.6667 199.952 23.175 200.827 22.2998C201.702 21.4247 202.194 20.2377 202.194 19V9H198.861V19C198.861 19.3536 198.72 19.6928 198.47 19.9428C198.22 20.1929 197.881 20.3333 197.527 20.3333H192.194C191.84 20.3333 191.501 20.1929 191.251 19.9428C191.001 19.6928 190.861 19.3536 190.861 19V9H187.527Z" stroke="#868385"/>
<path fill-rule="evenodd" clip-rule="evenodd" d="M204.861 9V23.6667H208.194V18.3333L214.861 23.6667H219.527L210.194 16.3333L219.527 9H214.861L208.194 14.3333V9H204.861Z" stroke="#868385"/>
<path fill-rule="evenodd" clip-rule="evenodd" d="M202.194 26.3333V29.6667H192.194C191.84 29.6667 191.501 29.8071 191.251 30.0572C191.001 30.3072 190.861 30.6464 190.861 31V36.3333C190.861 36.687 191.001 37.0261 191.251 37.2761C191.501 37.5262 191.84 37.6667 192.194 37.6667H202.194V41H192.194C190.956 41 189.769 40.5083 188.894 39.6332C188.019 38.758 187.527 37.571 187.527 36.3333V31C187.527 29.7623 188.019 28.5753 188.894 27.7002C189.769 26.825 190.956 26.3333 192.194 26.3333H202.194Z" stroke="#868385"/>
<path fill-rule="evenodd" clip-rule="evenodd" d="M204.861 41V31C204.861 29.7623 205.352 28.5753 206.228 27.7002C207.103 26.825 208.29 26.3333 209.527 26.3333H214.861C216.098 26.3333 217.285 26.825 218.161 27.7002C219.036 28.5753 219.527 29.7623 219.527 31V41H216.194V37.6667H208.194V41H204.861ZM208.194 34.3333H216.194V31C216.194 30.6464 216.054 30.3072 215.803 30.0572C215.553 29.8071 215.214 29.6667 214.861 29.6667H209.527C209.174 29.6667 208.835 29.8071 208.585 30.0572C208.334 30.3072 208.194 30.6464 208.194 31V34.3333Z" stroke="#868385"/>
</svg>
