<svg width="184" height="184" viewBox="0 0 184 184" fill="none" xmlns="http://www.w3.org/2000/svg">
<path d="M176.5 120.5V160.5C176.5 169.337 169.337 176.5 160.5 176.5H23.5C14.6634 176.5 7.5 169.337 7.5 160.5V120.5" stroke="#00BDCD" stroke-width="15" stroke-linecap="round"/>
<path fill-rule="evenodd" clip-rule="evenodd" d="M99.4985 12.5039C99.4985 8.36177 96.1407 5.00391 91.9985 5.00391C87.8564 5.00391 84.4985 8.36177 84.4985 12.5039V104.492L49.7833 70.0373C46.8434 67.1194 42.0947 67.1373 39.1768 70.0772C36.2589 73.0172 36.2768 77.7659 39.2167 80.6838L86.7152 127.826C89.6395 130.729 94.3575 130.729 97.2818 127.826L144.78 80.6838C147.72 77.7659 147.738 73.0172 144.82 70.0772C141.902 67.1373 137.154 67.1194 134.214 70.0373L99.4985 104.492V12.5039Z" fill="white"/>
</svg>
