<svg width="424" height="185" viewBox="0 0 424 185" fill="none" xmlns="http://www.w3.org/2000/svg">
<g clip-path="url(#clip0_4408_267156)">
<path d="M276.309 69.3965C280.64 70.1602 283.47 71.9311 285.205 73.4719C286.076 74.2458 286.677 74.9671 287.055 75.4834C287.243 75.7414 287.376 75.9476 287.457 76.0827C287.498 76.1503 287.526 76.1999 287.543 76.2292L287.558 76.2576L287.559 76.2593C287.893 76.912 288.693 77.1722 289.348 76.8404C290.005 76.5076 290.268 75.7053 289.935 75.0484L289.934 75.047L289.933 75.0455L289.932 75.0421L289.927 75.0336L289.915 75.0102C289.905 74.9918 289.892 74.9677 289.876 74.9384C289.844 74.8799 289.798 74.8001 289.739 74.7019C289.62 74.5054 289.445 74.2344 289.207 73.9096C288.733 73.2602 288.006 72.3935 286.975 71.478C284.906 69.6402 281.633 67.6274 276.772 66.7703C271.912 65.9133 268.148 66.6853 265.575 67.7045C264.293 68.2122 263.314 68.7782 262.645 69.226C262.311 69.45 262.054 69.6449 261.875 69.7888C261.786 69.8608 261.716 69.9202 261.665 69.9641C261.64 69.9861 261.62 70.0042 261.604 70.0182L261.585 70.036L261.578 70.0425L261.575 70.0451L261.574 70.0463L261.572 70.0473C261.035 70.5508 261.007 71.3945 261.511 71.932C262.013 72.4678 262.853 72.4968 263.391 71.9979L263.392 71.9966L263.416 71.9751C263.442 71.9531 263.485 71.9161 263.547 71.8667C263.67 71.7677 263.865 71.6191 264.13 71.4412C264.661 71.0851 265.473 70.6129 266.557 70.1838C268.714 69.3293 271.978 68.6328 276.309 69.3965Z" fill="white"/>
<path d="M282.707 75.4561C281.135 74.0916 278.795 72.5426 275.846 72.0226C272.897 71.5027 270.169 72.1579 268.225 72.9026C267.246 73.2778 266.444 73.6841 265.882 73.9989C265.601 74.1566 265.379 74.2922 265.224 74.3908C265.146 74.4402 265.085 74.4803 265.041 74.5095C265.019 74.524 265.002 74.5358 264.989 74.5447L264.973 74.5557L264.968 74.5594L264.965 74.5609L265.028 74.5211L264.964 74.562C264.361 74.9844 264.214 75.8158 264.636 76.419C265.058 77.0214 265.888 77.1684 266.491 76.7481L266.492 76.7471L266.495 76.7452L266.523 76.7266C266.55 76.7086 266.593 76.68 266.652 76.6424C266.771 76.5672 266.952 76.4566 267.187 76.3246C267.659 76.0599 268.343 75.713 269.179 75.3928C270.865 74.7467 273.08 74.2427 275.383 74.6488C277.686 75.0549 279.595 76.2859 280.959 77.4698C281.634 78.0566 282.159 78.6167 282.512 79.0268C282.688 79.2313 282.82 79.3971 282.906 79.5083C282.948 79.5639 282.979 79.6057 282.999 79.6317L283.018 79.6587L283.02 79.6614L283.021 79.6627C283.444 80.264 284.274 80.4097 284.876 79.9878C285.48 79.5655 285.626 78.7341 285.204 78.1309L285.158 78.0705L285.203 78.1292L285.201 78.1272L285.197 78.1218L285.186 78.106C285.177 78.0933 285.165 78.0762 285.149 78.0551C285.118 78.0128 285.074 77.9541 285.018 77.8812C284.906 77.7353 284.743 77.5318 284.533 77.2875C284.114 76.7998 283.499 76.1436 282.707 75.4561Z" fill="white"/>
<path d="M279.274 79.6555C278.36 78.7087 276.923 77.6282 274.92 77.275C272.917 76.9218 271.197 77.4456 270.015 78.0229C269.421 78.3129 268.947 78.6239 268.617 78.8654C268.451 78.9866 268.32 79.0916 268.227 79.1698C268.181 79.2089 268.143 79.2414 268.116 79.2661L268.081 79.2969L268.07 79.3076L268.065 79.3117L268.063 79.3135C268.063 79.3135 268.33 79.0856 268.062 79.315C267.524 79.8184 267.497 80.6622 268 81.1996C268.502 81.7353 269.342 81.7644 269.88 81.2659L269.887 81.2592C269.897 81.2507 269.915 81.2348 269.941 81.2128C269.994 81.1686 270.079 81.1001 270.192 81.0167C270.421 80.849 270.76 80.6264 271.185 80.4191C272.04 80.0016 273.178 79.6755 274.457 79.9011C275.737 80.1267 276.694 80.8223 277.355 81.507C277.683 81.847 277.925 82.1721 278.083 82.408C278.161 82.5253 278.218 82.6186 278.252 82.6782C278.269 82.7079 278.281 82.729 278.287 82.7403L278.291 82.7491C278.626 83.4014 279.426 83.6614 280.08 83.3297C280.737 82.9968 281 82.1945 280.667 81.5377C280.494 81.2304 280.666 81.5357 280.666 81.5357L280.665 81.5334L280.662 81.528L280.655 81.514L280.633 81.4733C280.616 81.4407 280.592 81.3973 280.561 81.3446C280.5 81.2393 280.413 81.0958 280.299 80.9253C280.072 80.5856 279.733 80.1311 279.274 79.6555Z" fill="white"/>
<path d="M273.994 82.5272C275.298 82.7572 276.161 83.3664 276.699 83.9779C276.961 84.2755 277.136 84.5621 277.249 84.7851C277.306 84.897 277.348 84.9942 277.377 85.0708C277.392 85.1092 277.404 85.1426 277.414 85.1704C277.419 85.1843 277.423 85.1968 277.426 85.2078L277.431 85.2232L277.433 85.23L277.434 85.2332L277.434 85.2348C277.434 85.2348 277.346 84.9939 277.435 85.2363C277.645 85.9421 277.243 86.6845 276.537 86.8944C275.844 87.1007 275.115 86.7164 274.891 86.0337C274.888 86.0266 274.881 86.0115 274.87 85.9904C274.842 85.9346 274.788 85.8423 274.697 85.7393C274.53 85.5496 274.197 85.2708 273.531 85.1534C272.865 85.036 272.456 85.1839 272.235 85.3051C272.114 85.3709 272.032 85.439 271.986 85.4818C271.969 85.498 271.957 85.5099 271.952 85.5156C271.508 86.0803 270.692 86.1922 270.111 85.7613C269.519 85.3226 269.395 84.4875 269.834 83.896C270 83.6986 269.835 83.8948 269.835 83.8948L269.836 83.8935L269.838 83.8908L269.842 83.8851L269.852 83.8722C269.859 83.8631 269.867 83.8528 269.876 83.8413C269.895 83.8185 269.917 83.7912 269.945 83.7602C269.999 83.6984 270.071 83.6213 270.163 83.5356C270.345 83.3647 270.608 83.1553 270.956 82.9651C271.67 82.5745 272.69 82.2974 273.994 82.5272Z" fill="white"/>
<path fill-rule="evenodd" clip-rule="evenodd" d="M287.548 106.58L295.189 63.2487C295.601 60.9119 294.231 59.3566 292.574 59.0644L264.562 54.1251C262.905 53.8329 261.085 54.8259 260.673 57.1627L253.033 100.494C252.621 102.831 253.991 104.386 255.648 104.679L283.66 109.618C285.317 109.91 287.136 108.917 287.548 106.58ZM291.3 107.242L298.94 63.9102C299.662 59.8178 297.179 56.1532 293.211 55.4535L265.198 50.5141C261.23 49.8144 257.643 52.4088 256.922 56.5012L249.281 99.8328C248.56 103.925 251.042 107.59 255.011 108.29L283.023 113.229C286.992 113.929 290.578 111.334 291.3 107.242Z" fill="white"/>
</g>
<g clip-path="url(#clip1_4408_267156)">
<path fill-rule="evenodd" clip-rule="evenodd" d="M176.729 28.9787C181.3 28.6171 187.017 28.1686 192.124 28.0482C192.569 28.0377 193.016 28.0213 193.469 28.0048C197.116 27.8712 201.08 27.726 206.148 30.572C209.394 32.3953 214.019 35.8868 214.602 42.5557L222.704 135.162C223.288 141.831 219.34 146.073 216.459 148.432C211.963 152.115 208.033 152.66 204.419 153.162C203.97 153.224 203.527 153.286 203.087 153.353C198.036 154.121 192.329 154.672 187.764 155.11L187.703 155.116L187.583 155.126C183.012 155.487 177.289 155.936 172.181 156.057C171.737 156.067 171.289 156.083 170.837 156.1C167.19 156.234 163.225 156.379 158.158 153.533C154.912 151.71 150.287 148.218 149.703 141.549L141.601 48.9423C141.018 42.2734 144.966 38.0318 147.846 35.6725C152.343 31.9898 156.273 31.4443 159.887 30.9427C160.335 30.8804 160.779 30.8188 161.219 30.7519C166.269 29.9836 171.984 29.4322 176.548 28.9944L176.609 28.9886L176.729 28.9787ZM177.305 36.2626C181.913 35.8981 187.426 35.4677 192.297 35.3528C192.807 35.3408 193.287 35.3258 193.741 35.3117C197.326 35.1998 199.354 35.1365 202.57 36.9426C205.053 38.3371 207.056 40.1367 207.324 43.1925L215.426 135.799C215.693 138.855 214.032 140.975 211.829 142.779C208.976 145.116 206.968 145.406 203.418 145.919C202.968 145.984 202.493 146.052 201.988 146.129C197.172 146.862 191.667 147.395 187.066 147.836L187.007 147.842C182.399 148.206 176.88 148.637 172.009 148.752C171.499 148.764 171.019 148.779 170.564 148.793C166.98 148.905 164.952 148.968 161.736 147.162C159.253 145.768 157.25 143.968 156.982 140.912L148.88 48.3055C148.613 45.2497 150.273 43.1295 152.476 41.3251C155.33 38.988 157.338 38.6982 160.887 38.1858C161.338 38.1209 161.813 38.0523 162.317 37.9755C167.134 37.2429 172.645 36.709 177.246 36.2677L177.305 36.2626Z" fill="white"/>
<path d="M198.204 135.189L173.836 137.321C173.139 137.382 172.745 137.653 172.805 138.182C172.88 138.843 174.203 140.218 175.963 140.295C177.37 140.357 180.748 140.024 186.322 139.537C191.897 139.049 195.251 138.792 196.627 138.487C198.346 138.105 199.41 136.522 199.369 135.858C199.337 135.326 198.901 135.128 198.204 135.189Z" fill="white"/>
</g>
<defs>
<clipPath id="clip0_4408_267156">
<rect width="64" height="64" fill="white" transform="translate(248.153 44.8008) rotate(10)"/>
</clipPath>
<clipPath id="clip1_4408_267156">
<rect width="128" height="128" fill="white" transform="translate(112.818 33.873) rotate(-5)"/>
</clipPath>
</defs>
</svg>
