<svg xmlns="http://www.w3.org/2000/svg" width="248" height="248"><rect width="248" height="248" fill="#fff"/><rect x="0.0" y="0.0" width="9.9" height="9.9" fill="#000"/><rect x="9.9" y="0.0" width="9.9" height="9.9" fill="#000"/><rect x="19.8" y="0.0" width="9.9" height="9.9" fill="#000"/><rect x="29.8" y="0.0" width="9.9" height="9.9" fill="#000"/><rect x="39.7" y="0.0" width="9.9" height="9.9" fill="#000"/><rect x="49.6" y="0.0" width="9.9" height="9.9" fill="#000"/><rect x="59.5" y="0.0" width="9.9" height="9.9" fill="#000"/><rect x="89.3" y="0.0" width="9.9" height="9.9" fill="#000"/><rect x="109.1" y="0.0" width="9.9" height="9.9" fill="#000"/><rect x="138.9" y="0.0" width="9.9" height="9.9" fill="#000"/><rect x="178.6" y="0.0" width="9.9" height="9.9" fill="#000"/><rect x="188.5" y="0.0" width="9.9" height="9.9" fill="#000"/><rect x="198.4" y="0.0" width="9.9" height="9.9" fill="#000"/><rect x="208.3" y="0.0" width="9.9" height="9.9" fill="#000"/><rect x="218.2" y="0.0" width="9.9" height="9.9" fill="#000"/><rect x="228.2" y="0.0" width="9.9" height="9.9" fill="#000"/><rect x="238.1" y="0.0" width="9.9" height="9.9" fill="#000"/><rect x="0.0" y="9.9" width="9.9" height="9.9" fill="#000"/><rect x="9.9" y="9.9" width="9.9" height="9.9" fill="#000"/><rect x="19.8" y="9.9" width="9.9" height="9.9" fill="#000"/><rect x="29.8" y="9.9" width="9.9" height="9.9" fill="#000"/><rect x="39.7" y="9.9" width="9.9" height="9.9" fill="#000"/><rect x="49.6" y="9.9" width="9.9" height="9.9" fill="#000"/><rect x="59.5" y="9.9" width="9.9" height="9.9" fill="#000"/><rect x="89.3" y="9.9" width="9.9" height="9.9" fill="#000"/><rect x="119.0" y="9.9" width="9.9" height="9.9" fill="#000"/><rect x="129.0" y="9.9" width="9.9" height="9.9" fill="#000"/><rect x="138.9" y="9.9" width="9.9" height="9.9" fill="#000"/><rect x="158.7" y="9.9" width="9.9" height="9.9" fill="#000"/><rect x="178.6" y="9.9" width="9.9" height="9.9" fill="#000"/><rect x="188.5" y="9.9" width="9.9" height="9.9" fill="#000"/><rect x="198.4" y="9.9" width="9.9" height="9.9" fill="#000"/><rect x="208.3" y="9.9" width="9.9" height="9.9" fill="#000"/><rect x="218.2" y="9.9" width="9.9" height="9.9" fill="#000"/><rect x="228.2" y="9.9" width="9.9" height="9.9" fill="#000"/><rect x="238.1" y="9.9" width="9.9" height="9.9" fill="#000"/><rect x="0.0" y="19.8" width="9.9" height="9.9" fill="#000"/><rect x="9.9" y="19.8" width="9.9" height="9.9" fill="#000"/><rect x="19.8" y="19.8" width="9.9" height="9.9" fill="#000"/><rect x="29.8" y="19.8" width="9.9" height="9.9" fill="#000"/><rect x="39.7" y="19.8" width="9.9" height="9.9" fill="#000"/><rect x="49.6" y="19.8" width="9.9" height="9.9" fill="#000"/><rect x="59.5" y="19.8" width="9.9" height="9.9" fill="#000"/><rect x="69.4" y="19.8" width="9.9" height="9.9" fill="#000"/><rect x="119.0" y="19.8" width="9.9" height="9.9" fill="#000"/><rect x="138.9" y="19.8" width="9.9" height="9.9" fill="#000"/><rect x="148.8" y="19.8" width="9.9" height="9.9" fill="#000"/><rect x="168.6" y="19.8" width="9.9" height="9.9" fill="#000"/><rect x="0.0" y="29.8" width="9.9" height="9.9" fill="#000"/><rect x="9.9" y="29.8" width="9.9" height="9.9" fill="#000"/><rect x="19.8" y="29.8" width="9.9" height="9.9" fill="#000"/><rect x="29.8" y="29.8" width="9.9" height="9.9" fill="#000"/><rect x="39.7" y="29.8" width="9.9" height="9.9" fill="#000"/><rect x="49.6" y="29.8" width="9.9" height="9.9" fill="#000"/><rect x="59.5" y="29.8" width="9.9" height="9.9" fill="#000"/><rect x="99.2" y="29.8" width="9.9" height="9.9" fill="#000"/><rect x="129.0" y="29.8" width="9.9" height="9.9" fill="#000"/><rect x="158.7" y="29.8" width="9.9" height="9.9" fill="#000"/><rect x="168.6" y="29.8" width="9.9" height="9.9" fill="#000"/><rect x="0.0" y="39.7" width="9.9" height="9.9" fill="#000"/><rect x="9.9" y="39.7" width="9.9" height="9.9" fill="#000"/><rect x="19.8" y="39.7" width="9.9" height="9.9" fill="#000"/><rect x="29.8" y="39.7" width="9.9" height="9.9" fill="#000"/><rect x="39.7" y="39.7" width="9.9" height="9.9" fill="#000"/><rect x="49.6" y="39.7" width="9.9" height="9.9" fill="#000"/><rect x="59.5" y="39.7" width="9.9" height="9.9" fill="#000"/><rect x="79.4" y="39.7" width="9.9" height="9.9" fill="#000"/><rect x="89.3" y="39.7" width="9.9" height="9.9" fill="#000"/><rect x="99.2" y="39.7" width="9.9" height="9.9" fill="#000"/><rect x="109.1" y="39.7" width="9.9" height="9.9" fill="#000"/><rect x="129.0" y="39.7" width="9.9" height="9.9" fill="#000"/><rect x="158.7" y="39.7" width="9.9" height="9.9" fill="#000"/><rect x="0.0" y="49.6" width="9.9" height="9.9" fill="#000"/><rect x="9.9" y="49.6" width="9.9" height="9.9" fill="#000"/><rect x="19.8" y="49.6" width="9.9" height="9.9" fill="#000"/><rect x="29.8" y="49.6" width="9.9" height="9.9" fill="#000"/><rect x="39.7" y="49.6" width="9.9" height="9.9" fill="#000"/><rect x="49.6" y="49.6" width="9.9" height="9.9" fill="#000"/><rect x="59.5" y="49.6" width="9.9" height="9.9" fill="#000"/><rect x="89.3" y="49.6" width="9.9" height="9.9" fill="#000"/><rect x="99.2" y="49.6" width="9.9" height="9.9" fill="#000"/><rect x="109.1" y="49.6" width="9.9" height="9.9" fill="#000"/><rect x="119.0" y="49.6" width="9.9" height="9.9" fill="#000"/><rect x="138.9" y="49.6" width="9.9" height="9.9" fill="#000"/><rect x="148.8" y="49.6" width="9.9" height="9.9" fill="#000"/><rect x="158.7" y="49.6" width="9.9" height="9.9" fill="#000"/><rect x="178.6" y="49.6" width="9.9" height="9.9" fill="#000"/><rect x="188.5" y="49.6" width="9.9" height="9.9" fill="#000"/><rect x="198.4" y="49.6" width="9.9" height="9.9" fill="#000"/><rect x="208.3" y="49.6" width="9.9" height="9.9" fill="#000"/><rect x="218.2" y="49.6" width="9.9" height="9.9" fill="#000"/><rect x="228.2" y="49.6" width="9.9" height="9.9" fill="#000"/><rect x="238.1" y="49.6" width="9.9" height="9.9" fill="#000"/><rect x="0.0" y="59.5" width="9.9" height="9.9" fill="#000"/><rect x="9.9" y="59.5" width="9.9" height="9.9" fill="#000"/><rect x="19.8" y="59.5" width="9.9" height="9.9" fill="#000"/><rect x="29.8" y="59.5" width="9.9" height="9.9" fill="#000"/><rect x="39.7" y="59.5" width="9.9" height="9.9" fill="#000"/><rect x="49.6" y="59.5" width="9.9" height="9.9" fill="#000"/><rect x="59.5" y="59.5" width="9.9" height="9.9" fill="#000"/><rect x="69.4" y="59.5" width="9.9" height="9.9" fill="#000"/><rect x="79.4" y="59.5" width="9.9" height="9.9" fill="#000"/><rect x="99.2" y="59.5" width="9.9" height="9.9" fill="#000"/><rect x="119.0" y="59.5" width="9.9" height="9.9" fill="#000"/><rect x="129.0" y="59.5" width="9.9" height="9.9" fill="#000"/><rect x="138.9" y="59.5" width="9.9" height="9.9" fill="#000"/><rect x="148.8" y="59.5" width="9.9" height="9.9" fill="#000"/><rect x="178.6" y="59.5" width="9.9" height="9.9" fill="#000"/><rect x="188.5" y="59.5" width="9.9" height="9.9" fill="#000"/><rect x="198.4" y="59.5" width="9.9" height="9.9" fill="#000"/><rect x="208.3" y="59.5" width="9.9" height="9.9" fill="#000"/><rect x="218.2" y="59.5" width="9.9" height="9.9" fill="#000"/><rect x="228.2" y="59.5" width="9.9" height="9.9" fill="#000"/><rect x="238.1" y="59.5" width="9.9" height="9.9" fill="#000"/><rect x="0.0" y="69.4" width="9.9" height="9.9" fill="#000"/><rect x="59.5" y="69.4" width="9.9" height="9.9" fill="#000"/><rect x="99.2" y="69.4" width="9.9" height="9.9" fill="#000"/><rect x="129.0" y="69.4" width="9.9" height="9.9" fill="#000"/><rect x="138.9" y="69.4" width="9.9" height="9.9" fill="#000"/><rect x="148.8" y="69.4" width="9.9" height="9.9" fill="#000"/><rect x="158.7" y="69.4" width="9.9" height="9.9" fill="#000"/><rect x="198.4" y="69.4" width="9.9" height="9.9" fill="#000"/><rect x="208.3" y="69.4" width="9.9" height="9.9" fill="#000"/><rect x="19.8" y="79.4" width="9.9" height="9.9" fill="#000"/><rect x="69.4" y="79.4" width="9.9" height="9.9" fill="#000"/><rect x="79.4" y="79.4" width="9.9" height="9.9" fill="#000"/><rect x="89.3" y="79.4" width="9.9" height="9.9" fill="#000"/><rect x="99.2" y="79.4" width="9.9" height="9.9" fill="#000"/><rect x="109.1" y="79.4" width="9.9" height="9.9" fill="#000"/><rect x="119.0" y="79.4" width="9.9" height="9.9" fill="#000"/><rect x="138.9" y="79.4" width="9.9" height="9.9" fill="#000"/><rect x="148.8" y="79.4" width="9.9" height="9.9" fill="#000"/><rect x="158.7" y="79.4" width="9.9" height="9.9" fill="#000"/><rect x="168.6" y="79.4" width="9.9" height="9.9" fill="#000"/><rect x="208.3" y="79.4" width="9.9" height="9.9" fill="#000"/><rect x="79.4" y="89.3" width="9.9" height="9.9" fill="#000"/><rect x="89.3" y="89.3" width="9.9" height="9.9" fill="#000"/><rect x="148.8" y="89.3" width="9.9" height="9.9" fill="#000"/><rect x="158.7" y="89.3" width="9.9" height="9.9" fill="#000"/><rect x="228.2" y="89.3" width="9.9" height="9.9" fill="#000"/><rect x="9.9" y="99.2" width="9.9" height="9.9" fill="#000"/><rect x="19.8" y="99.2" width="9.9" height="9.9" fill="#000"/><rect x="39.7" y="99.2" width="9.9" height="9.9" fill="#000"/><rect x="59.5" y="99.2" width="9.9" height="9.9" fill="#000"/><rect x="69.4" y="99.2" width="9.9" height="9.9" fill="#000"/><rect x="79.4" y="99.2" width="9.9" height="9.9" fill="#000"/><rect x="89.3" y="99.2" width="9.9" height="9.9" fill="#000"/><rect x="129.0" y="99.2" width="9.9" height="9.9" fill="#000"/><rect x="138.9" y="99.2" width="9.9" height="9.9" fill="#000"/><rect x="148.8" y="99.2" width="9.9" height="9.9" fill="#000"/><rect x="178.6" y="99.2" width="9.9" height="9.9" fill="#000"/><rect x="188.5" y="99.2" width="9.9" height="9.9" fill="#000"/><rect x="198.4" y="99.2" width="9.9" height="9.9" fill="#000"/><rect x="208.3" y="99.2" width="9.9" height="9.9" fill="#000"/><rect x="218.2" y="99.2" width="9.9" height="9.9" fill="#000"/><rect x="228.2" y="99.2" width="9.9" height="9.9" fill="#000"/><rect x="0.0" y="109.1" width="9.9" height="9.9" fill="#000"/><rect x="59.5" y="109.1" width="9.9" height="9.9" fill="#000"/><rect x="69.4" y="109.1" width="9.9" height="9.9" fill="#000"/><rect x="89.3" y="109.1" width="9.9" height="9.9" fill="#000"/><rect x="99.2" y="109.1" width="9.9" height="9.9" fill="#000"/><rect x="109.1" y="109.1" width="9.9" height="9.9" fill="#000"/><rect x="168.6" y="109.1" width="9.9" height="9.9" fill="#000"/><rect x="178.6" y="109.1" width="9.9" height="9.9" fill="#000"/><rect x="188.5" y="109.1" width="9.9" height="9.9" fill="#000"/><rect x="208.3" y="109.1" width="9.9" height="9.9" fill="#000"/><rect x="218.2" y="109.1" width="9.9" height="9.9" fill="#000"/><rect x="238.1" y="109.1" width="9.9" height="9.9" fill="#000"/><rect x="0.0" y="119.0" width="9.9" height="9.9" fill="#000"/><rect x="9.9" y="119.0" width="9.9" height="9.9" fill="#000"/><rect x="19.8" y="119.0" width="9.9" height="9.9" fill="#000"/><rect x="49.6" y="119.0" width="9.9" height="9.9" fill="#000"/><rect x="69.4" y="119.0" width="9.9" height="9.9" fill="#000"/><rect x="79.4" y="119.0" width="9.9" height="9.9" fill="#000"/><rect x="109.1" y="119.0" width="9.9" height="9.9" fill="#000"/><rect x="119.0" y="119.0" width="9.9" height="9.9" fill="#000"/><rect x="158.7" y="119.0" width="9.9" height="9.9" fill="#000"/><rect x="168.6" y="119.0" width="9.9" height="9.9" fill="#000"/><rect x="188.5" y="119.0" width="9.9" height="9.9" fill="#000"/><rect x="198.4" y="119.0" width="9.9" height="9.9" fill="#000"/><rect x="208.3" y="119.0" width="9.9" height="9.9" fill="#000"/><rect x="228.2" y="119.0" width="9.9" height="9.9" fill="#000"/><rect x="9.9" y="129.0" width="9.9" height="9.9" fill="#000"/><rect x="19.8" y="129.0" width="9.9" height="9.9" fill="#000"/><rect x="29.8" y="129.0" width="9.9" height="9.9" fill="#000"/><rect x="39.7" y="129.0" width="9.9" height="9.9" fill="#000"/><rect x="59.5" y="129.0" width="9.9" height="9.9" fill="#000"/><rect x="69.4" y="129.0" width="9.9" height="9.9" fill="#000"/><rect x="119.0" y="129.0" width="9.9" height="9.9" fill="#000"/><rect x="158.7" y="129.0" width="9.9" height="9.9" fill="#000"/><rect x="188.5" y="129.0" width="9.9" height="9.9" fill="#000"/><rect x="198.4" y="129.0" width="9.9" height="9.9" fill="#000"/><rect x="218.2" y="129.0" width="9.9" height="9.9" fill="#000"/><rect x="228.2" y="129.0" width="9.9" height="9.9" fill="#000"/><rect x="238.1" y="129.0" width="9.9" height="9.9" fill="#000"/><rect x="0.0" y="138.9" width="9.9" height="9.9" fill="#000"/><rect x="49.6" y="138.9" width="9.9" height="9.9" fill="#000"/><rect x="79.4" y="138.9" width="9.9" height="9.9" fill="#000"/><rect x="89.3" y="138.9" width="9.9" height="9.9" fill="#000"/><rect x="109.1" y="138.9" width="9.9" height="9.9" fill="#000"/><rect x="119.0" y="138.9" width="9.9" height="9.9" fill="#000"/><rect x="129.0" y="138.9" width="9.9" height="9.9" fill="#000"/><rect x="148.8" y="138.9" width="9.9" height="9.9" fill="#000"/><rect x="178.6" y="138.9" width="9.9" height="9.9" fill="#000"/><rect x="188.5" y="138.9" width="9.9" height="9.9" fill="#000"/><rect x="198.4" y="138.9" width="9.9" height="9.9" fill="#000"/><rect x="208.3" y="138.9" width="9.9" height="9.9" fill="#000"/><rect x="218.2" y="138.9" width="9.9" height="9.9" fill="#000"/><rect x="238.1" y="138.9" width="9.9" height="9.9" fill="#000"/><rect x="0.0" y="148.8" width="9.9" height="9.9" fill="#000"/><rect x="9.9" y="148.8" width="9.9" height="9.9" fill="#000"/><rect x="19.8" y="148.8" width="9.9" height="9.9" fill="#000"/><rect x="39.7" y="148.8" width="9.9" height="9.9" fill="#000"/><rect x="59.5" y="148.8" width="9.9" height="9.9" fill="#000"/><rect x="69.4" y="148.8" width="9.9" height="9.9" fill="#000"/><rect x="79.4" y="148.8" width="9.9" height="9.9" fill="#000"/><rect x="89.3" y="148.8" width="9.9" height="9.9" fill="#000"/><rect x="109.1" y="148.8" width="9.9" height="9.9" fill="#000"/><rect x="119.0" y="148.8" width="9.9" height="9.9" fill="#000"/><rect x="129.0" y="148.8" width="9.9" height="9.9" fill="#000"/><rect x="198.4" y="148.8" width="9.9" height="9.9" fill="#000"/><rect x="208.3" y="148.8" width="9.9" height="9.9" fill="#000"/><rect x="218.2" y="148.8" width="9.9" height="9.9" fill="#000"/><rect x="238.1" y="148.8" width="9.9" height="9.9" fill="#000"/><rect x="0.0" y="158.7" width="9.9" height="9.9" fill="#000"/><rect x="19.8" y="158.7" width="9.9" height="9.9" fill="#000"/><rect x="29.8" y="158.7" width="9.9" height="9.9" fill="#000"/><rect x="49.6" y="158.7" width="9.9" height="9.9" fill="#000"/><rect x="79.4" y="158.7" width="9.9" height="9.9" fill="#000"/><rect x="89.3" y="158.7" width="9.9" height="9.9" fill="#000"/><rect x="119.0" y="158.7" width="9.9" height="9.9" fill="#000"/><rect x="158.7" y="158.7" width="9.9" height="9.9" fill="#000"/><rect x="178.6" y="158.7" width="9.9" height="9.9" fill="#000"/><rect x="218.2" y="158.7" width="9.9" height="9.9" fill="#000"/><rect x="228.2" y="158.7" width="9.9" height="9.9" fill="#000"/><rect x="0.0" y="168.6" width="9.9" height="9.9" fill="#000"/><rect x="9.9" y="168.6" width="9.9" height="9.9" fill="#000"/><rect x="19.8" y="168.6" width="9.9" height="9.9" fill="#000"/><rect x="59.5" y="168.6" width="9.9" height="9.9" fill="#000"/><rect x="99.2" y="168.6" width="9.9" height="9.9" fill="#000"/><rect x="109.1" y="168.6" width="9.9" height="9.9" fill="#000"/><rect x="138.9" y="168.6" width="9.9" height="9.9" fill="#000"/><rect x="148.8" y="168.6" width="9.9" height="9.9" fill="#000"/><rect x="158.7" y="168.6" width="9.9" height="9.9" fill="#000"/><rect x="188.5" y="168.6" width="9.9" height="9.9" fill="#000"/><rect x="218.2" y="168.6" width="9.9" height="9.9" fill="#000"/><rect x="228.2" y="168.6" width="9.9" height="9.9" fill="#000"/><rect x="238.1" y="168.6" width="9.9" height="9.9" fill="#000"/><rect x="0.0" y="178.6" width="9.9" height="9.9" fill="#000"/><rect x="9.9" y="178.6" width="9.9" height="9.9" fill="#000"/><rect x="49.6" y="178.6" width="9.9" height="9.9" fill="#000"/><rect x="59.5" y="178.6" width="9.9" height="9.9" fill="#000"/><rect x="79.4" y="178.6" width="9.9" height="9.9" fill="#000"/><rect x="99.2" y="178.6" width="9.9" height="9.9" fill="#000"/><rect x="129.0" y="178.6" width="9.9" height="9.9" fill="#000"/><rect x="138.9" y="178.6" width="9.9" height="9.9" fill="#000"/><rect x="168.6" y="178.6" width="9.9" height="9.9" fill="#000"/><rect x="0.0" y="188.5" width="9.9" height="9.9" fill="#000"/><rect x="9.9" y="188.5" width="9.9" height="9.9" fill="#000"/><rect x="49.6" y="188.5" width="9.9" height="9.9" fill="#000"/><rect x="59.5" y="188.5" width="9.9" height="9.9" fill="#000"/><rect x="69.4" y="188.5" width="9.9" height="9.9" fill="#000"/><rect x="89.3" y="188.5" width="9.9" height="9.9" fill="#000"/><rect x="148.8" y="188.5" width="9.9" height="9.9" fill="#000"/><rect x="158.7" y="188.5" width="9.9" height="9.9" fill="#000"/><rect x="188.5" y="188.5" width="9.9" height="9.9" fill="#000"/><rect x="208.3" y="188.5" width="9.9" height="9.9" fill="#000"/><rect x="238.1" y="188.5" width="9.9" height="9.9" fill="#000"/><rect x="0.0" y="198.4" width="9.9" height="9.9" fill="#000"/><rect x="9.9" y="198.4" width="9.9" height="9.9" fill="#000"/><rect x="49.6" y="198.4" width="9.9" height="9.9" fill="#000"/><rect x="59.5" y="198.4" width="9.9" height="9.9" fill="#000"/><rect x="79.4" y="198.4" width="9.9" height="9.9" fill="#000"/><rect x="89.3" y="198.4" width="9.9" height="9.9" fill="#000"/><rect x="99.2" y="198.4" width="9.9" height="9.9" fill="#000"/><rect x="119.0" y="198.4" width="9.9" height="9.9" fill="#000"/><rect x="129.0" y="198.4" width="9.9" height="9.9" fill="#000"/><rect x="138.9" y="198.4" width="9.9" height="9.9" fill="#000"/><rect x="198.4" y="198.4" width="9.9" height="9.9" fill="#000"/><rect x="238.1" y="198.4" width="9.9" height="9.9" fill="#000"/><rect x="0.0" y="208.3" width="9.9" height="9.9" fill="#000"/><rect x="9.9" y="208.3" width="9.9" height="9.9" fill="#000"/><rect x="49.6" y="208.3" width="9.9" height="9.9" fill="#000"/><rect x="59.5" y="208.3" width="9.9" height="9.9" fill="#000"/><rect x="69.4" y="208.3" width="9.9" height="9.9" fill="#000"/><rect x="79.4" y="208.3" width="9.9" height="9.9" fill="#000"/><rect x="158.7" y="208.3" width="9.9" height="9.9" fill="#000"/><rect x="168.6" y="208.3" width="9.9" height="9.9" fill="#000"/><rect x="178.6" y="208.3" width="9.9" height="9.9" fill="#000"/><rect x="198.4" y="208.3" width="9.9" height="9.9" fill="#000"/><rect x="0.0" y="218.2" width="9.9" height="9.9" fill="#000"/><rect x="9.9" y="218.2" width="9.9" height="9.9" fill="#000"/><rect x="49.6" y="218.2" width="9.9" height="9.9" fill="#000"/><rect x="59.5" y="218.2" width="9.9" height="9.9" fill="#000"/><rect x="79.4" y="218.2" width="9.9" height="9.9" fill="#000"/><rect x="99.2" y="218.2" width="9.9" height="9.9" fill="#000"/><rect x="188.5" y="218.2" width="9.9" height="9.9" fill="#000"/><rect x="198.4" y="218.2" width="9.9" height="9.9" fill="#000"/><rect x="208.3" y="218.2" width="9.9" height="9.9" fill="#000"/><rect x="218.2" y="218.2" width="9.9" height="9.9" fill="#000"/><rect x="228.2" y="218.2" width="9.9" height="9.9" fill="#000"/><rect x="238.1" y="218.2" width="9.9" height="9.9" fill="#000"/><rect x="0.0" y="228.2" width="9.9" height="9.9" fill="#000"/><rect x="9.9" y="228.2" width="9.9" height="9.9" fill="#000"/><rect x="49.6" y="228.2" width="9.9" height="9.9" fill="#000"/><rect x="59.5" y="228.2" width="9.9" height="9.9" fill="#000"/><rect x="89.3" y="228.2" width="9.9" height="9.9" fill="#000"/><rect x="109.1" y="228.2" width="9.9" height="9.9" fill="#000"/><rect x="119.0" y="228.2" width="9.9" height="9.9" fill="#000"/><rect x="138.9" y="228.2" width="9.9" height="9.9" fill="#000"/><rect x="148.8" y="228.2" width="9.9" height="9.9" fill="#000"/><rect x="158.7" y="228.2" width="9.9" height="9.9" fill="#000"/><rect x="168.6" y="228.2" width="9.9" height="9.9" fill="#000"/><rect x="178.6" y="228.2" width="9.9" height="9.9" fill="#000"/><rect x="198.4" y="228.2" width="9.9" height="9.9" fill="#000"/><rect x="208.3" y="228.2" width="9.9" height="9.9" fill="#000"/><rect x="218.2" y="228.2" width="9.9" height="9.9" fill="#000"/><rect x="228.2" y="228.2" width="9.9" height="9.9" fill="#000"/><rect x="238.1" y="228.2" width="9.9" height="9.9" fill="#000"/><rect x="0.0" y="238.1" width="9.9" height="9.9" fill="#000"/><rect x="9.9" y="238.1" width="9.9" height="9.9" fill="#000"/><rect x="49.6" y="238.1" width="9.9" height="9.9" fill="#000"/><rect x="59.5" y="238.1" width="9.9" height="9.9" fill="#000"/><rect x="69.4" y="238.1" width="9.9" height="9.9" fill="#000"/><rect x="79.4" y="238.1" width="9.9" height="9.9" fill="#000"/><rect x="89.3" y="238.1" width="9.9" height="9.9" fill="#000"/><rect x="99.2" y="238.1" width="9.9" height="9.9" fill="#000"/><rect x="158.7" y="238.1" width="9.9" height="9.9" fill="#000"/><rect x="168.6" y="238.1" width="9.9" height="9.9" fill="#000"/><rect x="178.6" y="238.1" width="9.9" height="9.9" fill="#000"/><rect x="188.5" y="238.1" width="9.9" height="9.9" fill="#000"/><rect x="198.4" y="238.1" width="9.9" height="9.9" fill="#000"/><rect x="228.2" y="238.1" width="9.9" height="9.9" fill="#000"/><rect x="238.1" y="238.1" width="9.9" height="9.9" fill="#000"/></svg>