<svg width="40" height="40" viewBox="0 0 40 40" fill="none" xmlns="http://www.w3.org/2000/svg">
<path d="M1.73341 29.2C1.84453 29.0222 2.0223 29.0111 2.26675 29.1667C7.76846 32.3746 14.0316 34.044 20.4001 34C24.8131 33.9892 29.1864 33.1643 33.3001 31.5667C33.4112 31.5222 33.5723 31.4556 33.7834 31.3667C33.9945 31.2778 34.1445 31.2111 34.2334 31.1667C34.3651 31.0949 34.5191 31.0756 34.6644 31.1127C34.8097 31.1498 34.9356 31.2405 35.0167 31.3667C35.2056 31.6333 35.1445 31.8778 34.8334 32.1C34.4334 32.3889 33.9223 32.7222 33.3001 33.1C31.2992 34.2704 29.1452 35.1567 26.9001 35.7333C24.6501 36.3414 22.3308 36.6551 20.0001 36.6667C16.6371 36.6859 13.3008 36.0695 10.1667 34.85C7.11326 33.6607 4.30101 31.9271 1.86675 29.7333C1.81086 29.696 1.76394 29.6467 1.72936 29.5891C1.69478 29.5315 1.67339 29.4669 1.66675 29.4C1.66841 29.3282 1.69164 29.2585 1.73341 29.2ZM11.7667 19.7C11.7268 18.303 12.1229 16.9282 12.9001 15.7667C13.6741 14.6629 14.7506 13.8063 16.0001 13.3C17.4208 12.7329 18.9124 12.3628 20.4334 12.2C21.0334 12.1333 22.0112 12.0444 23.3667 11.9333V11.3667C23.451 10.3872 23.2906 9.40217 22.9001 8.5C22.6479 8.16086 22.3138 7.89123 21.929 7.71634C21.5443 7.54145 21.1214 7.46701 20.7001 7.5H20.4334C19.7467 7.54934 19.088 7.79203 18.5334 8.2C17.9946 8.60855 17.6264 9.20238 17.5001 9.86667C17.4869 10.0494 17.4148 10.2229 17.2946 10.3612C17.1744 10.4994 17.0125 10.5949 16.8334 10.6333L13.0001 10.1667C12.6223 10.0778 12.4334 9.87778 12.4334 9.56667C12.4351 9.48783 12.4463 9.40948 12.4667 9.33333C12.5958 8.44563 12.9104 7.59506 13.3899 6.83696C13.8695 6.07887 14.5033 5.43026 15.2501 4.93333C16.8068 3.95289 18.5949 3.40095 20.4334 3.33333H21.2667C23.4236 3.2037 25.5477 3.90777 27.2001 5.3C27.4232 5.52323 27.6293 5.76278 27.8167 6.01667C27.981 6.2347 28.1313 6.46294 28.2667 6.7C28.4044 6.97447 28.5052 7.26586 28.5667 7.56667C28.6556 7.94444 28.7223 8.20555 28.7667 8.35C28.8307 8.65706 28.8642 8.96969 28.8667 9.28333C28.889 9.76111 28.9001 10.0444 28.9001 10.1333V18.2C28.8937 18.7381 28.9782 19.2734 29.1501 19.7833C29.2625 20.1485 29.4252 20.4963 29.6334 20.8167C29.789 21.0278 30.0445 21.3667 30.4001 21.8333C30.5172 21.9879 30.5867 22.1732 30.6001 22.3667C30.5969 22.4603 30.5709 22.5517 30.5244 22.633C30.478 22.7143 30.4124 22.783 30.3334 22.8333C28.489 24.4333 27.489 25.3 27.3334 25.4333C27.1941 25.5324 27.03 25.591 26.8595 25.6028C26.6889 25.6146 26.5184 25.579 26.3667 25.5C26.0556 25.2333 25.7834 24.9778 25.5501 24.7333C25.3167 24.4889 25.1501 24.3111 25.0501 24.2C24.8773 23.9923 24.7159 23.7753 24.5667 23.55C24.3445 23.2278 24.189 23.0111 24.1001 22.9C23.1357 24.0674 21.8664 24.9443 20.4334 25.4333C19.5204 25.6753 18.5778 25.7875 17.6334 25.7667C16.8608 25.795 16.0902 25.6696 15.3663 25.3978C14.6425 25.126 13.9798 24.7132 13.4167 24.1833C12.8454 23.5916 12.4037 22.8873 12.1196 22.1154C11.8355 21.3435 11.7153 20.5209 11.7667 19.7ZM17.5001 19.0333C17.4623 19.7829 17.6928 20.5215 18.1501 21.1167C18.3616 21.3734 18.6296 21.5776 18.9332 21.7135C19.2368 21.8494 19.5677 21.9132 19.9001 21.9C19.9953 21.8968 20.0901 21.8857 20.1834 21.8667C20.2658 21.8494 20.3494 21.8382 20.4334 21.8333C20.9025 21.7063 21.3389 21.4798 21.7127 21.1692C22.0865 20.8586 22.3892 20.4712 22.6001 20.0333C22.8486 19.6009 23.0338 19.135 23.1501 18.65C23.2562 18.2519 23.3231 17.8444 23.3501 17.4333C23.3612 17.1222 23.3667 16.6111 23.3667 15.9V15.0667C22.3818 15.0362 21.3968 15.1258 20.4334 15.3333C19.5782 15.4879 18.8085 15.9488 18.2686 16.6299C17.7287 17.3109 17.4555 18.1654 17.5001 19.0333ZM31.5001 29.7667C31.552 29.6676 31.6196 29.5776 31.7001 29.5C32.1859 29.1552 32.727 28.8959 33.3001 28.7333C34.1055 28.5169 34.9332 28.3938 35.7667 28.3667C35.9783 28.3439 36.1921 28.3551 36.4001 28.4C37.4001 28.4889 38.0001 28.6556 38.2001 28.9C38.3011 29.0831 38.3474 29.2914 38.3334 29.5V29.7333C38.2958 30.6815 38.081 31.6142 37.7001 32.4833C37.3292 33.4653 36.7225 34.3411 35.9334 35.0333C35.8511 35.1101 35.7455 35.157 35.6334 35.1667C35.587 35.1662 35.5413 35.1548 35.5001 35.1333C35.3667 35.0667 35.3334 34.9444 35.4001 34.7667C36.0328 33.5002 36.4496 32.137 36.6334 30.7333C36.6489 30.5457 36.6021 30.3582 36.5001 30.2C36.2779 29.9333 35.6556 29.8 34.6334 29.8C34.2556 29.8 33.8112 29.8222 33.3001 29.8667C32.7445 29.9333 32.2334 30 31.7667 30.0667C31.6727 30.0779 31.5778 30.0542 31.5001 30C31.48 29.985 31.4658 29.9635 31.4597 29.9393C31.4536 29.915 31.4561 29.8893 31.4667 29.8667C31.4708 29.8314 31.4821 29.7973 31.5001 29.7667Z" fill="white"/>
</svg>
