<svg width="40" height="40" viewBox="0 0 40 40" fill="none" xmlns="http://www.w3.org/2000/svg">
<path d="M24.9589 5.03143L26.5586 2.14545C26.5791 2.10842 26.5921 2.06772 26.5969 2.02565C26.6017 1.98359 26.5982 1.941 26.5865 1.9003C26.5748 1.85961 26.5553 1.82161 26.5289 1.78848C26.5026 1.75535 26.4699 1.72773 26.4329 1.70721C26.3581 1.66575 26.27 1.6557 26.1878 1.67926C26.1056 1.70283 26.0361 1.75807 25.9947 1.83285L24.3773 4.75081C22.9972 4.14583 21.5068 3.83348 20 3.83348C18.4932 3.83348 17.0027 4.14583 15.6227 4.75081L14.0052 1.83285C13.9638 1.75807 13.8943 1.70283 13.8121 1.67926C13.7299 1.6557 13.6417 1.66575 13.567 1.70721C13.4922 1.74866 13.4369 1.81812 13.4134 1.9003C13.3898 1.98249 13.3999 2.07067 13.4413 2.14545L15.0411 5.03145C13.5183 5.78206 12.2316 6.93756 11.3223 8.3712C10.4129 9.80484 9.91589 11.4612 9.88581 13.1587H30.1141C30.0841 11.4612 29.5871 9.80483 28.6777 8.37119C27.7683 6.93755 26.4816 5.78205 24.9589 5.03143ZM15.3318 9.45743C15.1647 9.45743 15.0014 9.40789 14.8625 9.31508C14.7236 9.22226 14.6154 9.09035 14.5514 8.936C14.4875 8.78166 14.4708 8.61183 14.5034 8.44798C14.5359 8.28413 14.6164 8.13362 14.7345 8.01549C14.8527 7.89737 15.0032 7.81692 15.167 7.78433C15.3309 7.75173 15.5007 7.76846 15.655 7.83239C15.8094 7.89632 15.9413 8.00459 16.0341 8.14349C16.1269 8.2824 16.1765 8.4457 16.1765 8.61276C16.1762 8.83671 16.0871 9.0514 15.9288 9.20975C15.7704 9.36811 15.5557 9.45718 15.3318 9.45743ZM24.6681 9.45743C24.501 9.45743 24.3377 9.40789 24.1988 9.31508C24.0599 9.22226 23.9517 9.09035 23.8877 8.936C23.8238 8.78166 23.8071 8.61183 23.8397 8.44798C23.8722 8.28413 23.9527 8.13362 24.0708 8.01549C24.189 7.89737 24.3395 7.81692 24.5033 7.78433C24.6672 7.75173 24.837 7.76846 24.9913 7.83239C25.1457 7.89632 25.2776 8.00459 25.3704 8.14349C25.4632 8.2824 25.5128 8.4457 25.5128 8.61276C25.5125 8.83671 25.4234 9.0514 25.2651 9.20975C25.1067 9.36811 24.892 9.45718 24.6681 9.45743ZM9.88566 28.6191C9.88566 29.2676 10.1433 29.8896 10.6018 30.3481C11.0604 30.8067 11.6824 31.0643 12.3309 31.0643H13.9535V36.0659C13.9527 36.3642 14.0108 36.6597 14.1244 36.9355C14.238 37.2113 14.4049 37.462 14.6155 37.6732C14.8261 37.8844 15.0763 38.052 15.3518 38.1663C15.6273 38.2806 15.9227 38.3395 16.221 38.3395C16.5193 38.3395 16.8146 38.2806 17.0901 38.1663C17.3656 38.052 17.6158 37.8844 17.8265 37.6732C18.0371 37.462 18.204 37.2113 18.3176 36.9355C18.4312 36.6597 18.4892 36.3642 18.4884 36.0659V31.0643H21.5115V36.0659C21.5107 36.3642 21.5687 36.6597 21.6823 36.9355C21.7959 37.2113 21.9628 37.462 22.1734 37.6732C22.3841 37.8844 22.6343 38.052 22.9098 38.1663C23.1853 38.2806 23.4806 38.3395 23.7789 38.3395C24.0772 38.3395 24.3725 38.2806 24.648 38.1663C24.9235 38.052 25.1738 37.8844 25.3844 37.6732C25.595 37.462 25.7619 37.2113 25.8755 36.9355C25.9891 36.6597 26.0472 36.3642 26.0463 36.0659V31.0643H27.6691C28.3176 31.0643 28.9395 30.8067 29.3981 30.3481C29.8567 29.8896 30.1143 29.2676 30.1143 28.6191V13.9589H9.88566V28.6191ZM6.77353 13.5698C6.17238 13.5705 5.59605 13.8096 5.17097 14.2347C4.7459 14.6598 4.50679 15.2361 4.50611 15.8373V25.2847C4.5053 25.583 4.56335 25.8785 4.67694 26.1543C4.79053 26.4301 4.95742 26.6808 5.16805 26.892C5.37868 27.1032 5.62891 27.2708 5.90441 27.3851C6.17991 27.4994 6.47526 27.5583 6.77354 27.5583C7.07182 27.5583 7.36717 27.4994 7.64267 27.3851C7.91816 27.2708 8.1684 27.1032 8.37903 26.892C8.58966 26.6808 8.75655 26.4301 8.87013 26.1543C8.98372 25.8785 9.04177 25.583 9.04096 25.2847V15.8373C9.04028 15.2361 8.80117 14.6598 8.3761 14.2347C7.95102 13.8096 7.37468 13.5705 6.77353 13.5698ZM33.2264 13.5698C32.6252 13.5705 32.0489 13.8096 31.6238 14.2347C31.1987 14.6598 30.9596 15.2361 30.9589 15.8373V25.2847C30.9581 25.583 31.0162 25.8785 31.1298 26.1543C31.2433 26.4301 31.4102 26.6808 31.6209 26.892C31.8315 27.1032 32.0817 27.2708 32.3572 27.3851C32.6327 27.4994 32.9281 27.5583 33.2264 27.5583C33.5246 27.5583 33.82 27.4994 34.0955 27.3851C34.371 27.2708 34.6212 27.1032 34.8318 26.892C35.0425 26.6808 35.2094 26.4301 35.3229 26.1543C35.4365 25.8785 35.4946 25.583 35.4938 25.2847V15.8373C35.4931 15.2361 35.254 14.6598 34.8289 14.2347C34.4038 13.8096 33.8275 13.5705 33.2264 13.5698Z" fill="white"/>
</svg>
