<svg width="40" height="40" viewBox="0 0 40 40" fill="none" xmlns="http://www.w3.org/2000/svg">
<path d="M34.174 26.2393C33.1543 25.8032 32.2857 25.0763 31.6766 24.1494C31.0676 23.2225 30.7451 22.1367 30.7495 21.0277C30.7627 20.0377 31.0279 19.0674 31.5199 18.2082C32.012 17.3491 32.7148 16.6295 33.562 16.1172C33.7537 15.9987 33.9194 15.8426 34.049 15.6583C34.1787 15.474 34.2696 15.2653 34.3163 15.0449C34.363 14.8245 34.3645 14.5968 34.3208 14.3758C34.277 14.1547 34.1889 13.9449 34.0617 13.7589C33.3001 12.6513 32.3072 11.7222 31.1516 11.0357C29.9959 10.3492 28.7051 9.9217 27.3682 9.78264C28.6125 7.80786 29.1772 5.48046 28.9762 3.15501C28.937 2.73274 28.7357 2.34209 28.4147 2.06503C28.0936 1.78797 27.6777 1.64603 27.2542 1.66901C24.3925 1.92407 21.7396 3.27383 19.8486 5.43691C18.6499 6.82588 17.8041 8.48357 17.3828 10.2693C16.5125 9.97473 15.6013 9.81875 14.6826 9.80702C12.9818 9.85523 11.3222 10.3421 9.86489 11.2204C8.40756 12.0987 7.20188 13.3386 6.36476 14.82C3.2186 20.2822 5.14325 28.4675 8.55143 33.3942C9.91861 35.3685 11.9702 38.3324 15.0651 38.3324C15.1261 38.3324 15.188 38.3324 15.2498 38.329C16.2868 38.2702 17.302 38.0075 18.2373 37.5559C18.9844 37.1773 19.8086 36.9757 20.6462 36.9667C21.4338 36.9763 22.2083 37.1691 22.9085 37.5299C23.9317 38.014 25.0466 38.2732 26.1784 38.29C29.3669 38.2298 31.25 35.4791 32.6253 33.469C33.7105 31.8724 34.5596 30.1275 35.1465 28.2883C35.2716 27.8871 35.241 27.4535 35.0607 27.0738C34.8805 26.6941 34.5639 26.3961 34.174 26.2393ZM22.3722 7.61304C23.2476 6.63387 24.3445 5.87826 25.5713 5.40927C25.3029 6.72967 24.709 7.96214 23.8436 8.99487C23.2562 9.69967 22.5414 10.2877 21.7367 10.7283L21.7318 10.73C21.6846 10.7495 21.6374 10.7674 21.5901 10.787C21.2793 10.909 20.8951 11.0604 20.5989 11.1581C20.885 9.84693 21.4946 8.62824 22.3722 7.61304ZM29.8747 31.5877C28.5352 33.544 27.4813 34.9324 26.1174 34.9568C25.458 34.9547 24.8098 34.7874 24.2318 34.4701C23.1145 33.9257 21.889 33.6398 20.6462 33.6335C19.3601 33.64 18.0916 33.9318 16.932 34.4879C16.3682 34.7758 15.7531 34.9494 15.1221 34.999H15.0724C13.7174 34.999 12.2599 32.8945 11.2923 31.4964C8.87126 27.9971 6.6382 21.0244 9.25376 16.4834C9.80223 15.5007 10.5954 14.6765 11.5563 14.0908C12.5172 13.5051 13.6132 13.1777 14.738 13.1404L14.7941 13.1387C15.7429 13.2194 16.6694 13.4702 17.5293 13.8793C17.7482 13.9655 17.9639 14.0518 18.1779 14.1316C18.2324 14.1544 18.2886 14.1755 18.3455 14.1934C18.9387 14.432 19.5687 14.5658 20.2075 14.5889C21.1121 14.517 21.9957 14.2792 22.8142 13.8874C23.968 13.3275 25.2362 13.0438 26.5186 13.059C27.8903 13.1126 29.2071 13.6121 30.2694 14.4815C29.3616 15.318 28.6387 16.3351 28.1474 17.4675C27.656 18.5999 27.407 19.8226 27.4162 21.057V21.0587C27.4068 22.5531 27.7766 24.0254 28.4911 25.3379C29.2056 26.6505 30.2414 27.7603 31.5015 28.5636C31.0627 29.6239 30.5177 30.6371 29.8747 31.5877Z" fill="white"/>
</svg>
