<svg width="40" height="40" viewBox="0 0 40 40" fill="none" xmlns="http://www.w3.org/2000/svg">
<path d="M19.9999 3.33331C16.7036 3.33331 13.4812 4.3108 10.7404 6.14215C7.9996 7.97351 5.86339 10.5765 4.60193 13.6219C3.34047 16.6674 3.01042 20.0185 3.6535 23.2515C4.29659 26.4845 5.88394 29.4542 8.21481 31.7851C10.5457 34.116 13.5154 35.7033 16.7484 36.3464C19.9814 36.9895 23.3325 36.6594 26.378 35.398C29.4234 34.1365 32.0264 32.0003 33.8577 29.2595C35.6891 26.5187 36.6666 23.2963 36.6666 20C36.6666 17.8113 36.2355 15.644 35.3979 13.6219C34.5603 11.5998 33.3327 9.76251 31.785 8.21487C30.2374 6.66722 28.4001 5.43957 26.378 4.60199C24.3559 3.76441 22.1886 3.33331 19.9999 3.33331ZM19.9999 6.66665C23.4245 6.66528 26.7162 7.99153 29.1833 10.3666C26.6366 11.8603 23.9381 13.0783 21.1333 14C19.7374 11.5947 18.1371 9.31405 16.3499 7.18331C17.5365 6.84164 18.7651 6.66773 19.9999 6.66665ZM13.1499 8.58331C14.8961 10.5808 16.4632 12.728 17.8333 15C14.5618 15.8123 11.2041 16.2264 7.83326 16.2333H7.23326C8.1786 13.0327 10.2898 10.303 13.1499 8.58331ZM9.99993 28.85C7.83118 26.4146 6.64339 23.261 6.66659 20C6.66659 19.8333 6.66659 19.6666 6.66659 19.5166H7.79993C11.7456 19.4814 15.6689 18.9209 19.4666 17.85C19.9999 18.8666 20.4999 19.9166 20.9833 21C18.3857 21.9157 15.9666 23.2747 13.8333 25.0166L13.3333 25.4166C12.1451 26.4837 11.0314 27.6308 9.99993 28.85ZM19.9999 33.3333C17.3434 33.3392 14.7469 32.5434 12.5499 31.05C13.3613 30.1193 14.2297 29.2398 15.1499 28.4166L15.6833 27.9666C17.6552 26.3081 19.9149 25.0258 22.3499 24.1833C23.3522 26.8933 24.1325 29.6803 24.6833 32.5166C23.1829 33.0644 21.5971 33.341 19.9999 33.3333ZM27.7166 30.85C27.1713 28.3276 26.4586 25.8443 25.5833 23.4166H26.1499C26.2156 23.4004 26.2842 23.4004 26.3499 23.4166H26.5333H26.6999H27.4999C29.2539 23.4217 30.9946 23.7202 32.6499 24.3C31.7405 26.9506 30.0131 29.2441 27.7166 30.85ZM27.4999 20C27.1499 20 26.7999 20 26.4666 20C26.2508 19.9728 26.0324 19.9728 25.8166 20C25.3636 20.0278 24.9128 20.0835 24.4666 20.1666H24.2999C23.8166 19.05 23.3166 17.9666 22.7666 16.8333C25.751 15.8084 28.6172 14.4675 31.3166 12.8333C32.6557 14.9823 33.3551 17.4681 33.3333 20C33.3333 20.2833 33.3333 20.5666 33.3333 20.85C31.4444 20.267 29.4766 19.9803 27.4999 20Z" fill="white"/>
</svg>
