<svg width="40" height="40" viewBox="0 0 40 40" fill="none" xmlns="http://www.w3.org/2000/svg">
<path d="M33.4499 10.5834H24.9999V12.9334H33.4833L33.4499 10.5834ZM31.6666 26.75C31.0255 27.1748 30.2685 27.3902 29.4999 27.3667C28.9911 27.4197 28.4769 27.3672 27.9893 27.2123C27.5018 27.0574 27.0515 26.8036 26.6666 26.4667C25.9549 25.6598 25.5844 24.6081 25.6333 23.5334H36.6666C36.7461 22.4143 36.6505 21.2896 36.3833 20.2C36.1247 19.1634 35.6723 18.1851 35.0499 17.3167C34.4235 16.4744 33.6143 15.7849 32.6833 15.3C31.6473 14.7893 30.5048 14.5322 29.3499 14.55C28.2638 14.5421 27.187 14.7517 26.1833 15.1667C25.2641 15.5542 24.4312 16.1207 23.7333 16.8334C23.0372 17.5602 22.4983 18.4225 22.1499 19.3667C21.7761 20.3859 21.5898 21.4644 21.5999 22.55C21.5828 23.651 21.7634 24.7462 22.1333 25.7834C22.4474 26.7226 22.946 27.5895 23.5999 28.3334C24.2764 29.0636 25.1079 29.6331 26.0333 30C27.0651 30.3932 28.1625 30.5855 29.2666 30.5667C30.8156 30.615 32.345 30.2095 33.6666 29.4C35.0014 28.4515 35.9625 27.0659 36.3833 25.4834H32.6999C32.5027 26.0069 32.1399 26.4517 31.6666 26.75ZM25.9499 19.8834C26.0796 19.4678 26.295 19.0841 26.582 18.7568C26.8691 18.4296 27.2215 18.1661 27.6166 17.9834C28.1398 17.7478 28.7097 17.6339 29.2833 17.65C29.6976 17.6146 30.1147 17.6693 30.506 17.8103C30.8972 17.9512 31.2533 18.1752 31.5499 18.4667C32.1162 19.1599 32.4796 19.9963 32.5999 20.8834H25.6833C25.7102 20.5447 25.7717 20.2096 25.8666 19.8834H25.9499ZM17.1333 19.0834C17.9815 18.7301 18.7186 18.1543 19.2666 17.4167C19.7703 16.6334 20.0205 15.7139 19.9833 14.7834C20.0159 13.9348 19.8504 13.0902 19.4999 12.3167C19.2054 11.6465 18.7327 11.0701 18.1333 10.65C17.4977 10.2133 16.7759 9.91779 16.0166 9.78335C15.118 9.59488 14.2014 9.50545 13.2833 9.51669H3.33325V30.4834H13.4999C14.4277 30.484 15.3518 30.3664 16.2499 30.1334C17.1012 29.9131 17.9076 29.5466 18.6333 29.05C19.3361 28.5629 19.9085 27.9104 20.2999 27.15C20.7331 26.2997 20.9452 25.3539 20.9166 24.4C20.9482 23.2179 20.6166 22.0545 19.9666 21.0667C19.2676 20.0732 18.2308 19.3682 17.0499 19.0834H17.1333ZM7.94992 13.1H12.2666C12.6632 13.0995 13.059 13.133 13.4499 13.2C13.8098 13.2534 14.1555 13.378 14.4666 13.5667C14.7672 13.7367 15.0107 13.9919 15.1666 14.3C15.3596 14.6696 15.4516 15.0835 15.4333 15.5C15.4643 15.8587 15.4094 16.2197 15.2732 16.553C15.137 16.8863 14.9233 17.1824 14.6499 17.4167C14.0535 17.8267 13.3397 18.0315 12.6166 18H7.94992V13.1ZM16.0166 25.5C15.8454 25.8397 15.5864 26.1274 15.2666 26.3334C14.9338 26.5404 14.567 26.6871 14.1833 26.7667C13.7567 26.8622 13.3203 26.9069 12.8833 26.9H7.88325V21.15H12.8833C13.7413 21.1124 14.5886 21.352 15.2999 21.8334C15.6213 22.1217 15.8702 22.4817 16.0266 22.8842C16.1829 23.2867 16.2423 23.7203 16.1999 24.15C16.245 24.6082 16.1822 25.0705 16.0166 25.5Z" fill="white"/>
</svg>
