<svg width="40" height="40" viewBox="0 0 40 40" fill="none" xmlns="http://www.w3.org/2000/svg">
<path d="M37.6705 16.6732C37.6011 16.2888 37.3989 15.941 37.0992 15.6906C36.7995 15.4401 36.4213 15.3028 36.0307 15.3027H20.3334C20.1145 15.3027 19.8977 15.3457 19.6955 15.4295C19.4933 15.5132 19.3095 15.636 19.1547 15.7908C19 15.9455 18.8772 16.1293 18.7935 16.3315C18.7097 16.5338 18.6666 16.7505 18.6667 16.9694V23.4163C18.6666 23.6352 18.7097 23.852 18.7935 24.0542C18.8772 24.2564 19 24.4402 19.1547 24.595C19.3095 24.7497 19.4933 24.8725 19.6955 24.9562C19.8977 25.04 20.1145 25.083 20.3334 25.083H26.9374C26.4668 25.8772 25.8218 26.554 25.051 27.0622C23.6424 27.9552 22.0007 28.4106 20.3334 28.3708C18.6042 28.351 16.9252 27.7867 15.535 26.7581C14.1448 25.7295 13.1142 24.2889 12.5896 22.6411L12.5892 22.6383C12.0054 20.9273 12.0054 19.071 12.5892 17.36L12.5896 17.3572C13.1145 15.7097 14.1453 14.2696 15.5354 13.2413C16.9256 12.213 18.6044 11.649 20.3334 11.6292C21.2941 11.6072 22.2496 11.7751 23.1453 12.1234C24.0409 12.4717 24.8588 12.9935 25.5522 13.6588C25.8671 13.9598 26.2873 14.1255 26.7229 14.1207C27.1584 14.1158 27.5748 13.9407 27.8829 13.6328L32.6632 8.85253C32.8216 8.69436 32.9464 8.5059 33.0303 8.29839C33.1142 8.09089 33.1554 7.8686 33.1515 7.64481C33.1475 7.42102 33.0985 7.20032 33.0073 6.99591C32.9162 6.79149 32.7847 6.60755 32.6209 6.45508C29.2945 3.33625 24.893 1.62101 20.3334 1.66666C16.9333 1.6566 13.598 2.59668 10.7036 4.38089C7.80921 6.1651 5.47087 8.72248 3.95227 11.7646L3.94982 11.7676C2.66236 14.3205 1.9944 17.1408 2.00004 20C2.00409 22.8581 2.67157 25.6762 3.9499 28.2324L3.95235 28.2354C5.47095 31.2775 7.80927 33.8349 10.7036 35.6191C13.598 37.4033 16.9333 38.3434 20.3334 38.3333C24.809 38.4466 29.1585 36.8445 32.4912 33.855L32.4924 33.8542L32.4937 33.8528L32.494 33.8525L32.4941 33.8523C34.3005 32.1146 35.7235 30.0183 36.6717 27.698C37.62 25.3777 38.0725 22.8848 38.0002 20.3792C38.0009 19.1365 37.8906 17.8962 37.6705 16.6732ZM20.3334 4.99999C23.4518 4.96964 26.4966 5.94756 29.0142 7.78808L26.5914 10.21C24.7544 8.93842 22.5674 8.26951 20.3334 8.29589C18.2937 8.30638 16.2938 8.86021 14.5393 9.90037C12.7848 10.9405 11.3391 12.4294 10.3512 14.2139L8.56917 12.8326L7.59417 12.0765C8.93545 9.90625 10.8108 8.11616 13.0411 6.87726C15.2714 5.63835 17.7821 4.99202 20.3334 4.99999ZM6.13244 24.8389C5.0669 21.7009 5.0669 18.299 6.13244 15.1611L9.10282 17.4642C8.72304 19.1329 8.72304 20.8655 9.10282 22.5342L6.13244 24.8389ZM20.3334 35C17.7821 35.0079 15.2713 34.3615 13.041 33.1226C10.8107 31.8836 8.93532 30.0935 7.59404 27.9232L8.22472 27.434L10.3512 25.7845C11.3387 27.5694 12.7842 29.0588 14.5387 30.0993C16.2933 31.1398 18.2935 31.6937 20.3334 31.7041C22.2428 31.7266 24.1305 31.2978 25.8429 30.4528L28.6624 32.6417C26.1827 34.2393 23.2826 35.0605 20.3334 35ZM31.2098 30.3988L30.9048 30.1621L28.6093 28.38C29.8129 27.0795 30.622 25.4636 30.942 23.7208C30.9868 23.4802 30.978 23.2327 30.9163 22.9959C30.8546 22.7591 30.7415 22.5388 30.585 22.3507C30.4286 22.1625 30.2326 22.0111 30.011 21.9073C29.7895 21.8034 29.5477 21.7496 29.303 21.7497H22V18.6361H34.5814C34.6384 19.2122 34.6669 19.7949 34.6669 20.3792C34.7643 24.0273 33.5361 27.587 31.2098 30.3988H31.2098Z" fill="white"/>
</svg>
