<svg width="40" height="40" viewBox="0 0 40 40" fill="none" xmlns="http://www.w3.org/2000/svg">
<path d="M28.2501 15.4985C26.9072 15.4979 25.5851 15.8301 24.4019 16.4653C24.294 16.1809 24.102 15.9361 23.8517 15.7634C23.6013 15.5908 23.3042 15.4983 23.0001 15.4985H17.0001C16.8031 15.4984 16.608 15.5371 16.4259 15.6124C16.2439 15.6878 16.0785 15.7983 15.9392 15.9376C15.7999 16.0769 15.6894 16.2423 15.614 16.4243C15.5387 16.6064 15.5 16.8015 15.5001 16.9985V34.9985C15.5 35.1955 15.5387 35.3906 15.614 35.5726C15.6894 35.7547 15.7999 35.9201 15.9392 36.0594C16.0785 36.1987 16.2439 36.3092 16.4259 36.3845C16.608 36.4599 16.8031 36.4986 17.0001 36.4985H23.0001C23.1971 36.4986 23.3922 36.4599 23.5742 36.3845C23.7563 36.3092 23.9217 36.1987 24.061 36.0594C24.2003 35.9201 24.3108 35.7547 24.3861 35.5726C24.4615 35.3906 24.5002 35.1955 24.5001 34.9985V26.7485C24.5001 26.3507 24.6581 25.9691 24.9394 25.6878C25.2207 25.4065 25.6023 25.2485 26.0001 25.2485C26.3979 25.2485 26.7794 25.4065 27.0607 25.6878C27.342 25.9691 27.5001 26.3507 27.5001 26.7485V34.9985C27.5 35.1955 27.5387 35.3906 27.614 35.5726C27.6894 35.7547 27.7999 35.9201 27.9392 36.0594C28.0785 36.1987 28.2439 36.3092 28.4259 36.3845C28.608 36.4599 28.8031 36.4986 29.0001 36.4985H35.0001C35.1971 36.4986 35.3922 36.4599 35.5742 36.3845C35.7563 36.3092 35.9217 36.1987 36.061 36.0594C36.2003 35.9201 36.3108 35.7547 36.3861 35.5726C36.4615 35.3906 36.5002 35.1955 36.5001 34.9985V23.7485C36.4974 21.5613 35.6273 19.4644 34.0807 17.9179C32.5341 16.3713 30.4373 15.5012 28.2501 15.4985ZM33.5001 33.4985H30.5001V26.7485C30.5001 25.555 30.026 24.4104 29.1821 23.5665C28.3381 22.7226 27.1936 22.2485 26.0001 22.2485C24.8066 22.2485 23.662 22.7226 22.8181 23.5665C21.9742 24.4104 21.5001 25.555 21.5001 26.7485V33.4985H18.5001V18.4985H21.5001V19.5532C21.5003 19.864 21.5969 20.1671 21.7768 20.4206C21.9566 20.6741 22.2107 20.8655 22.5039 20.9684C22.7972 21.0713 23.1152 21.0806 23.414 20.995C23.7128 20.9095 23.9776 20.7332 24.172 20.4907C24.8451 19.6357 25.7685 19.0123 26.8131 18.7075C27.8577 18.4027 28.9714 18.4318 29.9987 18.7905C31.026 19.1493 31.9156 19.82 32.5433 20.7088C33.171 21.5977 33.5055 22.6603 33.5001 23.7485V33.4985ZM12.5001 15.4985H6.50008C6.30306 15.4984 6.10796 15.5371 5.92592 15.6124C5.74388 15.6878 5.57848 15.7983 5.43917 15.9376C5.29986 16.0769 5.18937 16.2423 5.11403 16.4243C5.03869 16.6064 4.99997 16.8015 5.00008 16.9985V34.9985C4.99996 35.1955 5.03868 35.3906 5.11403 35.5726C5.18937 35.7547 5.29985 35.9201 5.43916 36.0594C5.57847 36.1987 5.74388 36.3092 5.92592 36.3845C6.10796 36.4599 6.30306 36.4986 6.50008 36.4985H12.5001C12.6971 36.4986 12.8922 36.4599 13.0742 36.3845C13.2563 36.3092 13.4217 36.1987 13.561 36.0594C13.7003 35.9201 13.8108 35.7547 13.8861 35.5726C13.9615 35.3906 14.0002 35.1955 14.0001 34.9985V16.9985C14.0002 16.8015 13.9615 16.6064 13.8861 16.4243C13.8108 16.2423 13.7003 16.0769 13.561 15.9376C13.4217 15.7983 13.2563 15.6878 13.0742 15.6124C12.8922 15.5371 12.6971 15.4984 12.5001 15.4985ZM11.0001 33.4985H8.00008V18.4985H11.0001V33.4985ZM9.52205 4.31299C8.86559 4.27369 8.208 4.36833 7.58927 4.59115C6.97053 4.81397 6.40359 5.16032 5.9229 5.60912C5.44222 6.05793 5.05785 6.59982 4.79317 7.20184C4.52848 7.80385 4.38901 8.45341 4.38324 9.11102C4.37747 9.76863 4.50552 10.4205 4.75961 11.0271C5.01369 11.6337 5.38849 12.1822 5.86122 12.6394C6.33396 13.0966 6.89474 13.4528 7.50947 13.6865C8.1242 13.9201 8.78003 14.0263 9.43708 13.9985H9.47956C10.1378 14.0376 10.797 13.9421 11.417 13.7178C12.0371 13.4935 12.6049 13.1451 13.0857 12.6939C13.5666 12.2428 13.9504 11.6983 14.2137 11.0939C14.477 10.4894 14.6143 9.83752 14.6172 9.17818C14.6201 8.51883 14.4885 7.86581 14.2305 7.25903C13.9725 6.65225 13.5935 6.10445 13.1166 5.6491C12.6397 5.19376 12.075 4.84042 11.457 4.61069C10.8389 4.38097 10.1806 4.27967 9.52204 4.31299H9.52205ZM9.47957 10.9985H9.43708C9.17768 11.03 8.91454 11.0057 8.66531 10.9271C8.41609 10.8486 8.18653 10.7177 7.99204 10.5432C7.79755 10.3687 7.64262 10.1546 7.53765 9.9153C7.43267 9.67601 7.38008 9.41704 7.38338 9.15575C7.38338 8.0366 8.22274 7.31297 9.52205 7.31297C9.7841 7.27804 10.0506 7.29967 10.3036 7.3764C10.5566 7.45313 10.7902 7.58318 10.9887 7.7578C11.1871 7.93242 11.3459 8.14754 11.4543 8.38868C11.5626 8.62983 11.618 8.89139 11.6168 9.15575C11.6168 10.2749 10.7774 10.9985 9.47957 10.9985Z" fill="white"/>
</svg>
