<svg width="40" height="40" viewBox="0 0 40 40" fill="none" xmlns="http://www.w3.org/2000/svg">
<path d="M35.3483 10.6945H36.6666V6.80554H24.1996L20.0565 22.0833H19.9432L15.8377 6.80554H3.33325V10.6944H4.61387C4.90992 10.7426 5.18459 10.8788 5.40209 11.0854C5.61959 11.2919 5.76984 11.5592 5.83325 11.8523V28.2362C5.76592 28.5189 5.6124 28.7736 5.39394 28.9652C5.17549 29.1567 4.90289 29.2757 4.61387 29.3055H3.33325V33.1945H13.3333V29.3055H10.8333V12.0834H10.9791L16.7418 33.1945H21.2618L27.0997 12.0834H27.2223V29.3055H24.7222V33.1945H36.6666V29.3055H35.3483C35.0659 29.2688 34.8015 29.1467 34.5903 28.9556C34.3791 28.7645 34.2313 28.5136 34.1666 28.2362V11.8524C34.2278 11.5646 34.3726 11.3012 34.5828 11.0952C34.793 10.8893 35.0593 10.7499 35.3483 10.6945Z" fill="white"/>
</svg>
