<svg width="40" height="40" viewBox="0 0 40 40" fill="none" xmlns="http://www.w3.org/2000/svg">
<path d="M25.2319 19.6875C24.5645 19.2589 23.8402 18.9264 23.0802 18.6995C22.6139 18.5585 22.0976 18.4206 21.5629 18.2876C21.0977 18.1579 20.544 18.0249 19.8592 17.8743C19.0437 17.7035 18.2434 17.4672 17.4658 17.1679C17.0652 17.0121 16.7117 16.7553 16.4396 16.4225C16.2411 16.1503 16.1469 15.8159 16.1743 15.4801C16.1734 15.1199 16.2932 14.7698 16.5145 14.4856C16.825 14.1215 17.2278 13.8477 17.6807 13.693C18.4435 13.431 19.2474 13.3091 20.0536 13.3333C20.6765 13.3233 21.2973 13.4056 21.8961 13.5774C22.2936 13.6888 22.6682 13.8701 23.002 14.1129C23.2178 14.2667 23.4018 14.4607 23.544 14.6842C23.6473 14.8776 23.7877 15.0487 23.9572 15.1878C24.1268 15.3268 24.3221 15.431 24.5319 15.4944C24.7418 15.5578 24.9621 15.5792 25.1803 15.5573C25.3984 15.5354 25.6101 15.4706 25.8032 15.3667C25.9963 15.2629 26.1669 15.1219 26.3054 14.9519C26.4439 14.782 26.5475 14.5864 26.6103 14.3763C26.673 14.1662 26.6937 13.9458 26.6711 13.7277C26.6485 13.5097 26.5831 13.2982 26.4786 13.1054C26.127 12.4837 25.652 11.9404 25.0829 11.5088C24.4258 11.004 23.6804 10.6259 22.8849 10.3939C21.9661 10.1222 21.0118 9.98943 20.0536 9.99998C18.8362 9.97411 17.6244 10.1722 16.4786 10.5843C15.4419 10.9606 14.5309 11.619 13.8484 12.4853C13.1952 13.3471 12.8414 14.3987 12.8409 15.4801C12.8139 16.5567 13.1549 17.6103 13.8077 18.4668C14.4378 19.2605 15.2638 19.8765 16.2044 20.2539C16.9151 20.5273 17.6427 20.7544 18.3828 20.9337C18.3968 20.9383 18.4061 20.9495 18.4204 20.9537C18.7394 21.0497 19.2496 21.1783 19.9869 21.3378C20.2742 21.3995 20.5449 21.4676 20.8155 21.5353C20.8417 21.5431 20.8797 21.5514 20.9049 21.5592L20.935 21.5638C21.3489 21.6693 21.7468 21.7783 22.1109 21.8896C22.5597 22.0206 22.9881 22.2134 23.3837 22.4625C23.6298 22.6175 23.8365 22.8276 23.9876 23.0761C24.1345 23.3793 24.2025 23.7147 24.1853 24.0511C24.2086 24.4867 24.0829 24.9172 23.8289 25.2718C23.4855 25.7183 23.0212 26.0567 22.491 26.2468C21.7017 26.5514 20.8593 26.6941 20.0138 26.6666C19.0352 26.7046 18.0617 26.5081 17.1744 26.0937C16.7649 25.8755 16.4132 25.5631 16.1482 25.1823C15.9624 24.9384 15.8462 24.6487 15.8121 24.3441C15.8121 23.902 15.6365 23.4781 15.3239 23.1656C15.0114 22.853 14.5874 22.6774 14.1454 22.6774C13.7034 22.6774 13.2795 22.853 12.9669 23.1656C12.6543 23.4781 12.4788 23.902 12.4788 24.3441C12.5067 25.3268 12.8297 26.2784 13.4057 27.0752C13.9814 27.9049 14.7485 28.5837 15.642 29.0543C17.0015 29.7179 18.5015 30.0424 20.0138 30C21.2987 30.0309 22.5766 29.8011 23.7703 29.3245C24.8798 28.8989 25.8433 28.1626 26.5453 27.2038C27.2124 26.2687 27.554 25.1405 27.5178 23.9925C27.5333 23.1026 27.318 22.2239 26.8928 21.442C26.4823 20.7366 25.9138 20.136 25.2319 19.6875ZM37.2688 22.819C37.7187 20.0795 37.5098 17.2722 36.6594 14.6295C35.8091 11.9867 34.3416 9.58442 32.3786 7.62134C30.4155 5.65827 28.0132 4.19084 25.3704 3.34046C22.7277 2.49009 19.9204 2.2812 17.1809 2.7311C15.1586 1.76154 12.8852 1.44361 10.6745 1.82119C8.46384 2.19878 6.42487 3.25327 4.83904 4.8391C3.2532 6.42493 2.19872 8.4639 1.82113 10.6746C1.44355 12.8853 1.76147 15.1587 2.73103 17.181C2.28114 19.9205 2.49003 22.7277 3.3404 25.3705C4.19078 28.0133 5.65821 30.4155 7.62128 32.3786C9.58436 34.3417 11.9866 35.8091 14.6294 36.6595C17.2722 37.5099 20.0794 37.7188 22.8189 37.2689C24.8412 38.2384 27.1146 38.5564 29.3253 38.1788C31.536 37.8012 33.575 36.7467 35.1608 35.1609C36.7466 33.575 37.8011 31.5361 38.1787 29.3254C38.5563 27.1147 38.2384 24.8413 37.2688 22.819ZM27.4999 35C26.2357 34.9995 24.992 34.6798 23.8842 34.0706C23.5404 33.8808 23.1409 33.8181 22.7555 33.8932C20.7014 34.3029 18.582 34.2517 16.5501 33.7431C14.5182 33.2345 12.6246 32.2813 11.0057 30.9522C9.38689 29.6231 8.08321 27.9513 7.18874 26.0573C6.29427 24.1634 5.83131 22.0945 5.83325 20C5.83497 19.0742 5.92654 18.1509 6.10669 17.2428C6.18194 16.8578 6.11943 16.4586 5.9301 16.115C5.14673 14.6918 4.84672 13.0527 5.0752 11.4442C5.30368 9.83583 6.0483 8.34511 7.19704 7.19637C8.34577 6.04763 9.83648 5.30299 11.4449 5.07449C13.0533 4.84599 14.6924 5.14599 16.1156 5.92935C16.4592 6.11968 16.859 6.18251 17.2444 6.10675C19.2985 5.69702 21.4179 5.7483 23.4497 6.25688C25.4816 6.76547 27.3753 7.71868 28.9941 9.04777C30.613 10.3768 31.9166 12.0487 32.8111 13.9426C33.7056 15.8366 34.1685 17.9054 34.1666 20C34.1649 20.9257 34.0733 21.8491 33.8932 22.7571C33.8179 23.1422 33.8804 23.5415 34.0698 23.8851C34.6987 25.0269 35.019 26.3129 34.9991 27.6162C34.9793 28.9196 34.62 30.1952 33.9567 31.3174C33.2935 32.4395 32.3491 33.3693 31.2168 34.0151C30.0845 34.6609 28.8034 35.0004 27.4999 35Z" fill="white"/>
</svg>
