<svg width="40" height="40" viewBox="0 0 40 40" fill="none" xmlns="http://www.w3.org/2000/svg">
<path d="M38.3334 15.8333C38.3316 14.2868 37.7164 12.8041 36.6228 11.7106C35.5293 10.617 34.0466 10.0018 32.5001 9.99998C31.6334 10.0046 30.7789 10.2046 30.0001 10.5851V7.49998C30.0019 6.34033 29.6574 5.20656 29.0109 4.24386C28.3644 3.28116 27.4452 2.53337 26.3711 2.09626C25.297 1.65915 24.1168 1.55262 22.9818 1.79031C21.8468 2.02801 20.8086 2.5991 20.0001 3.43046C19.0407 2.43271 17.7566 1.81018 16.3791 1.67492C15.0015 1.53966 13.6209 1.90055 12.4858 2.69263C11.3506 3.48472 10.5355 4.65598 10.1871 5.99559C9.83864 7.33521 9.97983 8.7552 10.5852 9.99998H7.5001C6.34045 9.99821 5.20668 10.3426 4.24398 10.9892C3.28128 11.6357 2.53349 12.5549 2.09638 13.629C1.65927 14.7031 1.55274 15.8832 1.79043 17.0183C2.02813 18.1533 2.59923 19.1915 3.43058 20C2.43283 20.9594 1.8103 22.2434 1.67504 23.621C1.53978 24.9985 1.90067 26.3792 2.69275 27.5143C3.48484 28.6495 4.6561 29.4646 5.99571 29.813C7.33533 30.1614 8.75532 30.0202 10.0001 29.4149V32.5C9.99833 33.6596 10.3428 34.7934 10.9893 35.7561C11.6358 36.7188 12.555 37.4666 13.6291 37.9037C14.7032 38.3408 15.8833 38.4473 17.0184 38.2096C18.1534 37.972 19.1916 37.4009 20.0001 36.5695C20.9595 37.5672 22.2435 38.1898 23.6211 38.325C24.9987 38.4603 26.3793 38.0994 27.5144 37.3073C28.6496 36.5152 29.4647 35.344 29.8131 34.0044C30.1616 32.6647 30.0204 31.2448 29.415 30H32.5001C33.6597 30.0018 34.7935 29.6573 35.7562 29.0108C36.7189 28.3643 37.4667 27.4451 37.9038 26.371C38.3409 25.2969 38.4475 24.1167 38.2098 22.9817C37.9721 21.8467 37.401 20.8084 36.5696 20C37.1274 19.4588 37.5709 18.8111 37.8738 18.0954C38.1768 17.3797 38.3331 16.6105 38.3334 15.8333ZM21.6668 7.49998C21.6668 6.83694 21.9302 6.20105 22.399 5.73221C22.8678 5.26337 23.5037 4.99998 24.1668 4.99998C24.8298 4.99998 25.4657 5.26337 25.9345 5.73221C26.4034 6.20105 26.6668 6.83694 26.6668 7.49998V15.8333C26.6668 16.4964 26.4034 17.1322 25.9345 17.6011C25.4657 18.0699 24.8298 18.3333 24.1668 18.3333C23.5037 18.3333 22.8678 18.0699 22.399 17.6011C21.9302 17.1322 21.6668 16.4964 21.6668 15.8333V7.49998ZM10.0001 24.1666C10.0001 24.6611 9.85348 25.1444 9.57877 25.5556C9.30407 25.9667 8.91362 26.2871 8.45681 26.4763C7.99999 26.6656 7.49733 26.7151 7.01237 26.6186C6.52742 26.5221 6.08196 26.284 5.73233 25.9344C5.3827 25.5848 5.1446 25.1393 5.04814 24.6544C4.95167 24.1694 5.00118 23.6668 5.1904 23.2099C5.37962 22.7531 5.70005 22.3627 6.11117 22.088C6.5223 21.8133 7.00565 21.6666 7.5001 21.6666H10.0001V24.1666ZM18.3334 32.5C18.3334 33.163 18.07 33.7989 17.6012 34.2677C17.1324 34.7366 16.4965 35 15.8334 35C15.1704 35 14.5345 34.7366 14.0657 34.2677C13.5968 33.7989 13.3334 33.163 13.3334 32.5V24.1666C13.3334 23.5036 13.5968 22.8677 14.0657 22.3989C14.5345 21.93 15.1704 21.6666 15.8334 21.6666C16.4965 21.6666 17.1324 21.93 17.6012 22.3989C18.07 22.8677 18.3334 23.5036 18.3334 24.1666V32.5ZM15.8334 18.3333H7.5001C6.83706 18.3333 6.20117 18.0699 5.73233 17.6011C5.26349 17.1322 5.0001 16.4964 5.0001 15.8333C5.0001 15.1703 5.26349 14.5344 5.73233 14.0655C6.20117 13.5967 6.83706 13.3333 7.5001 13.3333H15.8334C16.4965 13.3333 17.1324 13.5967 17.6012 14.0655C18.07 14.5344 18.3334 15.1703 18.3334 15.8333C18.3334 16.4964 18.07 17.1322 17.6012 17.6011C17.1324 18.0699 16.4965 18.3333 15.8334 18.3333ZM18.3334 9.99998H15.8334C15.339 9.99998 14.8556 9.85336 14.4445 9.57865C14.0334 9.30395 13.713 8.9135 13.5237 8.45669C13.3345 7.99987 13.285 7.49721 13.3815 7.01225C13.4779 6.5273 13.716 6.08184 14.0657 5.73221C14.4153 5.38258 14.8608 5.14448 15.3457 5.04802C15.8307 4.95155 16.3333 5.00106 16.7901 5.19028C17.247 5.3795 17.6374 5.69993 17.9121 6.11105C18.1868 6.52218 18.3334 7.00553 18.3334 7.49998V9.99998ZM20.0001 20.0971C19.9678 20.0642 19.9359 20.0322 19.903 20C19.9359 19.9677 19.9678 19.9358 20.0001 19.9028C20.0323 19.9358 20.0643 19.9677 20.0972 20C20.0643 20.0322 20.0323 20.0642 20.0001 20.0971ZM24.1668 35C23.5039 34.9993 22.8685 34.7356 22.3998 34.2669C21.9311 33.7983 21.6675 33.1628 21.6668 32.5V30H24.1668C24.8298 30 25.4657 30.2634 25.9345 30.7322C26.4034 31.2011 26.6668 31.8369 26.6668 32.5C26.6668 33.163 26.4034 33.7989 25.9345 34.2677C25.4657 34.7366 24.8298 35 24.1668 35ZM32.5001 26.6666H24.1668C23.5037 26.6666 22.8678 26.4033 22.399 25.9344C21.9302 25.4656 21.6668 24.8297 21.6668 24.1666C21.6668 23.5036 21.9302 22.8677 22.399 22.3989C22.8678 21.93 23.5037 21.6666 24.1668 21.6666H32.5001C33.1631 21.6666 33.799 21.93 34.2679 22.3989C34.7367 22.8677 35.0001 23.5036 35.0001 24.1666C35.0001 24.8297 34.7367 25.4656 34.2679 25.9344C33.799 26.4033 33.1631 26.6666 32.5001 26.6666ZM32.5001 18.3333H30.0001V15.8333C30.0001 15.3389 30.1467 14.8555 30.4214 14.4444C30.6961 14.0333 31.0866 13.7128 31.5434 13.5236C32.0002 13.3344 32.5029 13.2849 32.9878 13.3813C33.4728 13.4778 33.9182 13.7159 34.2679 14.0655C34.6175 14.4152 34.8556 14.8606 34.9521 15.3456C35.0485 15.8305 34.999 16.3332 34.8098 16.79C34.6206 17.2468 34.3001 17.6373 33.889 17.912C33.4779 18.1867 32.9946 18.3333 32.5001 18.3333Z" fill="white"/>
</svg>
