<svg width="40" height="40" viewBox="0 0 40 40" fill="none" xmlns="http://www.w3.org/2000/svg">
<path d="M36.5854 26.0238C35.5565 25.7843 34.5864 25.3403 33.7327 24.7181C32.8791 24.096 32.1593 23.3084 31.6163 22.4024C31.3685 22.0363 30.9855 21.7837 30.5514 21.7C30.1174 21.6164 29.6679 21.7086 29.3018 21.9564C28.9358 22.2042 28.6831 22.5872 28.5995 23.0212C28.5159 23.4553 28.6081 23.9048 28.8559 24.2708C29.8884 25.846 31.2555 27.1742 32.8598 28.1608C32.6352 28.2032 32.391 28.2439 32.1241 28.2862C31.65 28.387 31.2204 28.6365 30.8978 28.9983C30.5753 29.3601 30.3765 29.8153 30.3305 30.2978C29.2194 30.1084 28.0845 30.1062 26.9727 30.2913C25.7739 30.5559 24.6553 31.1021 23.7094 31.8848C22.7363 32.7476 21.5017 33.2589 20.2035 33.3366H19.769C18.4692 33.2586 17.2334 32.7462 16.2598 31.8816C15.3274 31.1092 14.2262 30.5672 13.0453 30.2995C11.9189 30.1196 10.771 30.1218 9.64532 30.306C9.60137 29.8258 9.40628 29.3719 9.08809 29.0095C8.7699 28.6472 8.345 28.395 7.87448 28.2894C7.61243 28.2487 7.37155 28.208 7.1502 28.1657C8.28308 27.5103 9.29497 26.6653 10.1417 25.6673C10.5325 25.2141 10.8863 24.7302 11.1997 24.2204C11.4336 23.8457 11.5091 23.3935 11.4098 22.9632C11.3104 22.5328 11.0443 22.1595 10.6698 21.9252C10.2954 21.691 9.84326 21.615 9.4128 21.7139C8.98234 21.8128 8.60876 22.0786 8.37415 22.4528C8.15212 22.814 7.90235 23.1574 7.62708 23.4798C6.56193 24.8136 5.05119 25.718 3.37253 26.027C2.88531 26.1042 2.44256 26.3553 2.12625 26.7339C1.80993 27.1124 1.64148 27.5928 1.65208 28.0859C1.65152 28.3925 1.71703 28.6956 1.84415 28.9746C2.36987 30.1677 3.7696 30.9213 6.48443 31.4323L6.53653 31.6488C6.58373 31.8457 6.63255 32.0459 6.68952 32.2282C6.81729 32.6912 7.09661 33.0981 7.48283 33.3837C7.86906 33.6693 8.33988 33.8172 8.82005 33.8037C9.15932 33.7951 9.49639 33.7464 9.82428 33.6589C10.6961 33.4822 11.5918 33.4563 12.4724 33.5824C13.163 33.7868 13.8014 34.1377 14.3441 34.611C15.8764 35.876 17.7833 36.5998 19.769 36.67H20.2035C22.2016 36.5966 24.1195 35.8654 25.6593 34.59C26.2046 34.1153 26.8491 33.7683 27.5456 33.5744C27.889 33.5139 28.237 33.4845 28.5856 33.4865C29.1212 33.4855 29.6552 33.5451 30.1774 33.6639C30.5158 33.727 30.8587 33.7624 31.2028 33.7697C31.6709 33.7823 32.1297 33.6376 32.5059 33.3588C32.8821 33.08 33.1539 32.6831 33.278 32.2316C33.3415 32.0282 33.3903 31.8328 33.4359 31.6408L33.488 31.4341C36.1946 30.9247 37.5993 30.176 38.1006 29.0334C38.2274 28.7852 38.2996 28.5127 38.3123 28.2343C38.3535 27.7165 38.199 27.2021 37.8792 26.7928C37.5594 26.3835 37.0977 26.109 36.5854 26.0238ZM6.33633 18.5807C6.67734 18.6453 7.02999 18.6023 7.3455 18.4577C7.661 18.313 7.92375 18.0739 8.0974 17.7734C8.75755 18.1094 9.48152 18.3014 10.2214 18.3366C11.0064 18.347 11.7641 18.0483 12.3308 17.5049C12.5101 17.3377 12.6503 17.133 12.7414 16.9054C12.8326 16.6779 12.8724 16.433 12.8581 16.1883L12.7979 15.1857C12.5249 13.2075 12.6132 11.1963 13.0584 9.24967C13.6208 7.9711 14.548 6.88685 15.7237 6.13267C16.8994 5.37849 18.2715 4.98789 19.6681 5.00977L20.3143 5.00325C21.7096 4.98462 23.0796 5.37722 24.2533 6.13209C25.427 6.88695 26.3524 7.97066 26.9143 9.24805C27.3595 11.1963 27.4477 13.2091 27.1747 15.1888L27.1584 15.4606L27.1128 16.1996C27.1036 16.4402 27.1452 16.6802 27.2349 16.9037C27.3247 17.1272 27.4606 17.3293 27.6337 17.4968C28.1946 18.0376 28.9443 18.3383 29.7235 18.335C30.4467 18.2718 31.15 18.0648 31.7922 17.7262C31.9224 18.0228 32.136 18.275 32.4071 18.4522C32.6782 18.6294 32.995 18.7238 33.3189 18.724H33.3482C33.7902 18.7162 34.211 18.5331 34.5181 18.2151C34.8251 17.897 34.9933 17.47 34.9855 17.028C34.9423 16.4714 34.7298 15.9414 34.3766 15.509C34.0234 15.0767 33.5464 14.7628 33.0096 14.6094C32.6187 14.4493 32.1998 14.3684 31.7774 14.3715C31.3549 14.3746 30.9373 14.4615 30.5487 14.6273C30.8407 12.3654 30.6391 10.0671 29.9579 7.89062C29.1377 6.01885 27.7839 4.43041 26.0658 3.32397C24.3476 2.21753 22.3414 1.64219 20.298 1.6699L19.6437 1.67642C17.6055 1.65151 15.6051 2.22782 13.8926 3.33333C12.18 4.43884 10.8312 6.02453 10.0147 7.89225C9.32834 10.098 9.12843 12.4263 9.42878 14.7168C9.37182 14.6908 9.30997 14.6615 9.24323 14.6305C8.83597 14.4657 8.39899 14.3871 7.95982 14.3995C7.52066 14.412 7.08883 14.5153 6.69157 14.7029C6.2943 14.8905 5.94021 15.1584 5.65161 15.4897C5.36301 15.8209 5.14615 16.2084 5.01472 16.6276C4.93143 17.0618 5.02382 17.5113 5.27159 17.8775C5.51937 18.2437 5.90229 18.4966 6.33633 18.5807Z" fill="white"/>
</svg>
