<svg width="40" height="40" viewBox="0 0 40 40" fill="none" xmlns="http://www.w3.org/2000/svg">
<g clip-path="url(#clip0_11461_17432)">
<path d="M27.3312 23.1748C26.9341 22.9763 24.9759 22.0161 24.6109 21.8849C24.246 21.7521 23.9807 21.6864 23.7154 22.0833C23.4502 22.4786 22.6865 23.3732 22.4534 23.6373C22.2219 23.9013 21.9887 23.9333 21.5916 23.7349C20.4181 23.2698 19.3349 22.6048 18.3907 21.7697C17.5198 20.9684 16.7732 20.0429 16.1752 19.0235C15.9437 18.6266 16.1511 18.4121 16.3505 18.2153C16.5289 18.0377 16.7492 17.7528 16.9469 17.5207C17.1107 17.3204 17.245 17.0978 17.3457 16.8598C17.3986 16.7504 17.4233 16.6295 17.4174 16.5082C17.4115 16.3869 17.3752 16.269 17.3119 16.1652C17.2122 15.9668 16.4164 14.016 16.0852 13.2222C15.7621 12.4508 15.4341 12.5548 15.1881 12.542C14.9566 12.5308 14.6913 12.5276 14.426 12.5276C14.2243 12.5332 14.0258 12.5804 13.8432 12.666C13.6606 12.7517 13.4978 12.874 13.365 13.0254C12.9148 13.4497 12.5584 13.9626 12.3184 14.5316C12.0785 15.1006 11.9601 15.7131 11.9711 16.3301C12.1002 17.8252 12.6651 19.2502 13.5965 20.4302C15.3037 22.978 17.6473 25.0401 20.3971 26.4139C21.1388 26.7311 21.8966 27.0099 22.6672 27.2493C23.4797 27.4948 24.3385 27.5479 25.1752 27.4045C25.7294 27.2927 26.2543 27.0678 26.7167 26.7438C27.1791 26.4199 27.569 26.004 27.8617 25.5225C28.1229 24.9303 28.2034 24.2747 28.0932 23.6373C27.9952 23.4708 27.7299 23.3732 27.3312 23.1748ZM31.3376 8.64519C28.6044 5.92516 24.9713 4.28649 21.1148 4.03427C17.2582 3.78205 13.441 4.93346 10.3738 7.27414C7.30654 9.61481 5.19833 12.9853 4.44163 16.758C3.68493 20.5307 4.33132 24.4485 6.26045 27.7822L4 36L12.4469 33.7963C14.7832 35.0626 17.4009 35.7261 20.0611 35.7263H20.0675C23.2188 35.7247 26.2989 34.7934 28.9187 33.05C31.5385 31.3067 33.5804 28.8295 34.7864 25.9315C35.9924 23.0335 36.3085 19.8447 35.6947 16.7679C35.0808 13.6912 33.5646 10.8645 31.3376 8.64518V8.64519ZM27.1045 31.0325C24.9954 32.3484 22.5567 33.0467 20.0675 33.0473H20.0611C17.6896 33.0472 15.3617 32.4121 13.3215 31.2085L12.8376 30.9237L7.82476 32.2327L9.16238 27.3677L8.84887 26.8684C7.45747 24.6596 6.75528 22.0898 6.83109 19.4838C6.9069 16.8778 7.75731 14.3527 9.27479 12.2279C10.7923 10.103 12.9087 8.4737 15.3563 7.5461C17.804 6.61849 20.4731 6.43419 23.026 7.01651C25.5789 7.59883 27.901 8.92161 29.6987 10.8176C31.4964 12.7136 32.6889 15.0976 33.1254 17.6682C33.562 20.2388 33.223 22.8805 32.1513 25.2593C31.0795 27.6382 29.3233 29.6472 27.1045 31.0325Z" fill="white"/>
</g>
<defs>
<clipPath id="clip0_11461_17432">
<rect width="32" height="32" fill="white" transform="translate(4 4)"/>
</clipPath>
</defs>
</svg>
