<svg width="40" height="40" viewBox="0 0 40 40" fill="none" xmlns="http://www.w3.org/2000/svg">
<path d="M28.3284 7.002C28.5182 6.78869 28.7901 6.66666 29.0756 6.66666H32.1128C32.5444 6.66666 32.7732 7.17661 32.4864 7.49901L23.1769 17.9624L34.3809 32.5285C34.6338 32.8573 34.3994 33.3333 33.9846 33.3333H25.9871C25.8328 33.3333 25.6872 33.2621 25.5925 33.1403L18.4919 24.0109L10.3445 33.1657C10.2497 33.2723 10.1137 33.3333 9.97103 33.3333H6.70651C6.27498 33.3333 6.04612 32.8234 6.33296 32.501L16.342 21.2513L5.62753 7.4736C5.37212 7.14516 5.60617 6.66666 6.02223 6.66666H14.2462C14.4014 6.66666 14.5479 6.73877 14.6425 6.86182L21.0464 15.1877L28.3284 7.002ZM27.0122 30.6256H29.5613L13.1074 9.23213H10.372L27.0122 30.6256Z" fill="white"/>
</svg>
