<svg width="129" height="128" viewBox="0 0 129 128" fill="none" xmlns="http://www.w3.org/2000/svg">
<g clip-path="url(#clip0_11013_46053)">
<path fill-rule="evenodd" clip-rule="evenodd" d="M9.85945 1.81698C7.77666 -0.265816 4.39978 -0.265816 2.31698 1.81698C0.234184 3.89978 0.234184 7.27666 2.31698 9.35945L19.6242 26.6667H16.5C7.43333 26.6667 0.5 33.6 0.5 42.6667V101.333C0.5 110.4 7.43333 117.333 16.5 117.333H110.291L119.141 126.183C121.223 128.266 124.6 128.266 126.683 126.183C128.766 124.1 128.766 120.723 126.683 118.641L9.85945 1.81698ZM99.6242 106.667L82.2958 89.3383C77.6054 93.4996 71.3937 96 64.5 96C49.5667 96 37.8333 84.2667 37.8333 69.3333C37.8333 62.4397 40.3337 56.2279 44.4951 51.5375L30.2909 37.3333H16.5C13.3 37.3333 11.1667 39.4667 11.1667 42.6667V101.333C11.1667 104.533 13.3 106.667 16.5 106.667H99.6242ZM52.0517 59.0941C49.8162 61.8375 48.5 65.3829 48.5 69.3333C48.5 78.4 55.4333 85.3333 64.5 85.3333C68.4504 85.3333 71.9958 84.0171 74.7392 81.7817L52.0517 59.0941Z" fill="white"/>
<path d="M119.617 92.373C123.055 95.4381 128.5 92.998 128.5 88.3922V42.6667C128.5 33.6 121.567 26.6667 112.5 26.6667H93.8333L84.7667 12.8C83.7 11.7333 82.1 10.6667 80.5 10.6667H48.5C46.9 10.6667 45.3 11.7333 44.2333 12.8C43.8318 13.4141 43.9399 14.2295 44.4875 14.7177L50.3901 19.9807C51.3672 20.8519 52.6305 21.3333 53.9395 21.3333H77.8333L86.9 35.2C87.9667 36.2667 89.5667 37.3333 91.1667 37.3333H112.5C115.7 37.3333 117.833 39.4667 117.833 42.6667V88.3922C117.833 89.9128 118.482 91.361 119.617 92.373Z" fill="white"/>
</g>
<defs>
<clipPath id="clip0_11013_46053">
<rect width="128" height="128" fill="white" transform="translate(0.5)"/>
</clipPath>
</defs>
</svg>
